<svg width="1212" height="1595" viewBox="0 0 1212 1595" fill="none" xmlns="http://www.w3.org/2000/svg">
<g filter="url(#filter0_d_114_93)">
<rect x="105" y="105" width="1002" height="1385" rx="100" fill="white"/>
<g clip-path="url(#clip0_114_93)">
<path d="M737 357.804C690.379 350.364 637.29 346.394 582 346.394C531.399 346.394 482.649 349.714 439.02 355.974C439.03 355.304 439.04 354.634 439.069 353.964C440.226 315.074 456.549 278.178 484.549 251.164C512.55 224.149 550.006 209.159 588.913 209.397C627.82 209.635 665.091 225.081 692.759 252.436C720.427 279.79 736.298 316.882 736.98 355.784C736.99 356.464 737 357.134 737 357.804Z" fill="#F9A826"/>
<g opacity="0.1">
<path d="M607.55 209.341C586.857 206.546 565.808 208.13 545.766 213.991C525.724 219.852 507.138 229.858 491.211 243.362C475.284 256.866 462.372 273.565 453.312 292.378C444.252 311.192 439.246 331.698 438.619 352.57C438.589 353.24 438.579 353.91 438.569 354.58C451.531 352.72 464.954 351.127 478.734 349.796C480.42 315.025 494.225 281.941 517.755 256.285C541.285 230.629 573.054 214.021 607.55 209.341Z" fill="white"/>
</g>
<path d="M802.18 369.624C780.72 363.806 758.953 359.186 736.98 355.784C700.966 350.203 664.658 346.714 628.24 345.334C613.07 344.714 597.62 344.394 582 344.394C569.62 344.394 557.34 344.594 545.23 344.994C509.706 346.044 474.266 349.038 439.07 353.964C413.016 357.552 387.214 362.782 361.82 369.624C302.61 385.994 270 407.934 270 431.394C270 454.854 302.61 476.794 361.82 493.164C403.46 504.684 454.8 512.534 510.74 516.134C533.83 517.634 557.7 518.394 582 518.394C606.38 518.394 630.33 517.624 653.49 516.124C704.4 512.834 751.5 506.024 790.92 496.124C791.13 496.064 791.33 496.014 791.54 495.964C794.2 495.304 796.82 494.614 799.41 493.924C800.34 493.664 801.26 493.414 802.18 493.164C802.232 493.143 802.285 493.126 802.34 493.114C803.22 492.874 804.09 492.624 804.96 492.384C806.7 491.884 808.42 491.394 810.11 490.884C810.19 490.864 810.26 490.844 810.33 490.824C811.8 490.384 813.24 489.944 814.67 489.504C815.84 489.134 817 488.774 818.15 488.404C818.99 488.134 819.82 487.864 820.64 487.594C821.24 487.394 821.83 487.204 822.41 487.004C823.2 486.744 823.99 486.474 824.77 486.204C825.1 486.094 825.43 485.984 825.75 485.864C826.5 485.614 827.23 485.354 827.96 485.094C828.75 484.814 829.54 484.524 830.32 484.244C830.97 484.014 831.62 483.774 832.26 483.534C832.8 483.324 833.33 483.124 833.87 482.924C835.34 482.374 836.78 481.804 838.2 481.244C838.91 480.954 839.62 480.674 840.32 480.384C841.01 480.104 841.71 479.814 842.39 479.524C843.51 479.054 844.61 478.584 845.69 478.114C846.21 477.874 846.74 477.644 847.25 477.424C847.64 477.244 848.02 477.074 848.41 476.894C848.69 476.774 848.97 476.644 849.24 476.514C850.25 476.054 851.25 475.584 852.23 475.114C855.99 473.314 859.5 471.474 862.76 469.594C883.21 457.884 894 444.894 894 431.394C894 407.934 861.39 385.994 802.18 369.624ZM801.64 491.244C759.95 502.774 708.47 510.624 652.38 514.194C629.57 515.644 605.99 516.394 582 516.394C558.09 516.394 534.59 515.654 511.85 514.204C455.67 510.644 404.11 502.794 362.36 491.244C304.09 475.124 272 453.874 272 431.394C272.003 429.408 272.252 427.429 272.74 425.504C277.84 405.224 309.21 386.244 362.36 371.544C387.562 364.755 413.166 359.555 439.02 355.974C474.428 351.02 510.082 348.016 545.82 346.974C557.74 346.584 569.8 346.391 582 346.394C597.41 346.394 612.65 346.704 627.63 347.304C664.26 348.672 700.779 352.178 737 357.804C758.783 361.191 780.363 365.778 801.64 371.544C854.78 386.244 886.14 405.214 891.25 425.484C891.746 427.415 891.998 429.4 892 431.394C892 453.874 859.91 475.124 801.64 491.244Z" fill="#3F3D56"/>
<path d="M893.43 432.304C893.43 445.664 882.419 458.304 862.759 469.594C859.49 471.474 855.97 473.314 852.229 475.114C851.25 475.584 850.25 476.054 849.24 476.514C848.97 476.644 848.689 476.774 848.41 476.894C848.02 477.074 847.64 477.244 847.25 477.424C846.74 477.644 846.21 477.874 845.689 478.114C844.609 478.584 843.509 479.054 842.39 479.524C841.709 479.814 841.009 480.104 840.319 480.384C839.62 480.674 838.91 480.954 838.2 481.244C836.78 481.804 835.339 482.374 833.87 482.924C833.33 483.124 832.799 483.324 832.259 483.534C831.62 483.774 830.97 484.014 830.319 484.244C829.54 484.524 828.75 484.814 827.959 485.094C827.229 485.354 826.5 485.614 825.75 485.864C825.43 485.984 825.1 486.094 824.77 486.204C823.99 486.474 823.2 486.744 822.41 487.004C821.83 487.204 821.24 487.394 820.64 487.594C819.819 487.864 818.989 488.134 818.149 488.404C817 488.774 815.839 489.134 814.669 489.504C813.24 489.944 811.799 490.384 810.33 490.824C810.259 490.844 810.189 490.864 810.109 490.884C808.419 491.394 806.7 491.884 804.959 492.384C804.089 492.624 803.22 492.874 802.339 493.114C802.285 493.126 802.231 493.143 802.18 493.164C801.259 493.414 800.339 493.664 799.41 493.924C796.83 494.604 794.2 495.294 791.54 495.964C791.33 496.014 791.129 496.064 790.919 496.124C752.569 505.704 705.52 512.684 653.45 516.054C630.64 517.524 606.859 518.304 582.43 518.304C557.78 518.304 533.799 517.514 510.81 516.014C373.569 507.064 271.43 472.984 271.43 432.304C271.44 429.829 271.818 427.369 272.549 425.004C272.609 425.174 272.669 425.334 272.74 425.504C287.009 462.984 388.28 493.274 519.68 500.664C539.81 501.804 560.66 502.394 582 502.394C603.43 502.394 624.359 501.794 644.569 500.654C775.859 493.234 877.03 462.934 891.25 425.484C891.49 424.884 891.7 424.284 891.879 423.684C892.893 426.445 893.418 429.363 893.43 432.304Z" fill="#3F3D56"/>
<path d="M361.67 421.54C345.027 421.54 327.339 417.959 327.339 411.323C327.339 404.687 345.027 401.106 361.67 401.106C378.312 401.106 396 404.687 396 411.323C396 417.959 378.312 421.54 361.67 421.54ZM361.67 403.106C342.617 403.106 329.339 407.437 329.339 411.323C329.339 415.209 342.617 419.54 361.67 419.54C380.723 419.54 394 415.209 394 411.323C394 407.437 380.723 403.106 361.67 403.106Z" fill="#3F3D56"/>
<path d="M432.669 468.54C416.027 468.54 398.339 464.959 398.339 458.323C398.339 451.687 416.027 448.106 432.669 448.106C449.312 448.106 467 451.687 467 458.323C467 464.959 449.312 468.54 432.669 468.54ZM432.669 450.106C413.617 450.106 400.339 454.437 400.339 458.323C400.339 462.209 413.617 466.54 432.669 466.54C451.722 466.54 465 462.209 465 458.323C465 454.437 451.722 450.106 432.669 450.106Z" fill="#3F3D56"/>
<path d="M801.669 421.54C785.027 421.54 767.339 417.959 767.339 411.323C767.339 404.687 785.027 401.106 801.669 401.106C818.312 401.106 836 404.687 836 411.323C836 417.959 818.312 421.54 801.669 421.54ZM801.669 403.106C782.616 403.106 769.339 407.437 769.339 411.323C769.339 415.209 782.616 419.54 801.669 419.54C820.722 419.54 834 415.209 834 411.323C834 407.437 820.722 403.106 801.669 403.106Z" fill="#3F3D56"/>
<path d="M730.669 468.54C714.027 468.54 696.339 464.959 696.339 458.323C696.339 451.687 714.027 448.106 730.669 448.106C747.312 448.106 765 451.687 765 458.323C765 464.959 747.312 468.54 730.669 468.54ZM730.669 450.106C711.616 450.106 698.339 454.437 698.339 458.323C698.339 462.209 711.616 466.54 730.669 466.54C749.722 466.54 763 462.209 763 458.323C763 454.437 749.722 450.106 730.669 450.106Z" fill="#3F3D56"/>
<path d="M581.669 490.54C565.027 490.54 547.339 486.959 547.339 480.323C547.339 473.687 565.027 470.106 581.669 470.106C598.312 470.106 616 473.687 616 480.323C616 486.959 598.312 490.54 581.669 490.54ZM581.669 472.106C562.616 472.106 549.339 476.437 549.339 480.323C549.339 484.209 562.616 488.54 581.669 488.54C600.722 488.54 614 484.209 614 480.323C614 476.437 600.722 472.106 581.669 472.106Z" fill="#3F3D56"/>
<path d="M606.978 700.717C630.181 700.717 648.99 681.907 648.99 658.704C648.99 635.501 630.181 616.692 606.978 616.692C583.775 616.692 564.966 635.501 564.966 658.704C564.966 681.907 583.775 700.717 606.978 700.717Z" fill="#2F2E41"/>
<path d="M591.002 686.306L570.555 696.546L576.27 707.958L596.717 697.719L591.002 686.306Z" fill="#2F2E41"/>
<path d="M578.965 706.8C580.178 704.961 577.185 700.849 572.281 697.615C567.377 694.382 562.419 693.252 561.206 695.091C559.994 696.93 562.986 701.042 567.89 704.275C572.794 707.509 577.753 708.639 578.965 706.8Z" fill="#2F2E41"/>
<path d="M622.953 686.306L617.238 697.719L637.685 707.958L643.4 696.546L622.953 686.306Z" fill="#2F2E41"/>
<path d="M646.065 704.275C650.969 701.042 653.961 696.93 652.749 695.091C651.536 693.252 646.578 694.382 641.674 697.615C636.769 700.849 633.777 704.961 634.989 706.8C636.202 708.639 641.161 707.509 646.065 704.275Z" fill="#2F2E41"/>
<path d="M604.036 662.787C611.966 662.787 618.395 656.358 618.395 648.428C618.395 640.498 611.966 634.069 604.036 634.069C596.106 634.069 589.678 640.498 589.678 648.428C589.678 656.358 596.106 662.787 604.036 662.787Z" fill="white"/>
<path d="M607.53 645.675C609.391 643.814 609.38 640.785 607.506 638.911C605.631 637.036 602.603 637.026 600.741 638.887C598.88 640.748 598.891 643.777 600.765 645.651C602.64 647.526 605.668 647.537 607.53 645.675Z" fill="#3F3D56"/>
<path d="M640.119 612.999C640.751 597.446 627.346 584.272 610.178 583.574C593.011 582.877 578.582 594.92 577.95 610.474C577.318 626.027 589.252 629.561 606.419 630.259C623.587 630.956 639.487 628.553 640.119 612.999Z" fill="#F9A826"/>
<path d="M664.337 680.703C667.1 678.331 663.215 669.272 655.658 660.469C648.101 651.667 639.735 646.454 636.971 648.826C634.208 651.198 638.094 660.258 645.651 669.06C653.207 677.863 661.574 683.076 664.337 680.703Z" fill="#2F2E41"/>
<path d="M568.422 669.06C575.979 660.257 579.865 651.198 577.102 648.826C574.338 646.454 565.972 651.666 558.415 660.469C550.858 669.272 546.973 678.331 549.736 680.703C552.499 683.075 560.866 677.863 568.422 669.06Z" fill="#2F2E41"/>
<path d="M618.516 675.261C618.971 677.758 618.415 680.334 616.97 682.422C615.525 684.51 613.311 685.938 610.813 686.393C608.315 686.847 605.739 686.291 603.651 684.847C601.564 683.402 600.136 681.187 599.681 678.689L599.677 678.671C598.736 673.469 602.758 671.628 607.96 670.686C613.162 669.744 617.574 670.058 618.516 675.261Z" fill="white"/>
<path d="M536 703.394C535.47 703.394 534.961 703.183 534.586 702.808C534.211 702.433 534 701.924 534 701.394V583.394C534 582.864 534.211 582.355 534.586 581.98C534.961 581.605 535.47 581.394 536 581.394C536.53 581.394 537.039 581.605 537.414 581.98C537.789 582.355 538 582.864 538 583.394V701.394C538 701.924 537.789 702.433 537.414 702.808C537.039 703.183 536.53 703.394 536 703.394Z" fill="#CCCCCC"/>
<path d="M506 809.394C505.47 809.394 504.961 809.183 504.586 808.808C504.211 808.433 504 807.924 504 807.394V721.394C504 720.864 504.211 720.355 504.586 719.98C504.961 719.605 505.47 719.394 506 719.394C506.53 719.394 507.039 719.605 507.414 719.98C507.789 720.355 508 720.864 508 721.394V807.394C508 807.924 507.789 808.433 507.414 808.808C507.039 809.183 506.53 809.394 506 809.394Z" fill="#CCCCCC"/>
<path d="M583 738.394C582.47 738.394 581.961 738.183 581.586 737.808C581.211 737.433 581 736.924 581 736.394V618.394C581 617.864 581.211 617.355 581.586 616.98C581.961 616.605 582.47 616.394 583 616.394C583.53 616.394 584.039 616.605 584.414 616.98C584.789 617.355 585 617.864 585 618.394V736.394C585 736.924 584.789 737.433 584.414 737.808C584.039 738.183 583.53 738.394 583 738.394Z" fill="#CCCCCC"/>
<path d="M554 823.394C553.47 823.394 552.961 823.183 552.586 822.808C552.211 822.433 552 821.924 552 821.394V773.394C552 772.864 552.211 772.355 552.586 771.98C552.961 771.605 553.47 771.394 554 771.394C554.53 771.394 555.039 771.605 555.414 771.98C555.789 772.355 556 772.864 556 773.394V821.394C556 821.924 555.789 822.433 555.414 822.808C555.039 823.183 554.53 823.394 554 823.394Z" fill="#CCCCCC"/>
<path d="M595 577.394C594.47 577.394 593.961 577.183 593.586 576.808C593.211 576.433 593 575.924 593 575.394V527.394C593 526.864 593.211 526.355 593.586 525.98C593.961 525.605 594.47 525.394 595 525.394C595.53 525.394 596.039 525.605 596.414 525.98C596.789 526.355 597 526.864 597 527.394V575.394C597 575.924 596.789 576.433 596.414 576.808C596.039 577.183 595.53 577.394 595 577.394Z" fill="#CCCCCC"/>
<path d="M495 598.394C494.47 598.394 493.961 598.183 493.586 597.808C493.211 597.433 493 596.924 493 596.394V548.394C493 547.864 493.211 547.355 493.586 546.98C493.961 546.605 494.47 546.394 495 546.394C495.53 546.394 496.039 546.605 496.414 546.98C496.789 547.355 497 547.864 497 548.394V596.394C497 596.924 496.789 597.433 496.414 597.808C496.039 598.183 495.53 598.394 495 598.394Z" fill="#CCCCCC"/>
<path d="M669 603.394C668.47 603.394 667.961 603.183 667.586 602.808C667.211 602.433 667 601.924 667 601.394V553.394C667 552.864 667.211 552.355 667.586 551.98C667.961 551.605 668.47 551.394 669 551.394C669.53 551.394 670.039 551.605 670.414 551.98C670.789 552.355 671 552.864 671 553.394V601.394C671 601.924 670.789 602.433 670.414 602.808C670.039 603.183 669.53 603.394 669 603.394Z" fill="#CCCCCC"/>
<path d="M665 753.394C664.47 753.394 663.961 753.183 663.586 752.808C663.211 752.433 663 751.924 663 751.394V693.394C663 692.864 663.211 692.355 663.586 691.98C663.961 691.605 664.47 691.394 665 691.394C665.53 691.394 666.039 691.605 666.414 691.98C666.789 692.355 667 692.864 667 693.394V751.394C667 751.924 666.789 752.433 666.414 752.808C666.039 753.183 665.53 753.394 665 753.394Z" fill="#CCCCCC"/>
<path d="M625 804.394C624.47 804.394 623.961 804.183 623.586 803.808C623.211 803.433 623 802.924 623 802.394V716.394C623 715.864 623.211 715.355 623.586 714.98C623.961 714.605 624.47 714.394 625 714.394C625.53 714.394 626.039 714.605 626.414 714.98C626.789 715.355 627 715.864 627 716.394V802.394C627 802.924 626.789 803.433 626.414 803.808C626.039 804.183 625.53 804.394 625 804.394Z" fill="#CCCCCC"/>
<path d="M633 657.394C632.47 657.394 631.961 657.183 631.586 656.808C631.211 656.433 631 655.924 631 655.394V537.394C631 536.864 631.211 536.355 631.586 535.98C631.961 535.605 632.47 535.394 633 535.394C633.53 535.394 634.039 535.605 634.414 535.98C634.789 536.355 635 536.864 635 537.394V655.394C635 655.924 634.789 656.433 634.414 656.808C634.039 657.183 633.53 657.394 633 657.394Z" fill="#CCCCCC"/>
<path d="M878.193 908.491C881.056 906.094 877.187 896.759 869.553 887.641C861.918 878.522 853.408 873.073 850.545 875.47C847.683 877.867 851.551 887.202 859.186 896.32C866.821 905.439 875.331 910.888 878.193 908.491Z" fill="#2F2E41"/>
<path d="M859.42 898.122C866.941 875.557 854.746 851.167 832.181 843.645C809.617 836.124 785.227 848.319 777.705 870.883C770.183 893.448 782.378 917.838 804.943 925.36C827.508 932.881 851.898 920.686 859.42 898.122Z" fill="#2F2E41"/>
<path d="M836.791 918.302H823.707V941.743H836.791V918.302Z" fill="#2F2E41"/>
<path d="M810.624 918.302H797.54V941.743H810.624V918.302Z" fill="#2F2E41"/>
<path d="M825.888 946.105C831.909 946.105 836.791 944.275 836.791 942.016C836.791 939.758 831.909 937.928 825.888 937.928C819.866 937.928 814.984 939.758 814.984 942.016C814.984 944.275 819.866 946.105 825.888 946.105Z" fill="#2F2E41"/>
<path d="M799.721 945.56C805.742 945.56 810.624 943.729 810.624 941.471C810.624 939.213 805.742 937.382 799.721 937.382C793.699 937.382 788.817 939.213 788.817 941.471C788.817 943.729 793.699 945.56 799.721 945.56Z" fill="#2F2E41"/>
<path d="M805.04 830.365C808.885 814.878 825.86 805.765 842.954 810.009C860.049 814.254 870.789 830.25 866.943 845.737C863.098 861.224 850.339 861.273 833.245 857.029C816.151 852.784 801.194 845.852 805.04 830.365Z" fill="#CCCCCC"/>
<path d="M789.511 873.747C791.111 870.373 783.697 863.507 772.951 858.411C762.206 853.315 752.198 851.918 750.598 855.291C748.998 858.664 756.412 865.53 767.157 870.627C777.903 875.723 787.911 877.12 789.511 873.747Z" fill="#2F2E41"/>
<path d="M812.123 889.773C820.053 889.773 826.482 883.345 826.482 875.415C826.482 867.485 820.053 861.056 812.123 861.056C804.193 861.056 797.765 867.485 797.765 875.415C797.765 883.345 804.193 889.773 812.123 889.773Z" fill="white"/>
<path d="M806.223 875.054C808.866 875.054 811.009 872.911 811.009 870.268C811.009 867.625 808.866 865.482 806.223 865.482C803.579 865.482 801.437 867.625 801.437 870.268C801.437 872.911 803.579 875.054 806.223 875.054Z" fill="#3F3D56"/>
<path d="M812 911.394C815.314 911.394 818 908.708 818 905.394C818 902.08 815.314 899.394 812 899.394C808.686 899.394 806 902.08 806 905.394C806 908.708 808.686 911.394 812 911.394Z" fill="white"/>
<path d="M941.531 946.394H705.531C705.266 946.394 705.012 946.289 704.824 946.101C704.637 945.914 704.531 945.659 704.531 945.394C704.531 945.129 704.637 944.874 704.824 944.687C705.012 944.499 705.266 944.394 705.531 944.394H941.531C941.796 944.394 942.051 944.499 942.238 944.687C942.426 944.874 942.531 945.129 942.531 945.394C942.531 945.659 942.426 945.914 942.238 946.101C942.051 946.289 941.796 946.394 941.531 946.394Z" fill="#3F3D56"/>
</g>
<path d="M320.829 1044.9C326.529 1044.9 331.054 1046.57 334.404 1049.92C337.804 1053.22 339.504 1057.8 339.504 1063.65C339.504 1069.45 337.804 1074.02 334.404 1077.37C331.054 1080.67 326.529 1082.32 320.829 1082.32H309.654V1101H295.179V1044.9H320.829ZM319.029 1069.57C320.779 1069.57 322.179 1069.05 323.229 1068C324.279 1066.95 324.804 1065.5 324.804 1063.65C324.804 1061.8 324.279 1060.35 323.229 1059.3C322.179 1058.25 320.779 1057.72 319.029 1057.72H309.654V1069.57H319.029ZM361.477 1061.1C367.027 1061.1 371.227 1062.45 374.077 1065.15C376.977 1067.8 378.427 1071.77 378.427 1077.07V1101H365.602V1098.22C364.652 1099.27 363.377 1100.15 361.777 1100.85C360.177 1101.5 358.302 1101.83 356.152 1101.83C352.102 1101.83 348.927 1100.85 346.627 1098.9C344.377 1096.9 343.252 1094.02 343.252 1090.27C343.252 1086.02 344.827 1083 347.977 1081.2C351.127 1079.4 355.252 1078.4 360.352 1078.2L364.777 1078.05V1076.02C364.777 1073.57 363.752 1072.35 361.702 1072.35C360.502 1072.35 359.577 1072.72 358.927 1073.47C358.277 1074.17 357.952 1074.95 357.952 1075.8L344.302 1075.35C344.302 1073 345.002 1070.72 346.402 1068.52C347.852 1066.32 349.877 1064.55 352.477 1063.2C355.127 1061.8 358.127 1061.1 361.477 1061.1ZM356.902 1089.15C356.902 1090.05 357.177 1090.72 357.727 1091.17C358.277 1091.62 359.027 1091.85 359.977 1091.85C361.227 1091.85 362.327 1091.47 363.277 1090.72C364.227 1089.97 364.702 1089.02 364.702 1087.87V1086L361.252 1086.15C358.352 1086.3 356.902 1087.3 356.902 1089.15ZM404.557 1061.1C406.807 1061.1 408.807 1061.42 410.557 1062.07C412.307 1062.72 413.732 1063.52 414.832 1064.47V1061.92H427.732V1101.98C427.732 1105.73 426.882 1109.03 425.182 1111.88C423.532 1114.73 421.157 1116.93 418.057 1118.48C415.007 1120.08 411.432 1120.88 407.332 1120.88C401.032 1120.88 396.157 1119.48 392.707 1116.68C389.257 1113.93 387.182 1110.1 386.482 1105.2L400.132 1104.75C400.232 1106.15 400.857 1107.25 402.007 1108.05C403.157 1108.9 404.757 1109.33 406.807 1109.33C409.107 1109.33 410.882 1108.78 412.132 1107.68C413.432 1106.63 414.082 1105.05 414.082 1102.95V1099.12C412.982 1099.92 411.607 1100.57 409.957 1101.08C408.357 1101.58 406.557 1101.83 404.557 1101.83C400.857 1101.83 397.582 1100.97 394.732 1099.27C391.882 1097.52 389.657 1095.12 388.057 1092.07C386.507 1088.97 385.732 1085.45 385.732 1081.5C385.732 1077.5 386.507 1073.97 388.057 1070.92C389.657 1067.82 391.882 1065.42 394.732 1063.72C397.582 1061.97 400.857 1061.1 404.557 1061.1ZM399.532 1081.5C399.532 1084.2 400.182 1086.32 401.482 1087.87C402.832 1089.37 404.632 1090.12 406.882 1090.12C409.032 1090.12 410.757 1089.4 412.057 1087.95C413.407 1086.45 414.082 1084.52 414.082 1082.17V1080.75C414.082 1078.4 413.407 1076.5 412.057 1075.05C410.757 1073.55 409.032 1072.8 406.882 1072.8C404.632 1072.8 402.832 1073.57 401.482 1075.12C400.182 1076.62 399.532 1078.75 399.532 1081.5ZM449.061 1085.17C449.061 1087.02 449.511 1088.52 450.411 1089.67C451.361 1090.77 452.811 1091.32 454.761 1091.32C457.411 1091.32 459.086 1090.32 459.786 1088.32L473.511 1089C472.911 1092.9 470.861 1096.02 467.361 1098.37C463.911 1100.68 459.836 1101.83 455.136 1101.83C451.036 1101.83 447.411 1101 444.261 1099.35C441.161 1097.7 438.761 1095.35 437.061 1092.3C435.361 1089.2 434.511 1085.6 434.511 1081.5C434.511 1077.4 435.361 1073.82 437.061 1070.77C438.761 1067.67 441.136 1065.3 444.186 1063.65C447.236 1061.95 450.761 1061.1 454.761 1061.1C458.561 1061.1 461.886 1061.87 464.736 1063.42C467.636 1064.92 469.886 1067.17 471.486 1070.17C473.086 1073.12 473.886 1076.65 473.886 1080.75V1085.17H449.061ZM460.086 1077.15C459.986 1075.25 459.486 1073.77 458.586 1072.72C457.686 1071.67 456.361 1071.15 454.611 1071.15C452.961 1071.15 451.636 1071.7 450.636 1072.8C449.686 1073.85 449.161 1075.3 449.061 1077.15H460.086ZM520.335 1061.1C524.985 1061.1 528.685 1062.45 531.435 1065.15C534.185 1067.85 535.56 1071.67 535.56 1076.62V1101H521.91V1079.92C521.91 1077.92 521.46 1076.42 520.56 1075.42C519.71 1074.37 518.46 1073.85 516.81 1073.85C515.16 1073.85 513.86 1074.4 512.91 1075.5C511.96 1076.55 511.485 1078.05 511.485 1080V1101H497.835V1061.92H510.735V1064.62C511.535 1063.62 512.76 1062.8 514.41 1062.15C516.06 1061.45 518.035 1061.1 520.335 1061.1ZM563.987 1061.1C568.087 1061.1 571.737 1061.95 574.937 1063.65C578.187 1065.35 580.712 1067.75 582.512 1070.85C584.312 1073.95 585.212 1077.5 585.212 1081.5C585.212 1085.5 584.312 1089.05 582.512 1092.15C580.712 1095.2 578.187 1097.57 574.937 1099.27C571.737 1100.97 568.087 1101.83 563.987 1101.83C559.937 1101.83 556.287 1100.97 553.037 1099.27C549.837 1097.57 547.337 1095.2 545.537 1092.15C543.737 1089.05 542.837 1085.5 542.837 1081.5C542.837 1077.5 543.737 1073.95 545.537 1070.85C547.337 1067.75 549.837 1065.35 553.037 1063.65C556.287 1061.95 559.937 1061.1 563.987 1061.1ZM556.637 1081.5C556.637 1084.2 557.287 1086.32 558.587 1087.87C559.937 1089.37 561.737 1090.12 563.987 1090.12C566.287 1090.12 568.087 1089.37 569.387 1087.87C570.737 1086.32 571.412 1084.2 571.412 1081.5C571.412 1078.8 570.737 1076.67 569.387 1075.12C568.087 1073.57 566.287 1072.8 563.987 1072.8C561.737 1072.8 559.937 1073.57 558.587 1075.12C557.287 1076.67 556.637 1078.8 556.637 1081.5ZM611.355 1101.83C606.505 1101.83 602.68 1100.7 599.88 1098.45C597.13 1096.15 595.78 1092.72 595.83 1088.17L595.905 1073.62H588.855V1061.92H595.98L596.055 1049.32H609.705L609.63 1061.92H617.955V1073.62H609.555L609.48 1084.57C609.48 1086.17 609.98 1087.42 610.98 1088.32C612.03 1089.17 613.28 1089.6 614.73 1089.6C615.78 1089.6 616.855 1089.5 617.955 1089.3V1101.38C615.555 1101.68 613.355 1101.83 611.355 1101.83ZM661.484 1042.2C663.234 1042.2 664.684 1042.3 665.834 1042.5V1054.27C665.084 1054.12 664.159 1054.05 663.059 1054.05C661.409 1054.05 660.034 1054.52 658.934 1055.47C657.884 1056.42 657.359 1057.62 657.359 1059.07V1061.92H665.834V1073.62H657.359V1101H643.634V1073.62H636.959V1061.92H643.634V1059.37C643.634 1055.97 644.359 1052.97 645.809 1050.37C647.309 1047.77 649.409 1045.77 652.109 1044.37C654.809 1042.92 657.934 1042.2 661.484 1042.2ZM691.208 1061.1C695.308 1061.1 698.958 1061.95 702.158 1063.65C705.408 1065.35 707.933 1067.75 709.733 1070.85C711.533 1073.95 712.433 1077.5 712.433 1081.5C712.433 1085.5 711.533 1089.05 709.733 1092.15C707.933 1095.2 705.408 1097.57 702.158 1099.27C698.958 1100.97 695.308 1101.83 691.208 1101.83C687.158 1101.83 683.508 1100.97 680.258 1099.27C677.058 1097.57 674.558 1095.2 672.758 1092.15C670.958 1089.05 670.058 1085.5 670.058 1081.5C670.058 1077.5 670.958 1073.95 672.758 1070.85C674.558 1067.75 677.058 1065.35 680.258 1063.65C683.508 1061.95 687.158 1061.1 691.208 1061.1ZM683.858 1081.5C683.858 1084.2 684.508 1086.32 685.808 1087.87C687.158 1089.37 688.958 1090.12 691.208 1090.12C693.508 1090.12 695.308 1089.37 696.608 1087.87C697.958 1086.32 698.633 1084.2 698.633 1081.5C698.633 1078.8 697.958 1076.67 696.608 1075.12C695.308 1073.57 693.508 1072.8 691.208 1072.8C688.958 1072.8 687.158 1073.57 685.808 1075.12C684.508 1076.67 683.858 1078.8 683.858 1081.5ZM743.377 1098.3C741.477 1100.65 738.427 1101.83 734.227 1101.83C729.627 1101.83 726.052 1100.55 723.502 1098C720.952 1095.45 719.677 1091.77 719.677 1086.97V1061.92H733.327V1083.6C733.327 1085.55 733.652 1086.95 734.302 1087.8C735.002 1088.65 736.177 1089.07 737.827 1089.07C741.027 1089.07 742.627 1087.3 742.627 1083.75V1061.92H756.277V1101H743.377V1098.3ZM788.255 1061.1C792.905 1061.1 796.605 1062.45 799.355 1065.15C802.105 1067.85 803.48 1071.67 803.48 1076.62V1101H789.83V1079.92C789.83 1077.92 789.38 1076.42 788.48 1075.42C787.63 1074.37 786.38 1073.85 784.73 1073.85C783.08 1073.85 781.78 1074.4 780.83 1075.5C779.88 1076.55 779.405 1078.05 779.405 1080V1101H765.755V1061.92H778.655V1064.62C779.455 1063.62 780.68 1062.8 782.33 1062.15C783.98 1061.45 785.955 1061.1 788.255 1061.1ZM839.857 1098.45C838.757 1099.4 837.332 1100.2 835.582 1100.85C833.832 1101.5 831.832 1101.83 829.582 1101.83C825.882 1101.83 822.607 1100.97 819.757 1099.27C816.907 1097.52 814.682 1095.12 813.082 1092.07C811.532 1088.97 810.757 1085.45 810.757 1081.5C810.757 1077.5 811.532 1073.97 813.082 1070.92C814.682 1067.82 816.907 1065.42 819.757 1063.72C822.607 1061.97 825.882 1061.1 829.582 1061.1C831.582 1061.1 833.407 1061.35 835.057 1061.85C836.707 1062.35 838.057 1063 839.107 1063.8V1042.72H852.757V1101H839.857V1098.45ZM824.557 1081.5C824.557 1084.2 825.207 1086.32 826.507 1087.87C827.857 1089.37 829.657 1090.12 831.907 1090.12C834.057 1090.12 835.782 1089.4 837.082 1087.95C838.432 1086.45 839.107 1084.52 839.107 1082.17V1080.75C839.107 1078.4 838.432 1076.5 837.082 1075.05C835.782 1073.55 834.057 1072.8 831.907 1072.8C829.657 1072.8 827.857 1073.57 826.507 1075.12C825.207 1076.62 824.557 1078.75 824.557 1081.5ZM867.99 1085.92C870.19 1085.92 872.065 1086.7 873.615 1088.25C875.165 1089.8 875.94 1091.67 875.94 1093.87C875.94 1096.12 875.165 1098.02 873.615 1099.57C872.065 1101.08 870.19 1101.83 867.99 1101.83C865.79 1101.83 863.915 1101.08 862.365 1099.57C860.815 1098.02 860.04 1096.12 860.04 1093.87C860.04 1091.67 860.815 1089.8 862.365 1088.25C863.915 1086.7 865.79 1085.92 867.99 1085.92ZM889.083 1085.92C891.283 1085.92 893.158 1086.7 894.708 1088.25C896.258 1089.8 897.033 1091.67 897.033 1093.87C897.033 1096.12 896.258 1098.02 894.708 1099.57C893.158 1101.08 891.283 1101.83 889.083 1101.83C886.883 1101.83 885.008 1101.08 883.458 1099.57C881.908 1098.02 881.133 1096.12 881.133 1093.87C881.133 1091.67 881.908 1089.8 883.458 1088.25C885.008 1086.7 886.883 1085.92 889.083 1085.92ZM910.177 1085.92C912.377 1085.92 914.252 1086.7 915.802 1088.25C917.352 1089.8 918.127 1091.67 918.127 1093.87C918.127 1096.12 917.352 1098.02 915.802 1099.57C914.252 1101.08 912.377 1101.83 910.177 1101.83C907.977 1101.83 906.102 1101.08 904.552 1099.57C903.002 1098.02 902.227 1096.12 902.227 1093.87C902.227 1091.67 903.002 1089.8 904.552 1088.25C906.102 1086.7 907.977 1085.92 910.177 1085.92Z" fill="#F9A826"/>
<path d="M307.301 1185.49L300.941 1197.76H298.001L291.581 1185.49V1198H287.141V1175.56H291.071L299.471 1191.25L307.811 1175.56H311.771V1198H307.301V1185.49ZM323.58 1182.22C325.16 1182.22 326.57 1182.56 327.81 1183.24C329.05 1183.9 330.02 1184.84 330.72 1186.06C331.44 1187.26 331.8 1188.66 331.8 1190.26C331.8 1191.86 331.44 1193.27 330.72 1194.49C330.02 1195.71 329.05 1196.65 327.81 1197.31C326.57 1197.97 325.16 1198.3 323.58 1198.3C322.02 1198.3 320.61 1197.97 319.35 1197.31C318.11 1196.65 317.14 1195.71 316.44 1194.49C315.74 1193.27 315.39 1191.86 315.39 1190.26C315.39 1188.66 315.74 1187.26 316.44 1186.06C317.16 1184.84 318.14 1183.9 319.38 1183.24C320.62 1182.56 322.02 1182.22 323.58 1182.22ZM319.65 1190.26C319.65 1191.62 320.01 1192.7 320.73 1193.5C321.47 1194.3 322.42 1194.7 323.58 1194.7C324.78 1194.7 325.74 1194.31 326.46 1193.53C327.2 1192.73 327.57 1191.64 327.57 1190.26C327.57 1188.88 327.2 1187.8 326.46 1187.02C325.74 1186.22 324.78 1185.82 323.58 1185.82C322.42 1185.82 321.47 1186.22 320.73 1187.02C320.01 1187.82 319.65 1188.9 319.65 1190.26ZM340.611 1182.22C342.491 1182.22 343.961 1182.66 345.021 1183.54C346.081 1184.4 346.691 1185.57 346.851 1187.05L342.651 1187.29C342.611 1186.69 342.431 1186.21 342.111 1185.85C341.791 1185.47 341.311 1185.28 340.671 1185.28C340.011 1185.28 339.511 1185.41 339.171 1185.67C338.831 1185.93 338.661 1186.31 338.661 1186.81C338.661 1187.19 338.781 1187.49 339.021 1187.71C339.261 1187.91 339.531 1188.06 339.831 1188.16C340.151 1188.26 340.801 1188.43 341.781 1188.67C342.961 1188.97 343.921 1189.29 344.661 1189.63C345.401 1189.97 345.981 1190.43 346.401 1191.01C346.841 1191.57 347.061 1192.3 347.061 1193.2C347.061 1194.78 346.501 1196.03 345.381 1196.95C344.281 1197.85 342.731 1198.3 340.731 1198.3C338.751 1198.3 337.201 1197.89 336.081 1197.07C334.981 1196.25 334.351 1195.04 334.191 1193.44L338.421 1193.2C338.461 1193.86 338.671 1194.37 339.051 1194.73C339.451 1195.09 340.021 1195.27 340.761 1195.27C341.421 1195.27 341.931 1195.13 342.291 1194.85C342.651 1194.57 342.831 1194.16 342.831 1193.62C342.831 1193.12 342.631 1192.74 342.231 1192.48C341.851 1192.22 341.071 1191.95 339.891 1191.67C338.591 1191.35 337.571 1191.04 336.831 1190.74C336.111 1190.44 335.531 1190.01 335.091 1189.45C334.671 1188.87 334.461 1188.08 334.461 1187.08C334.461 1185.58 335.001 1184.4 336.081 1183.54C337.181 1182.66 338.691 1182.22 340.611 1182.22ZM357.017 1198.27C355.277 1198.27 353.907 1197.84 352.907 1196.98C351.927 1196.12 351.447 1194.83 351.467 1193.11L351.497 1186.12H348.647V1182.52H351.497L351.527 1177.36H355.757L355.727 1182.52H359.387V1186.12H355.697L355.667 1192.03C355.667 1192.87 355.887 1193.49 356.327 1193.89C356.767 1194.29 357.327 1194.49 358.007 1194.49C358.467 1194.49 358.937 1194.45 359.417 1194.37V1198.09C358.577 1198.21 357.777 1198.27 357.017 1198.27ZM369.346 1174.69H373.546V1198H369.346V1174.69ZM380.089 1174.84C380.789 1174.84 381.379 1175.09 381.859 1175.59C382.359 1176.09 382.609 1176.69 382.609 1177.39C382.609 1178.09 382.359 1178.69 381.859 1179.19C381.379 1179.69 380.789 1179.94 380.089 1179.94C379.389 1179.94 378.789 1179.69 378.289 1179.19C377.789 1178.69 377.539 1178.09 377.539 1177.39C377.539 1176.69 377.789 1176.09 378.289 1175.59C378.789 1175.09 379.389 1174.84 380.089 1174.84ZM377.989 1182.52H382.189V1198H377.989V1182.52ZM401.121 1182.52L395.211 1189.15L401.541 1198H396.501L392.211 1192.27L390.831 1193.8V1198H386.631V1174.69H390.831V1188.13L395.961 1182.52H401.121ZM406.725 1191.46C406.745 1192.56 407.045 1193.43 407.625 1194.07C408.225 1194.71 409.055 1195.03 410.115 1195.03C410.895 1195.03 411.545 1194.86 412.065 1194.52C412.585 1194.18 412.935 1193.71 413.115 1193.11L417.345 1193.32C417.065 1194.84 416.265 1196.05 414.945 1196.95C413.625 1197.85 412.055 1198.3 410.235 1198.3C408.675 1198.3 407.285 1197.98 406.065 1197.34C404.865 1196.68 403.925 1195.75 403.245 1194.55C402.585 1193.33 402.255 1191.9 402.255 1190.26C402.255 1188.62 402.585 1187.2 403.245 1186C403.905 1184.78 404.825 1183.85 406.005 1183.21C407.205 1182.55 408.575 1182.22 410.115 1182.22C411.595 1182.22 412.885 1182.53 413.985 1183.15C415.105 1183.77 415.965 1184.66 416.565 1185.82C417.185 1186.98 417.495 1188.35 417.495 1189.93V1191.46H406.725ZM413.265 1188.85C413.225 1187.79 412.935 1186.95 412.395 1186.33C411.855 1185.71 411.075 1185.4 410.055 1185.4C409.095 1185.4 408.315 1185.71 407.715 1186.33C407.115 1186.93 406.785 1187.77 406.725 1188.85H413.265ZM421.055 1174.69H425.255V1198H421.055V1174.69ZM433.748 1196.68L427.718 1182.52H432.368L436.028 1191.97L439.658 1182.52H444.338L434.438 1205.65H429.818L433.748 1196.68ZM464.044 1189.54L460.804 1198H457.444L451.504 1182.52H456.184L459.274 1191.85L462.514 1182.52H465.484L468.754 1191.85L471.844 1182.52H476.494L470.584 1198H467.224L464.044 1189.54ZM481.725 1191.46C481.745 1192.56 482.045 1193.43 482.625 1194.07C483.225 1194.71 484.055 1195.03 485.115 1195.03C485.895 1195.03 486.545 1194.86 487.065 1194.52C487.585 1194.18 487.935 1193.71 488.115 1193.11L492.345 1193.32C492.065 1194.84 491.265 1196.05 489.945 1196.95C488.625 1197.85 487.055 1198.3 485.235 1198.3C483.675 1198.3 482.285 1197.98 481.065 1197.34C479.865 1196.68 478.925 1195.75 478.245 1194.55C477.585 1193.33 477.255 1191.9 477.255 1190.26C477.255 1188.62 477.585 1187.2 478.245 1186C478.905 1184.78 479.825 1183.85 481.005 1183.21C482.205 1182.55 483.575 1182.22 485.115 1182.22C486.595 1182.22 487.885 1182.53 488.985 1183.15C490.105 1183.77 490.965 1184.66 491.565 1185.82C492.185 1186.98 492.495 1188.35 492.495 1189.93V1191.46H481.725ZM488.265 1188.85C488.225 1187.79 487.935 1186.95 487.395 1186.33C486.855 1185.71 486.075 1185.4 485.055 1185.4C484.095 1185.4 483.315 1185.71 482.715 1186.33C482.115 1186.93 481.785 1187.77 481.725 1188.85H488.265ZM517.342 1182.52L511.432 1189.15L517.762 1198H512.722L508.432 1192.27L507.052 1193.8V1198H502.852V1174.69H507.052V1188.13L512.182 1182.52H517.342ZM528.416 1182.22C530.216 1182.22 531.666 1182.77 532.766 1183.87C533.866 1184.95 534.416 1186.46 534.416 1188.4V1198H530.216V1189.33C530.216 1188.33 529.956 1187.55 529.436 1186.99C528.936 1186.41 528.246 1186.12 527.366 1186.12C526.486 1186.12 525.766 1186.42 525.206 1187.02C524.666 1187.62 524.396 1188.4 524.396 1189.36V1198H520.196V1182.52H524.156V1184.11C524.496 1183.57 525.036 1183.12 525.776 1182.76C526.516 1182.4 527.396 1182.22 528.416 1182.22ZM546.031 1182.22C547.611 1182.22 549.021 1182.56 550.261 1183.24C551.501 1183.9 552.471 1184.84 553.171 1186.06C553.891 1187.26 554.251 1188.66 554.251 1190.26C554.251 1191.86 553.891 1193.27 553.171 1194.49C552.471 1195.71 551.501 1196.65 550.261 1197.31C549.021 1197.97 547.611 1198.3 546.031 1198.3C544.471 1198.3 543.061 1197.97 541.801 1197.31C540.561 1196.65 539.591 1195.71 538.891 1194.49C538.191 1193.27 537.841 1191.86 537.841 1190.26C537.841 1188.66 538.191 1187.26 538.891 1186.06C539.611 1184.84 540.591 1183.9 541.831 1183.24C543.071 1182.56 544.471 1182.22 546.031 1182.22ZM542.101 1190.26C542.101 1191.62 542.461 1192.7 543.181 1193.5C543.921 1194.3 544.871 1194.7 546.031 1194.7C547.231 1194.7 548.191 1194.31 548.911 1193.53C549.651 1192.73 550.021 1191.64 550.021 1190.26C550.021 1188.88 549.651 1187.8 548.911 1187.02C548.191 1186.22 547.231 1185.82 546.031 1185.82C544.871 1185.82 543.921 1186.22 543.181 1187.02C542.461 1187.82 542.101 1188.9 542.101 1190.26ZM567.58 1189.54L564.34 1198H560.98L555.04 1182.52H559.72L562.81 1191.85L566.05 1182.52H569.02L572.29 1191.85L575.38 1182.52H580.03L574.12 1198H570.76L567.58 1189.54ZM595.22 1182.22C597.3 1182.22 598.88 1182.75 599.96 1183.81C601.04 1184.85 601.58 1186.38 601.58 1188.4V1198H597.59V1196.5C597.15 1197.06 596.57 1197.5 595.85 1197.82C595.15 1198.14 594.33 1198.3 593.39 1198.3C591.81 1198.3 590.57 1197.92 589.67 1197.16C588.77 1196.4 588.32 1195.29 588.32 1193.83C588.32 1190.89 590.46 1189.33 594.74 1189.15L597.35 1189.03V1188.13C597.35 1186.53 596.66 1185.73 595.28 1185.73C594.56 1185.73 593.99 1185.95 593.57 1186.39C593.17 1186.83 592.97 1187.33 592.97 1187.89L588.74 1187.77C588.74 1186.85 589 1185.96 589.52 1185.1C590.06 1184.24 590.82 1183.55 591.8 1183.03C592.8 1182.49 593.94 1182.22 595.22 1182.22ZM592.52 1193.53C592.52 1194.61 593.17 1195.15 594.47 1195.15C595.29 1195.15 595.97 1194.91 596.51 1194.43C597.07 1193.95 597.35 1193.26 597.35 1192.36V1191.61L595.04 1191.73C593.36 1191.83 592.52 1192.43 592.52 1193.53ZM610.06 1183.96C610.48 1183.44 611.07 1183.02 611.83 1182.7C612.61 1182.38 613.5 1182.22 614.5 1182.22C615.94 1182.22 617.22 1182.56 618.34 1183.24C619.48 1183.9 620.37 1184.84 621.01 1186.06C621.65 1187.28 621.97 1188.69 621.97 1190.29C621.97 1191.87 621.65 1193.27 621.01 1194.49C620.37 1195.69 619.48 1196.63 618.34 1197.31C617.22 1197.97 615.94 1198.3 614.5 1198.3C613.42 1198.3 612.48 1198.12 611.68 1197.76C610.88 1197.4 610.26 1196.93 609.82 1196.35V1198H605.86V1174.69H610.06V1183.96ZM610.06 1190.62C610.06 1191.88 610.4 1192.88 611.08 1193.62C611.78 1194.34 612.7 1194.7 613.84 1194.7C615 1194.7 615.94 1194.31 616.66 1193.53C617.38 1192.75 617.74 1191.66 617.74 1190.26C617.74 1188.86 617.38 1187.77 616.66 1186.99C615.94 1186.21 615 1185.82 613.84 1185.82C612.7 1185.82 611.78 1186.19 611.08 1186.93C610.4 1187.65 610.06 1188.64 610.06 1189.9V1190.62ZM632.867 1182.22C634.447 1182.22 635.857 1182.56 637.097 1183.24C638.337 1183.9 639.307 1184.84 640.007 1186.06C640.727 1187.26 641.087 1188.66 641.087 1190.26C641.087 1191.86 640.727 1193.27 640.007 1194.49C639.307 1195.71 638.337 1196.65 637.097 1197.31C635.857 1197.97 634.447 1198.3 632.867 1198.3C631.307 1198.3 629.897 1197.97 628.637 1197.31C627.397 1196.65 626.427 1195.71 625.727 1194.49C625.027 1193.27 624.677 1191.86 624.677 1190.26C624.677 1188.66 625.027 1187.26 625.727 1186.06C626.447 1184.84 627.427 1183.9 628.667 1183.24C629.907 1182.56 631.307 1182.22 632.867 1182.22ZM628.937 1190.26C628.937 1191.62 629.297 1192.7 630.017 1193.5C630.757 1194.3 631.707 1194.7 632.867 1194.7C634.067 1194.7 635.027 1194.31 635.747 1193.53C636.487 1192.73 636.857 1191.64 636.857 1190.26C636.857 1188.88 636.487 1187.8 635.747 1187.02C635.027 1186.22 634.067 1185.82 632.867 1185.82C631.707 1185.82 630.757 1186.22 630.017 1187.02C629.297 1187.82 628.937 1188.9 628.937 1190.26ZM654.308 1196.41C653.968 1196.95 653.458 1197.4 652.778 1197.76C652.118 1198.12 651.278 1198.3 650.258 1198.3C648.458 1198.3 647.048 1197.78 646.028 1196.74C645.028 1195.7 644.528 1194.23 644.528 1192.33V1182.52H648.728V1191.37C648.728 1193.37 649.588 1194.37 651.308 1194.37C652.188 1194.37 652.868 1194.1 653.348 1193.56C653.828 1193.02 654.068 1192.29 654.068 1191.37V1182.52H658.268V1198H654.308V1196.41ZM669.176 1198.27C667.436 1198.27 666.066 1197.84 665.066 1196.98C664.086 1196.12 663.606 1194.83 663.626 1193.11L663.656 1186.12H660.806V1182.52H663.656L663.686 1177.36H667.916L667.886 1182.52H671.546V1186.12H667.856L667.826 1192.03C667.826 1192.87 668.046 1193.49 668.486 1193.89C668.926 1194.29 669.486 1194.49 670.166 1194.49C670.626 1194.49 671.096 1194.45 671.576 1194.37V1198.09C670.736 1198.21 669.936 1198.27 669.176 1198.27ZM687.984 1198.27C686.244 1198.27 684.874 1197.84 683.874 1196.98C682.894 1196.12 682.414 1194.83 682.434 1193.11L682.464 1186.12H679.614V1182.52H682.464L682.494 1177.36H686.724L686.694 1182.52H690.354V1186.12H686.664L686.634 1192.03C686.634 1192.87 686.854 1193.49 687.294 1193.89C687.734 1194.29 688.294 1194.49 688.974 1194.49C689.434 1194.49 689.904 1194.45 690.384 1194.37V1198.09C689.544 1198.21 688.744 1198.27 687.984 1198.27ZM697.716 1183.93C698.076 1183.45 698.586 1183.05 699.246 1182.73C699.926 1182.39 700.756 1182.22 701.736 1182.22C703.536 1182.22 704.986 1182.77 706.086 1183.87C707.186 1184.95 707.736 1186.46 707.736 1188.4V1198H703.536V1189.33C703.536 1188.33 703.276 1187.55 702.756 1186.99C702.256 1186.41 701.566 1186.12 700.686 1186.12C699.806 1186.12 699.086 1186.42 698.526 1187.02C697.986 1187.62 697.716 1188.4 697.716 1189.36V1198H693.516V1174.69H697.716V1183.93ZM714.073 1174.84C714.773 1174.84 715.363 1175.09 715.843 1175.59C716.343 1176.09 716.593 1176.69 716.593 1177.39C716.593 1178.09 716.343 1178.69 715.843 1179.19C715.363 1179.69 714.773 1179.94 714.073 1179.94C713.373 1179.94 712.773 1179.69 712.273 1179.19C711.773 1178.69 711.523 1178.09 711.523 1177.39C711.523 1176.69 711.773 1176.09 712.273 1175.59C712.773 1175.09 713.373 1174.84 714.073 1174.84ZM711.973 1182.52H716.173V1198H711.973V1182.52ZM725.836 1182.22C727.716 1182.22 729.186 1182.66 730.246 1183.54C731.306 1184.4 731.916 1185.57 732.076 1187.05L727.876 1187.29C727.836 1186.69 727.656 1186.21 727.336 1185.85C727.016 1185.47 726.536 1185.28 725.896 1185.28C725.236 1185.28 724.736 1185.41 724.396 1185.67C724.056 1185.93 723.886 1186.31 723.886 1186.81C723.886 1187.19 724.006 1187.49 724.246 1187.71C724.486 1187.91 724.756 1188.06 725.056 1188.16C725.376 1188.26 726.026 1188.43 727.006 1188.67C728.186 1188.97 729.146 1189.29 729.886 1189.63C730.626 1189.97 731.206 1190.43 731.626 1191.01C732.066 1191.57 732.286 1192.3 732.286 1193.2C732.286 1194.78 731.726 1196.03 730.606 1196.95C729.506 1197.85 727.956 1198.3 725.956 1198.3C723.976 1198.3 722.426 1197.89 721.306 1197.07C720.206 1196.25 719.576 1195.04 719.416 1193.44L723.646 1193.2C723.686 1193.86 723.896 1194.37 724.276 1194.73C724.676 1195.09 725.246 1195.27 725.986 1195.27C726.646 1195.27 727.156 1195.13 727.516 1194.85C727.876 1194.57 728.056 1194.16 728.056 1193.62C728.056 1193.12 727.856 1192.74 727.456 1192.48C727.076 1192.22 726.296 1191.95 725.116 1191.67C723.816 1191.35 722.796 1191.04 722.056 1190.74C721.336 1190.44 720.756 1190.01 720.316 1189.45C719.896 1188.87 719.686 1188.08 719.686 1187.08C719.686 1185.58 720.226 1184.4 721.306 1183.54C722.406 1182.66 723.916 1182.22 725.836 1182.22ZM751.199 1182.22C752.639 1182.22 753.919 1182.56 755.039 1183.24C756.179 1183.9 757.069 1184.84 757.709 1186.06C758.349 1187.26 758.669 1188.66 758.669 1190.26C758.669 1191.86 758.349 1193.27 757.709 1194.49C757.069 1195.69 756.179 1196.63 755.039 1197.31C753.919 1197.97 752.639 1198.3 751.199 1198.3C750.199 1198.3 749.309 1198.14 748.529 1197.82C747.769 1197.5 747.179 1197.08 746.759 1196.56V1205.65H742.559V1182.52H746.519V1184.17C746.959 1183.61 747.579 1183.15 748.379 1182.79C749.199 1182.41 750.139 1182.22 751.199 1182.22ZM746.759 1190.62C746.759 1191.88 747.099 1192.88 747.779 1193.62C748.479 1194.34 749.399 1194.7 750.539 1194.7C751.699 1194.7 752.639 1194.31 753.359 1193.53C754.079 1192.75 754.439 1191.67 754.439 1190.29C754.439 1188.89 754.079 1187.8 753.359 1187.02C752.639 1186.22 751.699 1185.82 750.539 1185.82C749.399 1185.82 748.479 1186.19 747.779 1186.93C747.099 1187.65 746.759 1188.64 746.759 1189.9V1190.62ZM770.586 1186.42C769.326 1186.42 768.316 1186.76 767.556 1187.44C766.816 1188.1 766.446 1188.97 766.446 1190.05V1198H762.246V1182.52H766.296V1184.23C767.156 1182.97 768.586 1182.34 770.586 1182.34V1186.42ZM780.758 1182.22C782.338 1182.22 783.748 1182.56 784.988 1183.24C786.228 1183.9 787.198 1184.84 787.898 1186.06C788.618 1187.26 788.978 1188.66 788.978 1190.26C788.978 1191.86 788.618 1193.27 787.898 1194.49C787.198 1195.71 786.228 1196.65 784.988 1197.31C783.748 1197.97 782.338 1198.3 780.758 1198.3C779.198 1198.3 777.788 1197.97 776.528 1197.31C775.288 1196.65 774.318 1195.71 773.618 1194.49C772.918 1193.27 772.568 1191.86 772.568 1190.26C772.568 1188.66 772.918 1187.26 773.618 1186.06C774.338 1184.84 775.318 1183.9 776.558 1183.24C777.798 1182.56 779.198 1182.22 780.758 1182.22ZM776.828 1190.26C776.828 1191.62 777.188 1192.7 777.908 1193.5C778.648 1194.3 779.598 1194.7 780.758 1194.7C781.958 1194.7 782.918 1194.31 783.638 1193.53C784.378 1192.73 784.748 1191.64 784.748 1190.26C784.748 1188.88 784.378 1187.8 783.638 1187.02C782.918 1186.22 781.958 1185.82 780.758 1185.82C779.598 1185.82 778.648 1186.22 777.908 1187.02C777.188 1187.82 776.828 1188.9 776.828 1190.26ZM796.769 1183.96C797.189 1183.44 797.779 1183.02 798.539 1182.7C799.319 1182.38 800.209 1182.22 801.209 1182.22C802.649 1182.22 803.929 1182.56 805.049 1183.24C806.189 1183.9 807.079 1184.84 807.719 1186.06C808.359 1187.28 808.679 1188.69 808.679 1190.29C808.679 1191.87 808.359 1193.27 807.719 1194.49C807.079 1195.69 806.189 1196.63 805.049 1197.31C803.929 1197.97 802.649 1198.3 801.209 1198.3C800.129 1198.3 799.189 1198.12 798.389 1197.76C797.589 1197.4 796.969 1196.93 796.529 1196.35V1198H792.569V1174.69H796.769V1183.96ZM796.769 1190.62C796.769 1191.88 797.109 1192.88 797.789 1193.62C798.489 1194.34 799.409 1194.7 800.549 1194.7C801.709 1194.7 802.649 1194.31 803.369 1193.53C804.089 1192.75 804.449 1191.66 804.449 1190.26C804.449 1188.86 804.089 1187.77 803.369 1186.99C802.649 1186.21 801.709 1185.82 800.549 1185.82C799.409 1185.82 798.489 1186.19 797.789 1186.93C797.109 1187.65 796.769 1188.64 796.769 1189.9V1190.62ZM812.256 1174.69H816.456V1198H812.256V1174.69ZM824.499 1191.46C824.519 1192.56 824.819 1193.43 825.399 1194.07C825.999 1194.71 826.829 1195.03 827.889 1195.03C828.669 1195.03 829.319 1194.86 829.839 1194.52C830.359 1194.18 830.709 1193.71 830.889 1193.11L835.119 1193.32C834.839 1194.84 834.039 1196.05 832.719 1196.95C831.399 1197.85 829.829 1198.3 828.009 1198.3C826.449 1198.3 825.059 1197.98 823.839 1197.34C822.639 1196.68 821.699 1195.75 821.019 1194.55C820.359 1193.33 820.029 1191.9 820.029 1190.26C820.029 1188.62 820.359 1187.2 821.019 1186C821.679 1184.78 822.599 1183.85 823.779 1183.21C824.979 1182.55 826.349 1182.22 827.889 1182.22C829.369 1182.22 830.659 1182.53 831.759 1183.15C832.879 1183.77 833.739 1184.66 834.339 1185.82C834.959 1186.98 835.269 1188.35 835.269 1189.93V1191.46H824.499ZM831.039 1188.85C830.999 1187.79 830.709 1186.95 830.169 1186.33C829.629 1185.71 828.849 1185.4 827.829 1185.4C826.869 1185.4 826.089 1185.71 825.489 1186.33C824.889 1186.93 824.559 1187.77 824.499 1188.85H831.039ZM856.558 1182.22C858.358 1182.22 859.788 1182.77 860.848 1183.87C861.928 1184.95 862.468 1186.46 862.468 1188.4V1198H858.268V1189.33C858.268 1188.31 858.028 1187.52 857.548 1186.96C857.088 1186.4 856.428 1186.12 855.568 1186.12C854.688 1186.12 853.998 1186.42 853.498 1187.02C852.998 1187.6 852.748 1188.38 852.748 1189.36V1198H848.518V1189.33C848.518 1188.31 848.288 1187.52 847.828 1186.96C847.368 1186.4 846.708 1186.12 845.848 1186.12C844.968 1186.12 844.278 1186.42 843.778 1187.02C843.278 1187.6 843.028 1188.38 843.028 1189.36V1198H838.828V1182.52H842.788V1184.11C843.148 1183.55 843.668 1183.1 844.348 1182.76C845.028 1182.4 845.868 1182.22 846.868 1182.22C847.968 1182.22 848.938 1182.44 849.778 1182.88C850.638 1183.3 851.308 1183.92 851.788 1184.74C852.268 1183.96 852.898 1183.35 853.678 1182.91C854.478 1182.45 855.438 1182.22 856.558 1182.22ZM879.546 1182.22C881.626 1182.22 883.206 1182.75 884.286 1183.81C885.366 1184.85 885.906 1186.38 885.906 1188.4V1198H881.916V1196.5C881.476 1197.06 880.896 1197.5 880.176 1197.82C879.476 1198.14 878.656 1198.3 877.716 1198.3C876.136 1198.3 874.896 1197.92 873.996 1197.16C873.096 1196.4 872.646 1195.29 872.646 1193.83C872.646 1190.89 874.786 1189.33 879.066 1189.15L881.676 1189.03V1188.13C881.676 1186.53 880.986 1185.73 879.606 1185.73C878.886 1185.73 878.316 1185.95 877.896 1186.39C877.496 1186.83 877.296 1187.33 877.296 1187.89L873.066 1187.77C873.066 1186.85 873.326 1185.96 873.846 1185.1C874.386 1184.24 875.146 1183.55 876.126 1183.03C877.126 1182.49 878.266 1182.22 879.546 1182.22ZM876.846 1193.53C876.846 1194.61 877.496 1195.15 878.796 1195.15C879.616 1195.15 880.296 1194.91 880.836 1194.43C881.396 1193.95 881.676 1193.26 881.676 1192.36V1191.61L879.366 1191.73C877.686 1191.83 876.846 1192.43 876.846 1193.53ZM898.406 1182.22C900.206 1182.22 901.656 1182.77 902.756 1183.87C903.856 1184.95 904.406 1186.46 904.406 1188.4V1198H900.206V1189.33C900.206 1188.33 899.946 1187.55 899.426 1186.99C898.926 1186.41 898.236 1186.12 897.356 1186.12C896.476 1186.12 895.756 1186.42 895.196 1187.02C894.656 1187.62 894.386 1188.4 894.386 1189.36V1198H890.186V1182.52H894.146V1184.11C894.486 1183.57 895.026 1183.12 895.766 1182.76C896.506 1182.4 897.386 1182.22 898.406 1182.22ZM919.981 1196.35C919.541 1196.93 918.921 1197.4 918.121 1197.76C917.321 1198.12 916.381 1198.3 915.301 1198.3C913.861 1198.3 912.571 1197.97 911.431 1197.31C910.311 1196.63 909.431 1195.69 908.791 1194.49C908.151 1193.27 907.831 1191.87 907.831 1190.29C907.831 1188.69 908.151 1187.28 908.791 1186.06C909.431 1184.84 910.311 1183.9 911.431 1183.24C912.571 1182.56 913.861 1182.22 915.301 1182.22C916.301 1182.22 917.191 1182.38 917.971 1182.7C918.751 1183.02 919.351 1183.44 919.771 1183.96V1174.69H923.971V1198H919.981V1196.35ZM912.091 1190.26C912.091 1191.66 912.451 1192.75 913.171 1193.53C913.891 1194.31 914.831 1194.7 915.991 1194.7C917.111 1194.7 918.011 1194.34 918.691 1193.62C919.391 1192.88 919.741 1191.88 919.741 1190.62V1189.9C919.741 1188.64 919.391 1187.65 918.691 1186.93C918.011 1186.19 917.111 1185.82 915.991 1185.82C914.831 1185.82 913.891 1186.21 913.171 1186.99C912.451 1187.77 912.091 1188.86 912.091 1190.26ZM386.099 1218.22C388.179 1218.22 389.759 1218.75 390.839 1219.81C391.919 1220.85 392.459 1222.38 392.459 1224.4V1234H388.469V1232.5C388.029 1233.06 387.449 1233.5 386.729 1233.82C386.029 1234.14 385.209 1234.3 384.269 1234.3C382.689 1234.3 381.449 1233.92 380.549 1233.16C379.649 1232.4 379.199 1231.29 379.199 1229.83C379.199 1226.89 381.339 1225.33 385.619 1225.15L388.229 1225.03V1224.13C388.229 1222.53 387.539 1221.73 386.159 1221.73C385.439 1221.73 384.869 1221.95 384.449 1222.39C384.049 1222.83 383.849 1223.33 383.849 1223.89L379.619 1223.77C379.619 1222.85 379.879 1221.96 380.399 1221.1C380.939 1220.24 381.699 1219.55 382.679 1219.03C383.679 1218.49 384.819 1218.22 386.099 1218.22ZM383.399 1229.53C383.399 1230.61 384.049 1231.15 385.349 1231.15C386.169 1231.15 386.849 1230.91 387.389 1230.43C387.949 1229.95 388.229 1229.26 388.229 1228.36V1227.61L385.919 1227.73C384.239 1227.83 383.399 1228.43 383.399 1229.53ZM405.079 1222.42C403.819 1222.42 402.809 1222.76 402.049 1223.44C401.309 1224.1 400.939 1224.97 400.939 1226.05V1234H396.739V1218.52H400.789V1220.23C401.649 1218.97 403.079 1218.34 405.079 1218.34V1222.42ZM411.53 1227.46C411.55 1228.56 411.85 1229.43 412.43 1230.07C413.03 1230.71 413.86 1231.03 414.92 1231.03C415.7 1231.03 416.35 1230.86 416.87 1230.52C417.39 1230.18 417.74 1229.71 417.92 1229.11L422.15 1229.32C421.87 1230.84 421.07 1232.05 419.75 1232.95C418.43 1233.85 416.86 1234.3 415.04 1234.3C413.48 1234.3 412.09 1233.98 410.87 1233.34C409.67 1232.68 408.73 1231.75 408.05 1230.55C407.39 1229.33 407.06 1227.9 407.06 1226.26C407.06 1224.62 407.39 1223.2 408.05 1222C408.71 1220.78 409.63 1219.85 410.81 1219.21C412.01 1218.55 413.38 1218.22 414.92 1218.22C416.4 1218.22 417.69 1218.53 418.79 1219.15C419.91 1219.77 420.77 1220.66 421.37 1221.82C421.99 1222.98 422.3 1224.35 422.3 1225.93V1227.46H411.53ZM418.07 1224.85C418.03 1223.79 417.74 1222.95 417.2 1222.33C416.66 1221.71 415.88 1221.4 414.86 1221.4C413.9 1221.4 413.12 1221.71 412.52 1222.33C411.92 1222.93 411.59 1223.77 411.53 1224.85H418.07ZM438.687 1218.22C440.767 1218.22 442.347 1218.75 443.427 1219.81C444.507 1220.85 445.047 1222.38 445.047 1224.4V1234H441.057V1232.5C440.617 1233.06 440.037 1233.5 439.317 1233.82C438.617 1234.14 437.797 1234.3 436.857 1234.3C435.277 1234.3 434.037 1233.92 433.137 1233.16C432.237 1232.4 431.787 1231.29 431.787 1229.83C431.787 1226.89 433.927 1225.33 438.207 1225.15L440.817 1225.03V1224.13C440.817 1222.53 440.127 1221.73 438.747 1221.73C438.027 1221.73 437.457 1221.95 437.037 1222.39C436.637 1222.83 436.437 1223.33 436.437 1223.89L432.207 1223.77C432.207 1222.85 432.467 1221.96 432.987 1221.1C433.527 1220.24 434.287 1219.55 435.267 1219.03C436.267 1218.49 437.407 1218.22 438.687 1218.22ZM435.987 1229.53C435.987 1230.61 436.637 1231.15 437.937 1231.15C438.757 1231.15 439.437 1230.91 439.977 1230.43C440.537 1229.95 440.817 1229.26 440.817 1228.36V1227.61L438.507 1227.73C436.827 1227.83 435.987 1228.43 435.987 1229.53ZM449.326 1210.69H453.526V1234H449.326V1210.69ZM466.309 1222.42C465.049 1222.42 464.039 1222.76 463.279 1223.44C462.539 1224.1 462.169 1224.97 462.169 1226.05V1234H457.969V1218.52H462.019V1220.23C462.879 1218.97 464.309 1218.34 466.309 1218.34V1222.42ZM472.76 1227.46C472.78 1228.56 473.08 1229.43 473.66 1230.07C474.26 1230.71 475.09 1231.03 476.15 1231.03C476.93 1231.03 477.58 1230.86 478.1 1230.52C478.62 1230.18 478.97 1229.71 479.15 1229.11L483.38 1229.32C483.1 1230.84 482.3 1232.05 480.98 1232.95C479.66 1233.85 478.09 1234.3 476.27 1234.3C474.71 1234.3 473.32 1233.98 472.1 1233.34C470.9 1232.68 469.96 1231.75 469.28 1230.55C468.62 1229.33 468.29 1227.9 468.29 1226.26C468.29 1224.62 468.62 1223.2 469.28 1222C469.94 1220.78 470.86 1219.85 472.04 1219.21C473.24 1218.55 474.61 1218.22 476.15 1218.22C477.63 1218.22 478.92 1218.53 480.02 1219.15C481.14 1219.77 482 1220.66 482.6 1221.82C483.22 1222.98 483.53 1224.35 483.53 1225.93V1227.46H472.76ZM479.3 1224.85C479.26 1223.79 478.97 1222.95 478.43 1222.33C477.89 1221.71 477.11 1221.4 476.09 1221.4C475.13 1221.4 474.35 1221.71 473.75 1222.33C473.15 1222.93 472.82 1223.77 472.76 1224.85H479.3ZM493.12 1218.22C495.2 1218.22 496.78 1218.75 497.86 1219.81C498.94 1220.85 499.48 1222.38 499.48 1224.4V1234H495.49V1232.5C495.05 1233.06 494.47 1233.5 493.75 1233.82C493.05 1234.14 492.23 1234.3 491.29 1234.3C489.71 1234.3 488.47 1233.92 487.57 1233.16C486.67 1232.4 486.22 1231.29 486.22 1229.83C486.22 1226.89 488.36 1225.33 492.64 1225.15L495.25 1225.03V1224.13C495.25 1222.53 494.56 1221.73 493.18 1221.73C492.46 1221.73 491.89 1221.95 491.47 1222.39C491.07 1222.83 490.87 1223.33 490.87 1223.89L486.64 1223.77C486.64 1222.85 486.9 1221.96 487.42 1221.1C487.96 1220.24 488.72 1219.55 489.7 1219.03C490.7 1218.49 491.84 1218.22 493.12 1218.22ZM490.42 1229.53C490.42 1230.61 491.07 1231.15 492.37 1231.15C493.19 1231.15 493.87 1230.91 494.41 1230.43C494.97 1229.95 495.25 1229.26 495.25 1228.36V1227.61L492.94 1227.73C491.26 1227.83 490.42 1228.43 490.42 1229.53ZM515.04 1232.35C514.6 1232.93 513.98 1233.4 513.18 1233.76C512.38 1234.12 511.44 1234.3 510.36 1234.3C508.92 1234.3 507.63 1233.97 506.49 1233.31C505.37 1232.63 504.49 1231.69 503.85 1230.49C503.21 1229.27 502.89 1227.87 502.89 1226.29C502.89 1224.69 503.21 1223.28 503.85 1222.06C504.49 1220.84 505.37 1219.9 506.49 1219.24C507.63 1218.56 508.92 1218.22 510.36 1218.22C511.36 1218.22 512.25 1218.38 513.03 1218.7C513.81 1219.02 514.41 1219.44 514.83 1219.96V1210.69H519.03V1234H515.04V1232.35ZM507.15 1226.26C507.15 1227.66 507.51 1228.75 508.23 1229.53C508.95 1230.31 509.89 1230.7 511.05 1230.7C512.17 1230.7 513.07 1230.34 513.75 1229.62C514.45 1228.88 514.8 1227.88 514.8 1226.62V1225.9C514.8 1224.64 514.45 1223.65 513.75 1222.93C513.07 1222.19 512.17 1221.82 511.05 1221.82C509.89 1221.82 508.95 1222.21 508.23 1222.99C507.51 1223.77 507.15 1224.86 507.15 1226.26ZM527.498 1232.68L521.468 1218.52H526.118L529.778 1227.97L533.408 1218.52H538.088L528.188 1241.65H523.568L527.498 1232.68ZM557.794 1225.54L554.554 1234H551.194L545.254 1218.52H549.934L553.024 1227.85L556.264 1218.52H559.234L562.504 1227.85L565.594 1218.52H570.244L564.334 1234H560.974L557.794 1225.54ZM579.195 1218.22C580.775 1218.22 582.185 1218.56 583.425 1219.24C584.665 1219.9 585.635 1220.84 586.335 1222.06C587.055 1223.26 587.415 1224.66 587.415 1226.26C587.415 1227.86 587.055 1229.27 586.335 1230.49C585.635 1231.71 584.665 1232.65 583.425 1233.31C582.185 1233.97 580.775 1234.3 579.195 1234.3C577.635 1234.3 576.225 1233.97 574.965 1233.31C573.725 1232.65 572.755 1231.71 572.055 1230.49C571.355 1229.27 571.005 1227.86 571.005 1226.26C571.005 1224.66 571.355 1223.26 572.055 1222.06C572.775 1220.84 573.755 1219.9 574.995 1219.24C576.235 1218.56 577.635 1218.22 579.195 1218.22ZM575.265 1226.26C575.265 1227.62 575.625 1228.7 576.345 1229.5C577.085 1230.3 578.035 1230.7 579.195 1230.7C580.395 1230.7 581.355 1230.31 582.075 1229.53C582.815 1228.73 583.185 1227.64 583.185 1226.26C583.185 1224.88 582.815 1223.8 582.075 1223.02C581.355 1222.22 580.395 1221.82 579.195 1221.82C578.035 1221.82 577.085 1222.22 576.345 1223.02C575.625 1223.82 575.265 1224.9 575.265 1226.26ZM599.346 1222.42C598.086 1222.42 597.076 1222.76 596.316 1223.44C595.576 1224.1 595.206 1224.97 595.206 1226.05V1234H591.006V1218.52H595.056V1220.23C595.916 1218.97 597.346 1218.34 599.346 1218.34V1222.42ZM616.746 1218.52L610.836 1225.15L617.166 1234H612.126L607.836 1228.27L606.456 1229.8V1234H602.256V1210.69H606.456V1224.13L611.586 1218.52H616.746ZM621.7 1210.84C622.4 1210.84 622.99 1211.09 623.47 1211.59C623.97 1212.09 624.22 1212.69 624.22 1213.39C624.22 1214.09 623.97 1214.69 623.47 1215.19C622.99 1215.69 622.4 1215.94 621.7 1215.94C621 1215.94 620.4 1215.69 619.9 1215.19C619.4 1214.69 619.15 1214.09 619.15 1213.39C619.15 1212.69 619.4 1212.09 619.9 1211.59C620.4 1211.09 621 1210.84 621.7 1210.84ZM619.6 1218.52H623.8V1234H619.6V1218.52ZM636.462 1218.22C638.262 1218.22 639.712 1218.77 640.812 1219.87C641.912 1220.95 642.462 1222.46 642.462 1224.4V1234H638.262V1225.33C638.262 1224.33 638.002 1223.55 637.482 1222.99C636.982 1222.41 636.292 1222.12 635.412 1222.12C634.532 1222.12 633.812 1222.42 633.252 1223.02C632.712 1223.62 632.442 1224.4 632.442 1225.36V1234H628.242V1218.52H632.202V1220.11C632.542 1219.57 633.082 1219.12 633.822 1218.76C634.562 1218.4 635.442 1218.22 636.462 1218.22ZM653.358 1218.22C654.438 1218.22 655.378 1218.4 656.178 1218.76C656.978 1219.12 657.598 1219.59 658.038 1220.17V1218.52H662.028V1234.6C662.028 1236.08 661.708 1237.37 661.068 1238.47C660.428 1239.57 659.518 1240.42 658.338 1241.02C657.158 1241.62 655.788 1241.92 654.228 1241.92C651.888 1241.92 650.048 1241.39 648.708 1240.33C647.388 1239.29 646.578 1237.86 646.278 1236.04L650.478 1235.89C650.578 1236.65 650.948 1237.25 651.588 1237.69C652.228 1238.15 653.048 1238.38 654.048 1238.38C655.208 1238.38 656.128 1238.08 656.808 1237.48C657.488 1236.88 657.828 1236.02 657.828 1234.9V1232.56C657.388 1233.08 656.778 1233.5 655.998 1233.82C655.238 1234.14 654.358 1234.3 653.358 1234.3C651.918 1234.3 650.628 1233.97 649.488 1233.31C648.368 1232.63 647.488 1231.69 646.848 1230.49C646.208 1229.27 645.888 1227.86 645.888 1226.26C645.888 1224.66 646.208 1223.26 646.848 1222.06C647.488 1220.84 648.368 1219.9 649.488 1219.24C650.628 1218.56 651.918 1218.22 653.358 1218.22ZM650.148 1226.29C650.148 1227.67 650.508 1228.75 651.228 1229.53C651.948 1230.31 652.888 1230.7 654.048 1230.7C655.168 1230.7 656.068 1230.34 656.748 1229.62C657.448 1228.88 657.798 1227.88 657.798 1226.62V1225.9C657.798 1224.64 657.448 1223.65 656.748 1222.93C656.068 1222.19 655.168 1221.82 654.048 1221.82C652.888 1221.82 651.948 1222.22 651.228 1223.02C650.508 1223.8 650.148 1224.89 650.148 1226.29ZM680.299 1218.22C681.879 1218.22 683.289 1218.56 684.529 1219.24C685.769 1219.9 686.739 1220.84 687.439 1222.06C688.159 1223.26 688.519 1224.66 688.519 1226.26C688.519 1227.86 688.159 1229.27 687.439 1230.49C686.739 1231.71 685.769 1232.65 684.529 1233.31C683.289 1233.97 681.879 1234.3 680.299 1234.3C678.739 1234.3 677.329 1233.97 676.069 1233.31C674.829 1232.65 673.859 1231.71 673.159 1230.49C672.459 1229.27 672.109 1227.86 672.109 1226.26C672.109 1224.66 672.459 1223.26 673.159 1222.06C673.879 1220.84 674.859 1219.9 676.099 1219.24C677.339 1218.56 678.739 1218.22 680.299 1218.22ZM676.369 1226.26C676.369 1227.62 676.729 1228.7 677.449 1229.5C678.189 1230.3 679.139 1230.7 680.299 1230.7C681.499 1230.7 682.459 1230.31 683.179 1229.53C683.919 1228.73 684.289 1227.64 684.289 1226.26C684.289 1224.88 683.919 1223.8 683.179 1223.02C682.459 1222.22 681.499 1221.82 680.299 1221.82C679.139 1221.82 678.189 1222.22 677.449 1223.02C676.729 1223.82 676.369 1224.9 676.369 1226.26ZM700.33 1218.22C702.13 1218.22 703.58 1218.77 704.68 1219.87C705.78 1220.95 706.33 1222.46 706.33 1224.4V1234H702.13V1225.33C702.13 1224.33 701.87 1223.55 701.35 1222.99C700.85 1222.41 700.16 1222.12 699.28 1222.12C698.4 1222.12 697.68 1222.42 697.12 1223.02C696.58 1223.62 696.31 1224.4 696.31 1225.36V1234H692.11V1218.52H696.07V1220.11C696.41 1219.57 696.95 1219.12 697.69 1218.76C698.43 1218.4 699.31 1218.22 700.33 1218.22ZM724.562 1210.51C725.162 1210.51 725.652 1210.55 726.032 1210.63V1214.26C725.772 1214.2 725.442 1214.17 725.042 1214.17C724.262 1214.17 723.622 1214.41 723.122 1214.89C722.642 1215.35 722.402 1215.96 722.402 1216.72V1218.52H726.032V1222.12H722.402V1234H718.172V1222.12H715.382V1218.52H718.172V1216.81C718.172 1214.89 718.752 1213.36 719.912 1212.22C721.092 1211.08 722.642 1210.51 724.562 1210.51ZM730.831 1210.84C731.531 1210.84 732.121 1211.09 732.601 1211.59C733.101 1212.09 733.351 1212.69 733.351 1213.39C733.351 1214.09 733.101 1214.69 732.601 1215.19C732.121 1215.69 731.531 1215.94 730.831 1215.94C730.131 1215.94 729.531 1215.69 729.031 1215.19C728.531 1214.69 728.281 1214.09 728.281 1213.39C728.281 1212.69 728.531 1212.09 729.031 1211.59C729.531 1211.09 730.131 1210.84 730.831 1210.84ZM728.731 1218.52H732.931V1234H728.731V1218.52ZM746.523 1234L743.373 1229.05L740.283 1234H735.543L740.493 1226.17L735.633 1218.52H740.343L743.373 1223.35L746.433 1218.52H751.113L746.283 1226.17L751.263 1234H746.523ZM755.967 1210.84C756.667 1210.84 757.257 1211.09 757.737 1211.59C758.237 1212.09 758.487 1212.69 758.487 1213.39C758.487 1214.09 758.237 1214.69 757.737 1215.19C757.257 1215.69 756.667 1215.94 755.967 1215.94C755.267 1215.94 754.667 1215.69 754.167 1215.19C753.667 1214.69 753.417 1214.09 753.417 1213.39C753.417 1212.69 753.667 1212.09 754.167 1211.59C754.667 1211.09 755.267 1210.84 755.967 1210.84ZM753.867 1218.52H758.067V1234H753.867V1218.52ZM770.73 1218.22C772.53 1218.22 773.98 1218.77 775.08 1219.87C776.18 1220.95 776.73 1222.46 776.73 1224.4V1234H772.53V1225.33C772.53 1224.33 772.27 1223.55 771.75 1222.99C771.25 1222.41 770.56 1222.12 769.68 1222.12C768.8 1222.12 768.08 1222.42 767.52 1223.02C766.98 1223.62 766.71 1224.4 766.71 1225.36V1234H762.51V1218.52H766.47V1220.11C766.81 1219.57 767.35 1219.12 768.09 1218.76C768.83 1218.4 769.71 1218.22 770.73 1218.22ZM787.626 1218.22C788.706 1218.22 789.646 1218.4 790.446 1218.76C791.246 1219.12 791.866 1219.59 792.306 1220.17V1218.52H796.296V1234.6C796.296 1236.08 795.976 1237.37 795.336 1238.47C794.696 1239.57 793.786 1240.42 792.606 1241.02C791.426 1241.62 790.056 1241.92 788.496 1241.92C786.156 1241.92 784.316 1241.39 782.976 1240.33C781.656 1239.29 780.846 1237.86 780.546 1236.04L784.746 1235.89C784.846 1236.65 785.216 1237.25 785.856 1237.69C786.496 1238.15 787.316 1238.38 788.316 1238.38C789.476 1238.38 790.396 1238.08 791.076 1237.48C791.756 1236.88 792.096 1236.02 792.096 1234.9V1232.56C791.656 1233.08 791.046 1233.5 790.266 1233.82C789.506 1234.14 788.626 1234.3 787.626 1234.3C786.186 1234.3 784.896 1233.97 783.756 1233.31C782.636 1232.63 781.756 1231.69 781.116 1230.49C780.476 1229.27 780.156 1227.86 780.156 1226.26C780.156 1224.66 780.476 1223.26 781.116 1222.06C781.756 1220.84 782.636 1219.9 783.756 1219.24C784.896 1218.56 786.186 1218.22 787.626 1218.22ZM784.416 1226.29C784.416 1227.67 784.776 1228.75 785.496 1229.53C786.216 1230.31 787.156 1230.7 788.316 1230.7C789.436 1230.7 790.336 1230.34 791.016 1229.62C791.716 1228.88 792.066 1227.88 792.066 1226.62V1225.9C792.066 1224.64 791.716 1223.65 791.016 1222.93C790.336 1222.19 789.436 1221.82 788.316 1221.82C787.156 1221.82 786.216 1222.22 785.496 1223.02C784.776 1223.8 784.416 1224.89 784.416 1226.29ZM809.346 1210.84C810.046 1210.84 810.636 1211.09 811.116 1211.59C811.616 1212.09 811.866 1212.69 811.866 1213.39C811.866 1214.09 811.616 1214.69 811.116 1215.19C810.636 1215.69 810.046 1215.94 809.346 1215.94C808.646 1215.94 808.046 1215.69 807.546 1215.19C807.046 1214.69 806.796 1214.09 806.796 1213.39C806.796 1212.69 807.046 1212.09 807.546 1211.59C808.046 1211.09 808.646 1210.84 809.346 1210.84ZM807.246 1218.52H811.446V1234H807.246V1218.52ZM822.369 1234.27C820.629 1234.27 819.259 1233.84 818.259 1232.98C817.279 1232.12 816.799 1230.83 816.819 1229.11L816.849 1222.12H813.999V1218.52H816.849L816.879 1213.36H821.109L821.079 1218.52H824.739V1222.12H821.049L821.019 1228.03C821.019 1228.87 821.239 1229.49 821.679 1229.89C822.119 1230.29 822.679 1230.49 823.359 1230.49C823.819 1230.49 824.289 1230.45 824.769 1230.37V1234.09C823.929 1234.21 823.129 1234.27 822.369 1234.27ZM829.401 1229.2C830.121 1229.2 830.721 1229.45 831.201 1229.95C831.701 1230.45 831.951 1231.05 831.951 1231.75C831.951 1232.47 831.701 1233.08 831.201 1233.58C830.721 1234.06 830.121 1234.3 829.401 1234.3C828.681 1234.3 828.071 1234.06 827.571 1233.58C827.091 1233.08 826.851 1232.47 826.851 1231.75C826.851 1231.05 827.091 1230.45 827.571 1229.95C828.071 1229.45 828.681 1229.2 829.401 1229.2Z" fill="#3F3D56"/>
<rect x="396" y="1300" width="420" height="85" rx="28" stroke="#2F2E41" stroke-width="4"/>
<path d="M470.663 1330.8C472.571 1330.8 474.092 1331.28 475.226 1332.23C476.378 1333.17 476.954 1334.56 476.954 1336.39C476.954 1337.31 476.783 1338.1 476.441 1338.77C476.099 1339.42 475.649 1339.96 475.091 1340.39C475.847 1340.73 476.477 1341.32 476.981 1342.14C477.503 1342.95 477.764 1343.95 477.764 1345.14C477.764 1347.03 477.17 1348.48 475.982 1349.49C474.812 1350.5 473.246 1351 471.284 1351H462.32V1330.8H470.663ZM470.798 1347.44C471.68 1347.44 472.382 1347.23 472.904 1346.81C473.426 1346.4 473.687 1345.77 473.687 1344.92C473.687 1344.06 473.426 1343.42 472.904 1343.01C472.4 1342.59 471.725 1342.39 470.879 1342.39H466.316V1347.44H470.798ZM470.474 1338.96C471.212 1338.96 471.788 1338.78 472.202 1338.42C472.634 1338.04 472.85 1337.46 472.85 1336.69C472.85 1335.92 472.616 1335.33 472.148 1334.93C471.68 1334.54 471.032 1334.34 470.204 1334.34H466.316V1338.96H470.474ZM486.677 1336.8C488.549 1336.8 489.971 1337.27 490.943 1338.23C491.915 1339.16 492.401 1340.54 492.401 1342.36V1351H488.81V1349.65C488.414 1350.15 487.892 1350.55 487.244 1350.84C486.614 1351.13 485.876 1351.27 485.03 1351.27C483.608 1351.27 482.492 1350.93 481.682 1350.24C480.872 1349.56 480.467 1348.56 480.467 1347.25C480.467 1344.6 482.393 1343.2 486.245 1343.03L488.594 1342.93V1342.12C488.594 1340.68 487.973 1339.96 486.731 1339.96C486.083 1339.96 485.57 1340.15 485.192 1340.55C484.832 1340.95 484.652 1341.4 484.652 1341.9L480.845 1341.79C480.845 1340.96 481.079 1340.16 481.547 1339.39C482.033 1338.62 482.717 1337.99 483.599 1337.53C484.499 1337.04 485.525 1336.8 486.677 1336.8ZM484.247 1346.98C484.247 1347.95 484.832 1348.43 486.002 1348.43C486.74 1348.43 487.352 1348.22 487.838 1347.79C488.342 1347.35 488.594 1346.73 488.594 1345.92V1345.25L486.515 1345.36C485.003 1345.45 484.247 1345.99 484.247 1346.98ZM502.598 1336.8C504.308 1336.8 505.766 1337.28 506.972 1338.26C508.196 1339.21 508.925 1340.51 509.159 1342.14L505.46 1342.49C505.37 1341.74 505.064 1341.14 504.542 1340.71C504.038 1340.26 503.39 1340.04 502.598 1340.04C501.608 1340.04 500.807 1340.39 500.195 1341.09C499.601 1341.79 499.304 1342.77 499.304 1344.03C499.304 1345.28 499.61 1346.26 500.222 1346.98C500.834 1347.68 501.626 1348.03 502.598 1348.03C503.39 1348.03 504.038 1347.82 504.542 1347.41C505.046 1346.98 505.352 1346.4 505.46 1345.68L509.159 1345.98C508.889 1347.62 508.16 1348.91 506.972 1349.87C505.784 1350.8 504.326 1351.27 502.598 1351.27C501.23 1351.27 500.006 1350.98 498.926 1350.41C497.846 1349.83 497 1349 496.388 1347.92C495.776 1346.82 495.47 1345.53 495.47 1344.03C495.47 1342.54 495.776 1341.25 496.388 1340.17C497 1339.07 497.846 1338.24 498.926 1337.66C500.006 1337.09 501.23 1336.8 502.598 1336.8ZM525.246 1337.07L519.927 1343.03L525.624 1351H521.088L517.227 1345.84L515.985 1347.22V1351H512.205V1330.02H515.985V1342.12L520.602 1337.07H525.246ZM539.764 1351.24C538.198 1351.24 536.965 1350.86 536.065 1350.08C535.183 1349.31 534.751 1348.15 534.769 1346.6L534.796 1340.31H532.231V1337.07H534.796L534.823 1332.42H538.63L538.603 1337.07H541.897V1340.31H538.576L538.549 1345.63C538.549 1346.38 538.747 1346.94 539.143 1347.3C539.539 1347.66 540.043 1347.84 540.655 1347.84C541.069 1347.84 541.492 1347.8 541.924 1347.73V1351.08C541.168 1351.19 540.448 1351.24 539.764 1351.24ZM551.33 1336.8C552.752 1336.8 554.021 1337.1 555.137 1337.72C556.253 1338.31 557.126 1339.16 557.756 1340.25C558.404 1341.33 558.728 1342.59 558.728 1344.03C558.728 1345.47 558.404 1346.74 557.756 1347.84C557.126 1348.94 556.253 1349.78 555.137 1350.38C554.021 1350.97 552.752 1351.27 551.33 1351.27C549.926 1351.27 548.657 1350.97 547.523 1350.38C546.407 1349.78 545.534 1348.94 544.904 1347.84C544.274 1346.74 543.959 1345.47 543.959 1344.03C543.959 1342.59 544.274 1341.33 544.904 1340.25C545.552 1339.16 546.434 1338.31 547.55 1337.72C548.666 1337.1 549.926 1336.8 551.33 1336.8ZM547.793 1344.03C547.793 1345.26 548.117 1346.23 548.765 1346.95C549.431 1347.67 550.286 1348.03 551.33 1348.03C552.41 1348.03 553.274 1347.68 553.922 1346.98C554.588 1346.26 554.921 1345.28 554.921 1344.03C554.921 1342.79 554.588 1341.82 553.922 1341.12C553.274 1340.4 552.41 1340.04 551.33 1340.04C550.286 1340.04 549.431 1340.4 548.765 1341.12C548.117 1341.84 547.793 1342.81 547.793 1344.03ZM573.909 1351.24C572.343 1351.24 571.11 1350.86 570.21 1350.08C569.328 1349.31 568.896 1348.15 568.914 1346.6L568.941 1340.31H566.376V1337.07H568.941L568.968 1332.42H572.775L572.748 1337.07H576.042V1340.31H572.721L572.694 1345.63C572.694 1346.38 572.892 1346.94 573.288 1347.3C573.684 1347.66 574.188 1347.84 574.8 1347.84C575.214 1347.84 575.637 1347.8 576.069 1347.73V1351.08C575.313 1351.19 574.593 1351.24 573.909 1351.24ZM582.668 1338.34C582.992 1337.9 583.451 1337.54 584.045 1337.26C584.657 1336.95 585.404 1336.8 586.286 1336.8C587.906 1336.8 589.211 1337.29 590.201 1338.28C591.191 1339.25 591.686 1340.61 591.686 1342.36V1351H587.906V1343.2C587.906 1342.3 587.672 1341.59 587.204 1341.09C586.754 1340.57 586.133 1340.31 585.341 1340.31C584.549 1340.31 583.901 1340.58 583.397 1341.12C582.911 1341.66 582.668 1342.36 582.668 1343.22V1351H578.888V1330.02H582.668V1338.34ZM598.739 1345.11C598.757 1346.1 599.027 1346.89 599.549 1347.46C600.089 1348.04 600.836 1348.33 601.79 1348.33C602.492 1348.33 603.077 1348.17 603.545 1347.87C604.013 1347.56 604.328 1347.14 604.49 1346.6L608.297 1346.79C608.045 1348.16 607.325 1349.24 606.137 1350.05C604.949 1350.87 603.536 1351.27 601.898 1351.27C600.494 1351.27 599.243 1350.98 598.145 1350.41C597.065 1349.81 596.219 1348.97 595.607 1347.89C595.013 1346.8 594.716 1345.51 594.716 1344.03C594.716 1342.56 595.013 1341.28 595.607 1340.2C596.201 1339.1 597.029 1338.26 598.091 1337.69C599.171 1337.09 600.404 1336.8 601.79 1336.8C603.122 1336.8 604.283 1337.08 605.273 1337.63C606.281 1338.19 607.055 1338.99 607.595 1340.04C608.153 1341.08 608.432 1342.31 608.432 1343.74V1345.11H598.739ZM604.625 1342.76C604.589 1341.81 604.328 1341.05 603.842 1340.5C603.356 1339.94 602.654 1339.66 601.736 1339.66C600.872 1339.66 600.17 1339.94 599.63 1340.5C599.09 1341.04 598.793 1341.79 598.739 1342.76H604.625ZM633.71 1336.8C635.33 1336.8 636.617 1337.29 637.571 1338.28C638.543 1339.25 639.029 1340.61 639.029 1342.36V1351H635.249V1343.2C635.249 1342.28 635.033 1341.57 634.601 1341.06C634.187 1340.56 633.593 1340.31 632.819 1340.31C632.027 1340.31 631.406 1340.58 630.956 1341.12C630.506 1341.64 630.281 1342.34 630.281 1343.22V1351H626.474V1343.2C626.474 1342.28 626.267 1341.57 625.853 1341.06C625.439 1340.56 624.845 1340.31 624.071 1340.31C623.279 1340.31 622.658 1340.58 622.208 1341.12C621.758 1341.64 621.533 1342.34 621.533 1343.22V1351H617.753V1337.07H621.317V1338.5C621.641 1337.99 622.109 1337.59 622.721 1337.28C623.333 1336.96 624.089 1336.8 624.989 1336.8C625.979 1336.8 626.852 1337 627.608 1337.39C628.382 1337.77 628.985 1338.33 629.417 1339.07C629.849 1338.36 630.416 1337.81 631.118 1337.42C631.838 1337 632.702 1336.8 633.71 1336.8ZM648.281 1336.8C650.153 1336.8 651.575 1337.27 652.547 1338.23C653.519 1339.16 654.005 1340.54 654.005 1342.36V1351H650.414V1349.65C650.018 1350.15 649.496 1350.55 648.848 1350.84C648.218 1351.13 647.48 1351.27 646.634 1351.27C645.212 1351.27 644.096 1350.93 643.286 1350.24C642.476 1349.56 642.071 1348.56 642.071 1347.25C642.071 1344.6 643.997 1343.2 647.849 1343.03L650.198 1342.93V1342.12C650.198 1340.68 649.577 1339.96 648.335 1339.96C647.687 1339.96 647.174 1340.15 646.796 1340.55C646.436 1340.95 646.256 1341.4 646.256 1341.9L642.449 1341.79C642.449 1340.96 642.683 1340.16 643.151 1339.39C643.637 1338.62 644.321 1337.99 645.203 1337.53C646.103 1337.04 647.129 1336.8 648.281 1336.8ZM645.851 1346.98C645.851 1347.95 646.436 1348.43 647.606 1348.43C648.344 1348.43 648.956 1348.22 649.442 1347.79C649.946 1347.35 650.198 1346.73 650.198 1345.92V1345.25L648.119 1345.36C646.607 1345.45 645.851 1345.99 645.851 1346.98ZM659.747 1330.16C660.377 1330.16 660.908 1330.38 661.34 1330.83C661.79 1331.28 662.015 1331.82 662.015 1332.45C662.015 1333.08 661.79 1333.62 661.34 1334.07C660.908 1334.52 660.377 1334.75 659.747 1334.75C659.117 1334.75 658.577 1334.52 658.127 1334.07C657.677 1333.62 657.452 1333.08 657.452 1332.45C657.452 1331.82 657.677 1331.28 658.127 1330.83C658.577 1330.38 659.117 1330.16 659.747 1330.16ZM657.857 1337.07H661.637V1351H657.857V1337.07ZM673.034 1336.8C674.654 1336.8 675.959 1337.29 676.949 1338.28C677.939 1339.25 678.434 1340.61 678.434 1342.36V1351H674.654V1343.2C674.654 1342.3 674.42 1341.59 673.952 1341.09C673.502 1340.57 672.881 1340.31 672.089 1340.31C671.297 1340.31 670.649 1340.58 670.145 1341.12C669.659 1341.66 669.416 1342.36 669.416 1343.22V1351H665.636V1337.07H669.2V1338.5C669.506 1338.01 669.992 1337.61 670.658 1337.28C671.324 1336.96 672.116 1336.8 673.034 1336.8ZM696.193 1336.8C697.489 1336.8 698.641 1337.1 699.649 1337.72C700.675 1338.31 701.476 1339.16 702.052 1340.25C702.628 1341.33 702.916 1342.59 702.916 1344.03C702.916 1345.47 702.628 1346.74 702.052 1347.84C701.476 1348.92 700.675 1349.77 699.649 1350.38C698.641 1350.97 697.489 1351.27 696.193 1351.27C695.293 1351.27 694.492 1351.13 693.79 1350.84C693.106 1350.55 692.575 1350.17 692.197 1349.7V1357.89H688.417V1337.07H691.981V1338.55C692.377 1338.05 692.935 1337.63 693.655 1337.31C694.393 1336.97 695.239 1336.8 696.193 1336.8ZM692.197 1344.36C692.197 1345.49 692.503 1346.39 693.115 1347.06C693.745 1347.71 694.573 1348.03 695.599 1348.03C696.643 1348.03 697.489 1347.68 698.137 1346.98C698.785 1346.27 699.109 1345.3 699.109 1344.06C699.109 1342.8 698.785 1341.82 698.137 1341.12C697.489 1340.4 696.643 1340.04 695.599 1340.04C694.573 1340.04 693.745 1340.37 693.115 1341.04C692.503 1341.68 692.197 1342.58 692.197 1343.71V1344.36ZM711.563 1336.8C713.435 1336.8 714.857 1337.27 715.829 1338.23C716.801 1339.16 717.287 1340.54 717.287 1342.36V1351H713.696V1349.65C713.3 1350.15 712.778 1350.55 712.13 1350.84C711.5 1351.13 710.762 1351.27 709.916 1351.27C708.494 1351.27 707.378 1350.93 706.568 1350.24C705.758 1349.56 705.353 1348.56 705.353 1347.25C705.353 1344.6 707.279 1343.2 711.131 1343.03L713.48 1342.93V1342.12C713.48 1340.68 712.859 1339.96 711.617 1339.96C710.969 1339.96 710.456 1340.15 710.078 1340.55C709.718 1340.95 709.538 1341.4 709.538 1341.9L705.731 1341.79C705.731 1340.96 705.965 1340.16 706.433 1339.39C706.919 1338.62 707.603 1337.99 708.485 1337.53C709.385 1337.04 710.411 1336.8 711.563 1336.8ZM709.133 1346.98C709.133 1347.95 709.718 1348.43 710.888 1348.43C711.626 1348.43 712.238 1348.22 712.724 1347.79C713.228 1347.35 713.48 1346.73 713.48 1345.92V1345.25L711.401 1345.36C709.889 1345.45 709.133 1345.99 709.133 1346.98ZM727.079 1336.8C728.051 1336.8 728.897 1336.96 729.617 1337.28C730.337 1337.61 730.895 1338.03 731.291 1338.55V1337.07H734.882V1351.54C734.882 1352.87 734.594 1354.03 734.018 1355.02C733.442 1356.01 732.623 1356.78 731.561 1357.32C730.499 1357.86 729.266 1358.13 727.862 1358.13C725.756 1358.13 724.1 1357.65 722.894 1356.7C721.706 1355.76 720.977 1354.47 720.707 1352.84L724.487 1352.7C724.577 1353.39 724.91 1353.93 725.486 1354.32C726.062 1354.74 726.8 1354.94 727.7 1354.94C728.744 1354.94 729.572 1354.67 730.184 1354.13C730.796 1353.59 731.102 1352.82 731.102 1351.81V1349.7C730.706 1350.17 730.157 1350.55 729.455 1350.84C728.771 1351.13 727.979 1351.27 727.079 1351.27C725.783 1351.27 724.622 1350.97 723.596 1350.38C722.588 1349.77 721.796 1348.92 721.22 1347.84C720.644 1346.74 720.356 1345.47 720.356 1344.03C720.356 1342.59 720.644 1341.33 721.22 1340.25C721.796 1339.16 722.588 1338.31 723.596 1337.72C724.622 1337.1 725.783 1336.8 727.079 1336.8ZM724.19 1344.06C724.19 1345.3 724.514 1346.27 725.162 1346.98C725.81 1347.68 726.656 1348.03 727.7 1348.03C728.708 1348.03 729.518 1347.71 730.13 1347.06C730.76 1346.39 731.075 1345.49 731.075 1344.36V1343.71C731.075 1342.58 730.76 1341.68 730.13 1341.04C729.518 1340.37 728.708 1340.04 727.7 1340.04C726.656 1340.04 725.81 1340.4 725.162 1341.12C724.514 1341.82 724.19 1342.8 724.19 1344.06ZM741.86 1345.11C741.878 1346.1 742.148 1346.89 742.67 1347.46C743.21 1348.04 743.957 1348.33 744.911 1348.33C745.613 1348.33 746.198 1348.17 746.666 1347.87C747.134 1347.56 747.449 1347.14 747.611 1346.6L751.418 1346.79C751.166 1348.16 750.446 1349.24 749.258 1350.05C748.07 1350.87 746.657 1351.27 745.019 1351.27C743.615 1351.27 742.364 1350.98 741.266 1350.41C740.186 1349.81 739.34 1348.97 738.728 1347.89C738.134 1346.8 737.837 1345.51 737.837 1344.03C737.837 1342.56 738.134 1341.28 738.728 1340.2C739.322 1339.1 740.15 1338.26 741.212 1337.69C742.292 1337.09 743.525 1336.8 744.911 1336.8C746.243 1336.8 747.404 1337.08 748.394 1337.63C749.402 1338.19 750.176 1338.99 750.716 1340.04C751.274 1341.08 751.553 1342.31 751.553 1343.74V1345.11H741.86ZM747.746 1342.76C747.71 1341.81 747.449 1341.05 746.963 1340.5C746.477 1339.94 745.775 1339.66 744.857 1339.66C743.993 1339.66 743.291 1339.94 742.751 1340.5C742.211 1341.04 741.914 1341.79 741.86 1342.76H747.746Z" fill="#2F2E41"/>
</g>
<defs>
<filter id="filter0_d_114_93" x="0" y="0" width="1212" height="1595" filterUnits="userSpaceOnUse" color-interpolation-filters="sRGB">
<feFlood flood-opacity="0" result="BackgroundImageFix"/>
<feColorMatrix in="SourceAlpha" type="matrix" values="0 0 0 0 0 0 0 0 0 0 0 0 0 0 0 0 0 0 127 0" result="hardAlpha"/>
<feMorphology radius="5" operator="dilate" in="SourceAlpha" result="effect1_dropShadow_114_93"/>
<feOffset/>
<feGaussianBlur stdDeviation="50"/>
<feComposite in2="hardAlpha" operator="out"/>
<feColorMatrix type="matrix" values="0 0 0 0 0 0 0 0 0 0 0 0 0 0 0 0 0 0 0.15 0"/>
<feBlend mode="normal" in2="BackgroundImageFix" result="effect1_dropShadow_114_93"/>
<feBlend mode="normal" in="SourceGraphic" in2="effect1_dropShadow_114_93" result="shape"/>
</filter>
<clipPath id="clip0_114_93">
<rect width="672.531" height="738.394" fill="white" transform="translate(270 208)"/>
</clipPath>
</defs>
</svg>
