<svg width="205" height="312" viewBox="0 0 205 312" fill="none" xmlns="http://www.w3.org/2000/svg">
<path d="M177.563 0H26.6175C11.9407 0 0 11.9407 0 26.6175V285.383C0 300.059 11.9407 312 26.6175 312H177.563C192.24 312 204.181 300.059 204.181 285.383V26.6175C204.181 11.9407 192.24 0 177.563 0ZM194.073 285.383C194.073 294.486 186.667 301.892 177.563 301.892H26.6175C17.514 301.892 10.1077 294.486 10.1077 285.383V26.6175C10.1077 17.514 17.514 10.1077 26.6175 10.1077H177.563C186.667 10.1077 194.073 17.514 194.073 26.6175V285.383V285.383Z" fill="#FFDB6F"/>
<path d="M129.045 43.1273H37.3991C28.6673 43.1273 21.5632 50.2314 21.5632 58.9631V80.5271C21.5632 89.2588 28.6673 96.3629 37.3991 96.3629H129.045C137.777 96.3629 144.881 89.2588 144.881 80.5271V58.9631C144.881 50.2314 137.777 43.1273 129.045 43.1273ZM134.773 80.5271C134.773 83.6855 132.204 86.2552 129.045 86.2552H37.3991C34.2407 86.2552 31.6709 83.6855 31.6709 80.5271V58.9631C31.6709 55.8048 34.2407 53.235 37.3991 53.235H129.045C132.203 53.235 134.773 55.8041 134.773 58.9631V80.5271Z" fill="#FFDB6F"/>
<path d="M118.263 64.6912H48.1809C45.3899 64.6912 43.1267 66.9538 43.1267 69.7453C43.1267 72.5363 45.3893 74.7995 48.1809 74.7995H118.263C121.054 74.7995 123.317 72.5369 123.317 69.7453C123.317 66.9538 121.054 64.6912 118.263 64.6912Z" fill="#FFDB6F"/>
<path d="M181.137 66.1713L164.964 49.9985C162.99 48.0247 159.79 48.0247 157.817 49.9985C155.843 51.9723 155.843 55.1727 157.817 57.1453L170.417 69.7447L157.817 82.3441C155.843 84.3179 155.843 87.5183 157.817 89.4909C158.804 90.4775 160.098 90.9717 161.391 90.9717C162.684 90.9717 163.977 90.4787 164.964 89.4909L181.137 73.3181C183.111 71.3449 183.111 68.1445 181.137 66.1713Z" fill="#FFDB6F"/>
<path d="M129.045 107.819H37.3991C28.6673 107.819 21.5632 114.923 21.5632 123.654V145.218C21.5632 153.95 28.6673 161.054 37.3991 161.054H129.045C137.777 161.054 144.881 153.95 144.881 145.218V123.654C144.881 114.923 137.777 107.819 129.045 107.819ZM134.773 145.218C134.773 148.377 132.204 150.947 129.045 150.947H37.3991C34.2407 150.947 31.6709 148.377 31.6709 145.218V123.654C31.6709 120.496 34.2407 117.926 37.3991 117.926H129.045C132.203 117.926 134.773 120.496 134.773 123.654V145.218Z" fill="#FFDB6F"/>
<path d="M91.3087 129.383H48.1813C45.3904 129.383 43.1272 131.645 43.1272 134.437C43.1272 137.228 45.3898 139.491 48.1813 139.491H91.3087C94.0996 139.491 96.3628 137.228 96.3628 134.437C96.3622 131.645 94.0996 129.383 91.3087 129.383Z" fill="#FFDB6F"/>
<path d="M181.137 130.863L164.964 114.69C162.99 112.716 159.79 112.716 157.817 114.69C155.843 116.664 155.843 119.864 157.817 121.837L170.417 134.436L157.817 147.036C155.843 149.009 155.843 152.21 157.817 154.182C158.804 155.169 160.098 155.663 161.391 155.663C162.684 155.663 163.977 155.17 164.964 154.182L181.137 138.009C183.111 136.036 183.111 132.836 181.137 130.863Z" fill="#FFDB6F"/>
<path d="M129.045 172.51H37.3991C28.6673 172.51 21.5632 179.614 21.5632 188.346V209.91C21.5632 218.641 28.6673 225.745 37.3991 225.745H129.045C137.777 225.745 144.881 218.641 144.881 209.91V188.346C144.881 179.614 137.777 172.51 129.045 172.51ZM134.773 209.909C134.773 213.067 132.204 215.637 129.045 215.637H37.3991C34.2407 215.637 31.6709 213.067 31.6709 209.909V188.346C31.6709 185.187 34.2407 182.617 37.3991 182.617H129.045C132.203 182.617 134.773 185.187 134.773 188.346V209.909Z" fill="#FFDB6F"/>
<path d="M118.263 194.073H48.1809C45.3899 194.073 43.1267 196.336 43.1267 199.127C43.1267 201.918 45.3893 204.181 48.1809 204.181H118.263C121.054 204.181 123.317 201.919 123.317 199.127C123.317 196.336 121.054 194.073 118.263 194.073Z" fill="#FFDB6F"/>
<path d="M181.137 195.554L164.964 179.381C162.99 177.407 159.79 177.407 157.817 179.381C155.843 181.355 155.843 184.555 157.817 186.528L170.417 199.127L157.817 211.727C155.843 213.7 155.843 216.901 157.817 218.873C158.804 219.86 160.098 220.354 161.391 220.354C162.684 220.354 163.977 219.861 164.964 218.873L181.137 202.701C183.111 200.727 183.111 197.527 181.137 195.554Z" fill="#FFDB6F"/>
<path d="M129.045 237.201H37.3991C28.6673 237.201 21.5632 244.305 21.5632 253.037V274.601C21.5632 283.333 28.6673 290.437 37.3991 290.437H129.045C137.777 290.437 144.881 283.333 144.881 274.601V253.037C144.881 244.305 137.777 237.201 129.045 237.201ZM134.773 274.6C134.773 277.759 132.204 280.328 129.045 280.328H37.3991C34.2407 280.328 31.6709 277.759 31.6709 274.6V253.037C31.6709 249.878 34.2407 247.309 37.3991 247.309H129.045C132.203 247.309 134.773 249.878 134.773 253.037V274.6Z" fill="#FFDB6F"/>
<path d="M91.3087 258.764H48.1813C45.3904 258.764 43.1272 261.027 43.1272 263.819C43.1272 266.61 45.3898 268.873 48.1813 268.873H91.3087C94.0996 268.873 96.3628 266.61 96.3628 263.819C96.3622 261.028 94.0996 258.764 91.3087 258.764Z" fill="#FFDB6F"/>
<path d="M181.137 260.245L164.964 244.072C162.99 242.098 159.79 242.098 157.817 244.072C155.843 246.046 155.843 249.246 157.817 251.219L170.417 263.818L157.817 276.418C155.843 278.392 155.843 281.592 157.817 283.565C158.804 284.551 160.098 285.045 161.391 285.045C162.684 285.045 163.977 284.552 164.964 283.565L181.137 267.392C183.111 265.418 183.111 262.218 181.137 260.245Z" fill="#FFDB6F"/>
<path d="M134.436 21.564H26.6174C23.8265 21.564 21.5632 23.8266 21.5632 26.6181C21.5632 29.4091 23.8258 31.6723 26.6174 31.6723H134.436C137.227 31.6723 139.49 29.4097 139.49 26.6181C139.49 23.8266 137.227 21.564 134.436 21.564Z" fill="#FFDB6F"/>
<path d="M177.563 21.564H155.999C153.208 21.564 150.945 23.8266 150.945 26.6181C150.945 29.4091 153.208 31.6723 155.999 31.6723H177.563C180.354 31.6723 182.617 29.4097 182.617 26.6181C182.617 23.8266 180.354 21.564 177.563 21.564Z" fill="#FFDB6F"/>
</svg>
