<svg width="542" height="145" viewBox="0 0 542 145" fill="none" xmlns="http://www.w3.org/2000/svg">
<rect width="542" height="145" rx="50" fill="white"/>
<path d="M111.885 83.385C109.808 83.385 108.023 83.0117 106.53 82.265C105.036 81.495 103.893 80.4333 103.1 79.08C102.33 77.7267 101.945 76.1867 101.945 74.46C101.945 72.7567 102.306 71.2283 103.03 69.875C103.776 68.5217 104.815 67.4717 106.145 66.725C107.498 65.9783 109.05 65.605 110.8 65.605C111.64 65.605 112.433 65.7333 113.18 65.99C113.926 66.2467 114.556 66.6083 115.07 67.075V64.485C115.07 63.6917 114.778 63.0733 114.195 62.63C113.611 62.1633 112.888 61.93 112.025 61.93C111.185 61.93 110.473 62.14 109.89 62.56C109.306 62.9567 109.003 63.4933 108.98 64.17L102.085 63.96C102.085 62.4667 102.516 61.1483 103.38 60.005C104.243 58.8383 105.421 57.9517 106.915 57.345C108.431 56.715 110.111 56.4 111.955 56.4C113.798 56.4 115.466 56.7617 116.96 57.485C118.453 58.2083 119.631 59.2117 120.495 60.495C121.358 61.7783 121.79 63.2483 121.79 64.905V74.11C121.79 76.98 120.926 79.2433 119.2 80.9C117.473 82.5567 115.035 83.385 111.885 83.385ZM108.77 74.46C108.77 75.44 109.061 76.21 109.645 76.77C110.228 77.33 110.998 77.61 111.955 77.61C112.865 77.61 113.611 77.3417 114.195 76.805C114.778 76.2683 115.07 75.58 115.07 74.74V74.25C115.07 73.41 114.778 72.7217 114.195 72.185C113.611 71.6483 112.865 71.38 111.955 71.38C110.998 71.38 110.228 71.66 109.645 72.22C109.061 72.78 108.77 73.5267 108.77 74.46ZM135.02 83.385C133.2 83.385 131.566 82.9767 130.12 82.16C128.673 81.3433 127.541 80.1883 126.725 78.695C125.931 77.1783 125.535 75.4167 125.535 73.41V66.375C125.535 64.345 125.908 62.5833 126.655 61.09C127.425 59.5733 128.498 58.4183 129.875 57.625C131.251 56.8083 132.85 56.4 134.67 56.4C136.023 56.4 137.26 56.645 138.38 57.135C139.523 57.6017 140.433 58.3717 141.11 59.445C141.716 58.395 142.58 57.625 143.7 57.135C144.843 56.645 146.01 56.4 147.2 56.4C149.813 56.4 151.831 57.2283 153.255 58.885C154.678 60.5183 155.39 62.8283 155.39 65.815V70.26C155.39 72.7567 155.226 75.02 154.9 77.05C154.596 79.0567 154.165 81.04 153.605 83H146.99C148.086 78.7767 148.635 74.6 148.635 70.47V65.185C148.635 63.295 147.923 62.35 146.5 62.35C145.146 62.35 144.47 63.295 144.47 65.185V73.55C144.47 75.5333 144.061 77.2717 143.245 78.765C142.428 80.2583 141.296 81.4017 139.85 82.195C138.426 82.9883 136.816 83.385 135.02 83.385ZM132.29 73.55C132.29 76.14 133.2 77.435 135.02 77.435C136.816 77.435 137.715 76.1517 137.715 73.585V66.2C137.715 63.6333 136.816 62.35 135.02 62.35C133.2 62.35 132.29 63.645 132.29 66.235V73.55ZM171.596 56.82C171.596 57.8467 171.713 58.7567 171.946 59.55C172.203 60.32 172.506 60.9967 172.856 61.58C173.23 62.14 173.731 62.8283 174.361 63.645C175.131 64.6483 175.75 65.535 176.216 66.305C176.706 67.075 177.115 68.055 177.441 69.245C177.768 70.435 177.931 71.8467 177.931 73.48C177.931 75.6033 177.488 77.4117 176.601 78.905C175.738 80.3983 174.56 81.5183 173.066 82.265C171.596 83.0117 169.963 83.385 168.166 83.385C166.3 83.385 164.643 83.0117 163.196 82.265C161.75 81.495 160.606 80.3633 159.766 78.87C158.926 77.3767 158.506 75.545 158.506 73.375C158.506 72.115 158.646 70.89 158.926 69.7L165.541 69.91C165.355 70.96 165.261 71.9167 165.261 72.78C165.261 74.18 165.495 75.3 165.961 76.14C166.451 76.9567 167.21 77.365 168.236 77.365C169.146 77.365 169.846 77.015 170.336 76.315C170.826 75.5917 171.071 74.5883 171.071 73.305C171.071 72.115 170.861 71.1117 170.441 70.295C170.021 69.4783 169.356 68.4867 168.446 67.32C167.63 66.2933 166.965 65.36 166.451 64.52C165.961 63.68 165.541 62.63 165.191 61.37C164.865 60.0867 164.736 58.57 164.806 56.82H171.596ZM191.047 56.435C192.821 56.435 194.431 56.7617 195.877 57.415C197.347 58.0683 198.502 59.0133 199.342 60.25C200.182 61.4633 200.602 62.91 200.602 64.59C200.602 67.0867 199.506 68.8133 197.312 69.77C198.526 70.19 199.436 70.9133 200.042 71.94C200.649 72.9433 200.952 74.1217 200.952 75.475C200.952 76.9217 200.556 78.2517 199.762 79.465C198.992 80.655 197.861 81.6117 196.367 82.335C194.874 83.035 193.101 83.385 191.047 83.385C188.947 83.385 187.127 83.0117 185.587 82.265C184.047 81.5183 182.869 80.48 182.052 79.15C181.259 77.82 180.862 76.3033 180.862 74.6C180.862 73.8533 180.944 73.1417 181.107 72.465L187.687 72.71C187.641 73.0133 187.617 73.445 187.617 74.005C187.617 75.2183 187.909 76.14 188.492 76.77C189.099 77.3767 189.927 77.68 190.977 77.68C191.957 77.68 192.727 77.4117 193.287 76.875C193.847 76.3383 194.127 75.6267 194.127 74.74C194.127 73.8067 193.836 73.1183 193.252 72.675C192.669 72.2317 191.876 72.01 190.872 72.01H190.207V66.69H191.187C191.981 66.69 192.611 66.4917 193.077 66.095C193.544 65.675 193.777 65.1267 193.777 64.45C193.777 63.75 193.521 63.19 193.007 62.77C192.494 62.3267 191.841 62.105 191.047 62.105C190.161 62.105 189.496 62.35 189.052 62.84C188.609 63.3067 188.387 63.9483 188.387 64.765C188.387 65.0217 188.411 65.3833 188.457 65.85L181.702 66.06C181.609 65.22 181.562 64.6133 181.562 64.24C181.562 62.7233 181.971 61.37 182.787 60.18C183.627 58.99 184.759 58.0683 186.182 57.415C187.629 56.7617 189.251 56.435 191.047 56.435ZM216.885 56.82C216.885 57.8467 217.001 58.7567 217.235 59.55C217.491 60.32 217.795 60.9967 218.145 61.58C218.518 62.14 219.02 62.8283 219.65 63.645C220.42 64.6483 221.038 65.535 221.505 66.305C221.995 67.075 222.403 68.055 222.73 69.245C223.056 70.435 223.22 71.8467 223.22 73.48C223.22 75.6033 222.776 77.4117 221.89 78.905C221.026 80.3983 219.848 81.5183 218.355 82.265C216.885 83.0117 215.251 83.385 213.455 83.385C211.588 83.385 209.931 83.0117 208.485 82.265C207.038 81.495 205.895 80.3633 205.055 78.87C204.215 77.3767 203.795 75.545 203.795 73.375C203.795 72.115 203.935 70.89 204.215 69.7L210.83 69.91C210.643 70.96 210.55 71.9167 210.55 72.78C210.55 74.18 210.783 75.3 211.25 76.14C211.74 76.9567 212.498 77.365 213.525 77.365C214.435 77.365 215.135 77.015 215.625 76.315C216.115 75.5917 216.36 74.5883 216.36 73.305C216.36 72.115 216.15 71.1117 215.73 70.295C215.31 69.4783 214.645 68.4867 213.735 67.32C212.918 66.2933 212.253 65.36 211.74 64.52C211.25 63.68 210.83 62.63 210.48 61.37C210.153 60.0867 210.025 58.57 210.095 56.82H216.885ZM246.66 65.99C248.247 65.99 249.67 66.3283 250.93 67.005C252.19 67.6817 253.194 68.7433 253.94 70.19C254.71 71.6367 255.095 73.4567 255.095 75.65C255.095 77.9133 254.547 80.3633 253.45 83H246.765C247.279 81.6 247.652 80.3867 247.885 79.36C248.142 78.31 248.27 77.155 248.27 75.895C248.27 74.4717 248.072 73.445 247.675 72.815C247.302 72.185 246.754 71.87 246.03 71.87C245.33 71.87 244.829 72.1617 244.525 72.745C244.222 73.3283 244.07 74.0517 244.07 74.915V79.185H237.28V74.915C237.28 72.885 236.65 71.87 235.39 71.87C234.667 71.87 234.107 72.185 233.71 72.815C233.337 73.445 233.15 74.4833 233.15 75.93C233.15 77.2367 233.267 78.4033 233.5 79.43C233.734 80.4567 234.107 81.6467 234.62 83H227.97C227.41 81.3433 226.99 79.745 226.71 78.205C226.43 76.6417 226.29 74.9033 226.29 72.99C226.29 69.6767 226.862 67.0633 228.005 65.15C229.172 63.2367 230.514 61.8833 232.03 61.09C233.547 60.2967 235.39 59.585 237.56 58.955C238.844 58.605 239.777 58.29 240.36 58.01C240.967 57.73 241.329 57.3333 241.445 56.82H248.445C248.399 58.5 247.874 59.8417 246.87 60.845C245.89 61.825 244.724 62.5483 243.37 63.015C242.04 63.4817 240.302 63.9483 238.155 64.415C236.149 64.8583 234.62 65.2783 233.57 65.675C232.544 66.0483 231.867 66.6083 231.54 67.355C232.007 66.8883 232.614 66.55 233.36 66.34C234.107 66.1067 234.83 65.99 235.53 65.99C236.674 65.99 237.665 66.2 238.505 66.62C239.345 67.0167 240.069 67.6933 240.675 68.65C241.912 66.8767 243.907 65.99 246.66 65.99ZM259.629 83C259.069 81.04 258.626 79.0567 258.299 77.05C257.996 75.0433 257.844 72.85 257.844 70.47V66.375C257.844 64.345 258.252 62.5833 259.069 61.09C259.886 59.5733 261.017 58.4183 262.464 57.625C263.934 56.8083 265.614 56.4 267.504 56.4C269.347 56.4 270.992 56.7967 272.439 57.59C273.909 58.3833 275.052 59.5267 275.869 61.02C276.709 62.5133 277.129 64.2517 277.129 66.235V70.47C277.129 72.8733 276.966 75.09 276.639 77.12C276.312 79.1267 275.869 81.0867 275.309 83H268.764C269.837 78.87 270.374 74.81 270.374 70.82V66.55C270.374 65.22 270.129 64.1933 269.639 63.47C269.149 62.7233 268.437 62.35 267.504 62.35C266.547 62.35 265.824 62.7233 265.334 63.47C264.844 64.1933 264.599 65.2317 264.599 66.585V70.82C264.599 74.7167 265.147 78.7767 266.244 83H259.629ZM297.887 83.385C295.997 83.385 294.293 83.0233 292.777 82.3C291.283 81.5767 290.105 80.55 289.242 79.22C288.402 77.89 287.982 76.35 287.982 74.6C287.982 72.1967 288.74 70.225 290.257 68.685C291.773 67.1217 293.803 66.165 296.347 65.815C297.28 65.6983 297.957 65.4883 298.377 65.185C298.797 64.8583 299.007 64.3683 299.007 63.715C299.007 62.665 298.54 62.14 297.607 62.14C297.163 62.14 296.825 62.2917 296.592 62.595C296.358 62.8983 296.253 63.33 296.277 63.89L289.277 63.715C289.3 62.3617 289.662 61.1367 290.362 60.04C291.085 58.92 292.077 58.045 293.337 57.415C294.597 56.7617 296.043 56.435 297.677 56.435C299.31 56.435 300.745 56.7383 301.982 57.345C303.218 57.9517 304.163 58.745 304.817 59.725C305.493 60.6817 305.832 61.685 305.832 62.735C305.832 64.7183 305.027 66.165 303.417 67.075C304.817 67.8217 305.902 68.8483 306.672 70.155C307.465 71.4617 307.862 72.9433 307.862 74.6C307.862 76.35 307.43 77.89 306.567 79.22C305.703 80.55 304.513 81.5767 302.997 82.3C301.48 83.0233 299.777 83.385 297.887 83.385ZM294.772 74.6C294.772 75.5333 295.052 76.2683 295.612 76.805C296.172 77.3417 296.93 77.61 297.887 77.61C298.867 77.61 299.637 77.3417 300.197 76.805C300.78 76.2683 301.072 75.5333 301.072 74.6C301.072 73.6667 300.78 72.92 300.197 72.36C299.613 71.8 298.843 71.52 297.887 71.52C296.953 71.52 296.195 71.8117 295.612 72.395C295.052 72.955 294.772 73.69 294.772 74.6ZM320.862 56.435C322.635 56.435 324.245 56.7617 325.692 57.415C327.162 58.0683 328.317 59.0133 329.157 60.25C329.997 61.4633 330.417 62.91 330.417 64.59C330.417 67.0867 329.32 68.8133 327.127 69.77C328.34 70.19 329.25 70.9133 329.857 71.94C330.464 72.9433 330.767 74.1217 330.767 75.475C330.767 76.9217 330.37 78.2517 329.577 79.465C328.807 80.655 327.675 81.6117 326.182 82.335C324.689 83.035 322.915 83.385 320.862 83.385C318.762 83.385 316.942 83.0117 315.402 82.265C313.862 81.5183 312.684 80.48 311.867 79.15C311.074 77.82 310.677 76.3033 310.677 74.6C310.677 73.8533 310.759 73.1417 310.922 72.465L317.502 72.71C317.455 73.0133 317.432 73.445 317.432 74.005C317.432 75.2183 317.724 76.14 318.307 76.77C318.914 77.3767 319.742 77.68 320.792 77.68C321.772 77.68 322.542 77.4117 323.102 76.875C323.662 76.3383 323.942 75.6267 323.942 74.74C323.942 73.8067 323.65 73.1183 323.067 72.675C322.484 72.2317 321.69 72.01 320.687 72.01H320.022V66.69H321.002C321.795 66.69 322.425 66.4917 322.892 66.095C323.359 65.675 323.592 65.1267 323.592 64.45C323.592 63.75 323.335 63.19 322.822 62.77C322.309 62.3267 321.655 62.105 320.862 62.105C319.975 62.105 319.31 62.35 318.867 62.84C318.424 63.3067 318.202 63.9483 318.202 64.765C318.202 65.0217 318.225 65.3833 318.272 65.85L311.517 66.06C311.424 65.22 311.377 64.6133 311.377 64.24C311.377 62.7233 311.785 61.37 312.602 60.18C313.442 58.99 314.574 58.0683 315.997 57.415C317.444 56.7617 319.065 56.435 320.862 56.435ZM343.409 83.385C341.472 83.385 339.769 83.0117 338.299 82.265C336.829 81.495 335.697 80.445 334.904 79.115C334.111 77.785 333.714 76.28 333.714 74.6C333.714 73.69 333.854 72.7333 334.134 71.73L340.679 72.01C340.562 72.8267 340.504 73.4917 340.504 74.005C340.504 75.0783 340.749 75.9183 341.239 76.525C341.729 77.1317 342.464 77.435 343.444 77.435C344.377 77.435 345.124 77.1783 345.684 76.665C346.244 76.1517 346.524 75.37 346.524 74.32V64.975C346.524 64.135 346.279 63.4933 345.789 63.05C345.299 62.6067 344.681 62.385 343.934 62.385C343.071 62.385 342.417 62.63 341.974 63.12C341.531 63.61 341.309 64.2867 341.309 65.15C341.309 65.5467 341.344 65.99 341.414 66.48L334.659 66.69C334.519 65.8033 334.449 64.975 334.449 64.205C334.449 62.6417 334.857 61.2767 335.674 60.11C336.514 58.92 337.657 58.01 339.104 57.38C340.551 56.75 342.161 56.435 343.934 56.435C345.731 56.435 347.341 56.7733 348.764 57.45C350.187 58.1267 351.296 59.1183 352.089 60.425C352.882 61.7083 353.279 63.2367 353.279 65.01V74.32C353.279 76.14 352.894 77.7383 352.124 79.115C351.354 80.4683 350.222 81.5183 348.729 82.265C347.259 83.0117 345.486 83.385 343.409 83.385ZM377.159 65.99C378.745 65.99 380.169 66.3283 381.429 67.005C382.689 67.6817 383.692 68.7433 384.439 70.19C385.209 71.6367 385.594 73.4567 385.594 75.65C385.594 77.9133 385.045 80.3633 383.949 83H377.264C377.777 81.6 378.15 80.3867 378.384 79.36C378.64 78.31 378.769 77.155 378.769 75.895C378.769 74.4717 378.57 73.445 378.174 72.815C377.8 72.185 377.252 71.87 376.529 71.87C375.829 71.87 375.327 72.1617 375.024 72.745C374.72 73.3283 374.569 74.0517 374.569 74.915V79.185H367.779V74.915C367.779 72.885 367.149 71.87 365.889 71.87C365.165 71.87 364.605 72.185 364.209 72.815C363.835 73.445 363.649 74.4833 363.649 75.93C363.649 77.2367 363.765 78.4033 363.999 79.43C364.232 80.4567 364.605 81.6467 365.119 83H358.469C357.909 81.3433 357.489 79.745 357.209 78.205C356.929 76.6417 356.789 74.9033 356.789 72.99C356.789 69.6767 357.36 67.0633 358.504 65.15C359.67 63.2367 361.012 61.8833 362.529 61.09C364.045 60.2967 365.889 59.585 368.059 58.955C369.342 58.605 370.275 58.29 370.859 58.01C371.465 57.73 371.827 57.3333 371.944 56.82H378.944C378.897 58.5 378.372 59.8417 377.369 60.845C376.389 61.825 375.222 62.5483 373.869 63.015C372.539 63.4817 370.8 63.9483 368.654 64.415C366.647 64.8583 365.119 65.2783 364.069 65.675C363.042 66.0483 362.365 66.6083 362.039 67.355C362.505 66.8883 363.112 66.55 363.859 66.34C364.605 66.1067 365.329 65.99 366.029 65.99C367.172 65.99 368.164 66.2 369.004 66.62C369.844 67.0167 370.567 67.6933 371.174 68.65C372.41 66.8767 374.405 65.99 377.159 65.99ZM404.783 83C404.549 81.8333 403.861 81.0633 402.718 80.69C401.598 80.2933 400.291 80.095 398.798 80.095H389.663V75.125H391.938C390.444 74.145 389.254 72.8383 388.368 71.205C387.481 69.5483 387.038 67.775 387.038 65.885C387.038 63.785 387.411 62.0233 388.158 60.6C388.928 59.1767 389.954 58.1267 391.238 57.45C392.521 56.7733 393.956 56.435 395.543 56.435C396.756 56.435 397.923 56.68 399.043 57.17C400.186 57.6367 401.061 58.325 401.668 59.235C402.251 58.3717 403.103 57.695 404.223 57.205C405.343 56.6917 406.544 56.435 407.828 56.435C409.461 56.435 410.931 56.7967 412.238 57.52C413.568 58.22 414.606 59.2117 415.353 60.495C416.123 61.7783 416.508 63.2483 416.508 64.905C416.508 66.515 416.123 67.95 415.353 69.21C414.583 70.4467 413.498 71.415 412.098 72.115C410.721 72.815 409.158 73.165 407.408 73.165C405.658 73.165 404.083 72.8267 402.683 72.15C401.283 71.4733 400.186 70.54 399.393 69.35C398.599 68.1367 398.203 66.7717 398.203 65.255V64.59C398.203 63.9367 398.051 63.365 397.748 62.875C397.444 62.385 396.966 62.14 396.313 62.14C395.519 62.14 394.913 62.455 394.493 63.085C394.096 63.715 393.898 64.7183 393.898 66.095C393.898 68.965 394.668 71.03 396.208 72.29C397.748 73.55 399.544 74.2967 401.598 74.53L402.858 74.67C405.471 74.9733 407.559 75.825 409.123 77.225C410.686 78.6017 411.526 80.5267 411.643 83H404.783ZM404.853 64.8C404.853 65.6167 405.074 66.2817 405.518 66.795C405.984 67.285 406.603 67.53 407.373 67.53C408.143 67.53 408.749 67.285 409.193 66.795C409.636 66.2817 409.858 65.6167 409.858 64.8C409.858 63.96 409.636 63.295 409.193 62.805C408.749 62.315 408.143 62.07 407.373 62.07C406.603 62.07 405.984 62.3267 405.518 62.84C405.074 63.33 404.853 63.9833 404.853 64.8ZM421.265 83C420.705 81.04 420.261 79.0567 419.935 77.05C419.631 75.0433 419.48 72.85 419.48 70.47V66.375C419.48 64.345 419.888 62.5833 420.705 61.09C421.521 59.5733 422.653 58.4183 424.1 57.625C425.57 56.8083 427.25 56.4 429.14 56.4C430.983 56.4 432.628 56.7967 434.075 57.59C435.545 58.3833 436.688 59.5267 437.505 61.02C438.345 62.5133 438.765 64.2517 438.765 66.235V70.47C438.765 72.8733 438.601 75.09 438.275 77.12C437.948 79.1267 437.505 81.0867 436.945 83H430.4C431.473 78.87 432.01 74.81 432.01 70.82V66.55C432.01 65.22 431.765 64.1933 431.275 63.47C430.785 62.7233 430.073 62.35 429.14 62.35C428.183 62.35 427.46 62.7233 426.97 63.47C426.48 64.1933 426.235 65.2317 426.235 66.585V70.82C426.235 74.7167 426.783 78.7767 427.88 83H421.265Z" fill="black"/>
</svg>
