<svg width="49" height="45" viewBox="0 0 49 45" fill="none" xmlns="http://www.w3.org/2000/svg">
<path d="M7.40332 44.4922H41.3877C43.764 44.4922 45.5544 43.89 46.7588 42.6855C47.9632 41.4974 48.5654 39.7314 48.5654 37.3877V7.45605C48.5654 5.09603 47.9632 3.32194 46.7588 2.13379C45.5544 0.929362 43.764 0.327148 41.3877 0.327148H7.40332C5.02702 0.327148 3.23665 0.929362 2.03223 2.13379C0.827799 3.32194 0.225586 5.09603 0.225586 7.45605V37.3877C0.225586 39.7477 0.827799 41.5218 2.03223 42.71C3.23665 43.8981 5.02702 44.4922 7.40332 44.4922ZM7.18359 41.5137C5.89779 41.5137 4.91309 41.1719 4.22949 40.4883C3.5459 39.821 3.2041 38.8281 3.2041 37.5098V15.1953C3.2041 13.877 3.5459 12.8841 4.22949 12.2168C4.91309 11.5332 5.89779 11.1914 7.18359 11.1914H41.583C42.8525 11.1914 43.8372 11.5332 44.5371 12.2168C45.237 12.8841 45.5869 13.877 45.5869 15.1953V37.5098C45.5869 38.8281 45.237 39.821 44.5371 40.4883C43.8372 41.1719 42.8525 41.5137 41.583 41.5137H7.18359ZM19.5615 19.8584H21.002C21.3763 19.8584 21.6286 19.7933 21.7588 19.6631C21.9053 19.5329 21.9785 19.2806 21.9785 18.9062V17.4658C21.9785 17.0915 21.9053 16.8473 21.7588 16.7334C21.6286 16.6032 21.3763 16.5381 21.002 16.5381H19.5615C19.1872 16.5381 18.9268 16.6032 18.7803 16.7334C18.6501 16.8473 18.585 17.0915 18.585 17.4658V18.9062C18.585 19.2806 18.6501 19.5329 18.7803 19.6631C18.9268 19.7933 19.1872 19.8584 19.5615 19.8584ZM27.8379 19.8584H29.2783C29.6689 19.8584 29.9294 19.7933 30.0596 19.6631C30.1898 19.5329 30.2549 19.2806 30.2549 18.9062V17.4658C30.2549 17.0915 30.1898 16.8473 30.0596 16.7334C29.9294 16.6032 29.6689 16.5381 29.2783 16.5381H27.8379C27.4635 16.5381 27.2113 16.6032 27.0811 16.7334C26.9508 16.8473 26.8857 17.0915 26.8857 17.4658V18.9062C26.8857 19.2806 26.9508 19.5329 27.0811 19.6631C27.2113 19.7933 27.4635 19.8584 27.8379 19.8584ZM36.1387 19.8584H37.5547C37.9453 19.8584 38.2057 19.7933 38.3359 19.6631C38.4661 19.5329 38.5312 19.2806 38.5312 18.9062V17.4658C38.5312 17.0915 38.4661 16.8473 38.3359 16.7334C38.2057 16.6032 37.9453 16.5381 37.5547 16.5381H36.1387C35.748 16.5381 35.4876 16.6032 35.3574 16.7334C35.2272 16.8473 35.1621 17.0915 35.1621 17.4658V18.9062C35.1621 19.2806 35.2272 19.5329 35.3574 19.6631C35.4876 19.7933 35.748 19.8584 36.1387 19.8584ZM11.2852 28.0127H12.7256C13.0999 28.0127 13.3522 27.9476 13.4824 27.8174C13.6126 27.6872 13.6777 27.4349 13.6777 27.0605V25.6445C13.6777 25.2539 13.6126 25.0016 13.4824 24.8877C13.3522 24.7575 13.0999 24.6924 12.7256 24.6924H11.2852C10.8945 24.6924 10.6341 24.7575 10.5039 24.8877C10.3737 25.0016 10.3086 25.2539 10.3086 25.6445V27.0605C10.3086 27.4349 10.3737 27.6872 10.5039 27.8174C10.6341 27.9476 10.8945 28.0127 11.2852 28.0127ZM19.5615 28.0127H21.002C21.3763 28.0127 21.6286 27.9476 21.7588 27.8174C21.9053 27.6872 21.9785 27.4349 21.9785 27.0605V25.6445C21.9785 25.2539 21.9053 25.0016 21.7588 24.8877C21.6286 24.7575 21.3763 24.6924 21.002 24.6924H19.5615C19.1872 24.6924 18.9268 24.7575 18.7803 24.8877C18.6501 25.0016 18.585 25.2539 18.585 25.6445V27.0605C18.585 27.4349 18.6501 27.6872 18.7803 27.8174C18.9268 27.9476 19.1872 28.0127 19.5615 28.0127ZM27.8379 28.0127H29.2783C29.6689 28.0127 29.9294 27.9476 30.0596 27.8174C30.1898 27.6872 30.2549 27.4349 30.2549 27.0605V25.6445C30.2549 25.2539 30.1898 25.0016 30.0596 24.8877C29.9294 24.7575 29.6689 24.6924 29.2783 24.6924H27.8379C27.4635 24.6924 27.2113 24.7575 27.0811 24.8877C26.9508 25.0016 26.8857 25.2539 26.8857 25.6445V27.0605C26.8857 27.4349 26.9508 27.6872 27.0811 27.8174C27.2113 27.9476 27.4635 28.0127 27.8379 28.0127ZM36.1387 28.0127H37.5547C37.9453 28.0127 38.2057 27.9476 38.3359 27.8174C38.4661 27.6872 38.5312 27.4349 38.5312 27.0605V25.6445C38.5312 25.2539 38.4661 25.0016 38.3359 24.8877C38.2057 24.7575 37.9453 24.6924 37.5547 24.6924H36.1387C35.748 24.6924 35.4876 24.7575 35.3574 24.8877C35.2272 25.0016 35.1621 25.2539 35.1621 25.6445V27.0605C35.1621 27.4349 35.2272 27.6872 35.3574 27.8174C35.4876 27.9476 35.748 28.0127 36.1387 28.0127ZM11.2852 36.167H12.7256C13.0999 36.167 13.3522 36.11 13.4824 35.9961C13.6126 35.8659 13.6777 35.6055 13.6777 35.2148V33.7988C13.6777 33.4082 13.6126 33.1559 13.4824 33.042C13.3522 32.9118 13.0999 32.8467 12.7256 32.8467H11.2852C10.8945 32.8467 10.6341 32.9118 10.5039 33.042C10.3737 33.1559 10.3086 33.4082 10.3086 33.7988V35.2148C10.3086 35.6055 10.3737 35.8659 10.5039 35.9961C10.6341 36.11 10.8945 36.167 11.2852 36.167ZM19.5615 36.167H21.002C21.3763 36.167 21.6286 36.11 21.7588 35.9961C21.9053 35.8659 21.9785 35.6055 21.9785 35.2148V33.7988C21.9785 33.4082 21.9053 33.1559 21.7588 33.042C21.6286 32.9118 21.3763 32.8467 21.002 32.8467H19.5615C19.1872 32.8467 18.9268 32.9118 18.7803 33.042C18.6501 33.1559 18.585 33.4082 18.585 33.7988V35.2148C18.585 35.6055 18.6501 35.8659 18.7803 35.9961C18.9268 36.11 19.1872 36.167 19.5615 36.167ZM27.8379 36.167H29.2783C29.6689 36.167 29.9294 36.11 30.0596 35.9961C30.1898 35.8659 30.2549 35.6055 30.2549 35.2148V33.7988C30.2549 33.4082 30.1898 33.1559 30.0596 33.042C29.9294 32.9118 29.6689 32.8467 29.2783 32.8467H27.8379C27.4635 32.8467 27.2113 32.9118 27.0811 33.042C26.9508 33.1559 26.8857 33.4082 26.8857 33.7988V35.2148C26.8857 35.6055 26.9508 35.8659 27.0811 35.9961C27.2113 36.11 27.4635 36.167 27.8379 36.167Z" fill="#FFDB6F"/>
</svg>
