<svg width="47" height="54" viewBox="0 0 47 54" fill="none" xmlns="http://www.w3.org/2000/svg">
<path d="M8.18457 53.0322C8.60775 53.0322 8.91699 52.9264 9.1123 52.7148C9.32389 52.5033 9.48665 52.2021 9.60059 51.8115L11.6514 44.1211H35.4551L37.5059 51.8115C37.6035 52.2021 37.7663 52.5033 37.9941 52.7148C38.222 52.9264 38.5231 53.0322 38.8975 53.0322C39.3857 53.0322 39.752 52.9102 39.9961 52.666C40.2402 52.4219 40.3623 52.0882 40.3623 51.665C40.3623 51.4697 40.3379 51.2826 40.2891 51.1035L36.3096 36.2598H38.3604C38.93 36.2598 39.402 36.097 39.7764 35.7715C40.1507 35.4297 40.3379 34.9984 40.3379 34.4775C40.3379 33.9242 40.1589 33.4847 39.8008 33.1592C39.459 32.8337 39.0033 32.6709 38.4336 32.6709H10.4307C9.29134 32.6709 8.42871 32.3942 7.84277 31.8408C7.25684 31.2712 6.96387 30.4248 6.96387 29.3018V22.3682H11.4072V24.6631C11.4072 26.014 11.7409 27.015 12.4082 27.666C13.0918 28.3171 14.1253 28.6426 15.5088 28.6426H31.4023C32.7695 28.6426 33.7868 28.3171 34.4541 27.666C35.1377 27.015 35.4795 26.014 35.4795 24.6631V22.3682H44.8789C45.3509 22.3682 45.7334 22.238 46.0264 21.9775C46.3193 21.7171 46.4658 21.3672 46.4658 20.9277C46.4658 20.5046 46.3275 20.1628 46.0508 19.9023C45.7741 19.6419 45.4079 19.5117 44.9521 19.5117H1.66602C1.24284 19.5117 0.892904 19.6419 0.616211 19.9023C0.355794 20.1628 0.225586 20.5046 0.225586 20.9277C0.225586 21.3672 0.363932 21.7171 0.640625 21.9775C0.917318 22.238 1.28353 22.3682 1.73926 22.3682H4.08301V30.8887C4.08301 32.5977 4.55501 33.9242 5.49902 34.8682C6.44303 35.7959 7.77767 36.2598 9.50293 36.2598H10.7725L6.81738 51.1035C6.80111 51.2012 6.78483 51.2988 6.76855 51.3965C6.75228 51.4941 6.74414 51.5918 6.74414 51.6895C6.74414 52.0801 6.85807 52.3975 7.08594 52.6416C7.33008 52.902 7.69629 53.0322 8.18457 53.0322ZM12.4326 41.2158L13.7266 36.2598H33.3555L34.6738 41.2158H12.4326ZM15.2891 15.3857H31.6221C34.4053 15.3857 35.7969 14.0348 35.7969 11.333V4.52148C35.7969 1.80339 34.4053 0.444336 31.6221 0.444336H15.2891C12.4896 0.444336 11.0898 1.80339 11.0898 4.52148V11.333C11.0898 14.0348 12.4896 15.3857 15.2891 15.3857Z" fill="#FFDB6F"/>
</svg>
