<svg width="400" height="313" viewBox="0 0 400 313" fill="none" xmlns="http://www.w3.org/2000/svg">
<path d="M30.9197 36.7906C32.4617 36.7906 33.9803 36.1644 35.0684 35.0685C36.1643 33.9805 36.7905 32.4619 36.7905 30.9198C36.7905 29.3777 36.1643 27.8591 35.0684 26.7711C33.9803 25.6752 32.4696 25.049 30.9197 25.049C29.3698 25.049 27.859 25.6752 26.7709 26.7711C25.6751 27.8591 25.0488 29.3777 25.0488 30.9198C25.0488 32.4619 25.6751 33.9805 26.7709 35.0685C27.859 36.1644 29.3776 36.7906 30.9197 36.7906Z" fill="#FFDB6F"/>
<path d="M49.7065 36.7906C51.2564 36.7906 52.7672 36.1644 53.8553 35.0685C54.9512 33.9805 55.5774 32.4619 55.5774 30.9198C55.5774 29.3777 54.9512 27.8591 53.8553 26.7711C52.7672 25.6752 51.2486 25.049 49.7065 25.049C48.1645 25.049 46.6459 25.6752 45.5578 26.7711C44.4619 27.8591 43.8357 29.3777 43.8357 30.9198C43.8357 32.4619 44.4619 33.9805 45.5578 35.0685C46.6459 36.1644 48.1645 36.7906 49.7065 36.7906Z" fill="#FFDB6F"/>
<path d="M68.4932 36.7906C70.0352 36.7906 71.5538 36.1644 72.6419 35.0685C73.7378 33.9805 74.364 32.4619 74.364 30.9198C74.364 29.3777 73.7378 27.8591 72.6419 26.7711C71.5538 25.6752 70.0352 25.049 68.4932 25.049C66.9511 25.049 65.4325 25.6752 64.3444 26.7711C63.2485 27.8591 62.6223 29.3777 62.6223 30.9198C62.6223 32.4619 63.2485 33.9805 64.3444 35.0685C65.4325 36.1644 66.9511 36.7906 68.4932 36.7906Z" fill="#FFDB6F"/>
<path d="M93.542 36.7906H331.507C334.749 36.7906 337.378 34.1621 337.378 30.9198C337.378 27.6775 334.749 25.049 331.507 25.049H93.542C90.2997 25.049 87.6711 27.6775 87.6711 30.9198C87.6711 34.1621 90.2997 36.7906 93.542 36.7906Z" fill="#FFDB6F"/>
<path d="M356.556 36.7906H369.08C372.323 36.7906 374.951 34.1621 374.951 30.9198C374.951 27.6775 372.323 25.049 369.08 25.049H356.556C353.314 25.049 350.685 27.6775 350.685 30.9198C350.685 34.1621 353.314 36.7906 356.556 36.7906Z" fill="#FFDB6F"/>
<path d="M344.031 87.6713H231.311C221.168 87.6713 212.916 95.9233 212.916 106.067V106.458H206.262C196.119 106.458 187.867 114.71 187.867 124.853V175.342H174.56V156.164C174.56 146.021 166.308 137.769 156.164 137.769H55.9688C45.8255 137.769 37.5735 146.021 37.5735 156.164V206.262C37.5735 216.406 45.8255 224.658 55.9688 224.658H156.164C166.308 224.658 174.56 216.406 174.56 206.262V187.084H187.867V237.573C187.867 247.717 196.119 255.969 206.262 255.969H212.916V256.36C212.916 266.503 221.168 274.755 231.311 274.755H344.031C354.175 274.755 362.427 266.503 362.427 256.36V243.836C362.427 233.692 354.175 225.44 344.031 225.44H231.311C221.168 225.44 212.916 233.692 212.916 243.836V244.227H206.262C202.593 244.227 199.609 241.242 199.609 237.573V187.084H212.916V187.476C212.916 197.619 221.168 205.871 231.311 205.871H344.031C354.175 205.871 362.427 197.619 362.427 187.476V174.951C362.427 164.808 354.175 156.556 344.031 156.556H231.311C221.168 156.556 212.916 164.808 212.916 174.951V175.342H199.609V124.853C199.609 121.184 202.593 118.2 206.262 118.2H212.916V118.591C212.916 128.734 221.168 136.986 231.311 136.986H344.031C354.175 136.986 362.427 128.734 362.427 118.591V106.067C362.427 95.9233 354.175 87.6713 344.031 87.6713ZM162.818 206.262C162.818 209.931 159.833 212.916 156.164 212.916H55.9688C52.2999 212.916 49.3152 209.931 49.3152 206.262V156.164C49.3152 152.496 52.2999 149.511 55.9688 149.511H156.164C159.833 149.511 162.818 152.496 162.818 156.164V206.262ZM224.658 243.836C224.658 240.167 227.642 237.182 231.311 237.182H344.031C347.7 237.182 350.685 240.167 350.685 243.836V256.36C350.685 260.029 347.7 263.014 344.031 263.014H231.311C227.642 263.014 224.658 260.029 224.658 256.36V243.836ZM224.658 174.951C224.658 171.282 227.642 168.297 231.311 168.297H344.031C347.7 168.297 350.685 171.282 350.685 174.951V187.476C350.685 191.144 347.7 194.129 344.031 194.129H231.311C227.642 194.129 224.658 191.144 224.658 187.476V174.951ZM350.685 118.591C350.685 122.26 347.7 125.245 344.031 125.245H231.311C227.642 125.245 224.658 122.26 224.658 118.591V106.067C224.658 102.398 227.642 99.4129 231.311 99.4129H344.031C347.7 99.4129 350.685 102.398 350.685 106.067V118.591Z" fill="#FFDB6F"/>
<path d="M369.08 0H30.9198C13.8708 0 0 13.8708 0 30.9198V281.409C0 298.458 13.8708 312.329 30.9198 312.329H369.08C386.129 312.329 400 298.458 400 281.409V30.9198C400 13.8708 386.129 0 369.08 0ZM30.9198 11.7417H369.08C379.655 11.7417 388.258 20.3452 388.258 30.9198V50.0978H11.7417V30.9198C11.7417 20.3452 20.3452 11.7417 30.9198 11.7417ZM369.08 300.587H30.9198C20.3452 300.587 11.7417 291.984 11.7417 281.409V61.8395H388.258V281.409C388.258 291.984 379.655 300.587 369.08 300.587Z" fill="#FFDB6F"/>
</svg>
