<svg width="66" height="57" viewBox="0 0 66 57" fill="none" xmlns="http://www.w3.org/2000/svg">
<path d="M63.3848 12.7773L39.2148 1.69336C37.9616 1.1237 36.8223 0.716797 35.7969 0.472656C34.7878 0.228516 33.7949 0.114583 32.8184 0.130859C31.8418 0.114583 30.8408 0.228516 29.8154 0.472656C28.79 0.716797 27.6426 1.1237 26.373 1.69336L2.25195 12.7773C1.56836 13.0703 1.05566 13.4772 0.713867 13.998C0.388346 14.5026 0.225586 15.0316 0.225586 15.585C0.225586 16.1546 0.388346 16.6917 0.713867 17.1963C1.05566 17.7008 1.56836 18.0996 2.25195 18.3926L13.458 23.4951L28.2529 16.3418C27.9925 16.0977 27.8623 15.8454 27.8623 15.585C27.8623 15.1292 28.0902 14.7142 28.5459 14.3398C29.0179 13.9492 29.6364 13.64 30.4014 13.4121C31.1663 13.1842 31.9883 13.0703 32.8672 13.0703C33.7624 13.0703 34.5843 13.1842 35.333 13.4121C36.098 13.64 36.7083 13.9492 37.1641 14.3398C37.6198 14.7142 37.8477 15.1292 37.8477 15.585C37.8477 16.0407 37.6198 16.4639 37.1641 16.8545C36.7083 17.2451 36.098 17.5625 35.333 17.8066C34.5843 18.0345 33.7624 18.1484 32.8672 18.1484C31.972 18.1484 31.1582 18.0345 30.4258 17.8066L16.0947 24.7646L26.373 29.501C27.6589 30.0706 28.8063 30.4775 29.8154 30.7217C30.8408 30.9658 31.8418 31.0798 32.8184 31.0635C33.7949 31.0798 34.7878 30.9658 35.7969 30.7217C36.8223 30.4775 37.9616 30.0706 39.2148 29.501L63.3848 18.3926C64.0521 18.0996 64.5485 17.7008 64.874 17.1963C65.2158 16.6917 65.3867 16.1546 65.3867 15.585C65.3867 15.0316 65.2158 14.5026 64.874 13.998C64.5485 13.4772 64.0521 13.0703 63.3848 12.7773ZM16.0215 27.8164V42.416C17.9909 43.6367 20.3916 44.6133 23.2236 45.3457C26.0557 46.0944 29.2539 46.4688 32.8184 46.4688C36.3503 46.4688 39.5241 46.1107 42.3398 45.3945C45.1556 44.6947 47.5482 43.7425 49.5176 42.5381C51.5033 41.3337 53.0169 39.9827 54.0586 38.4854C55.1165 36.9717 55.6455 35.4336 55.6455 33.8711V25.0332L40.4111 32.0156C37.6279 33.2852 35.097 33.9118 32.8184 33.8955C30.5234 33.9118 27.9844 33.2852 25.2012 32.0156L16.0215 27.8164ZM9.9668 25.0332V33.8711C9.9668 34.8802 10.2679 35.9707 10.8701 37.1426C11.4886 38.3145 12.3757 39.4375 13.5312 40.5117V26.6934L9.9668 25.0332ZM13.5312 47.4453H16.0215V42.416C15.5495 42.123 15.1019 41.8219 14.6787 41.5127C14.2718 41.2035 13.8893 40.8698 13.5312 40.5117V47.4453ZM11.627 47.5674V54.0615C11.627 54.9242 11.8792 55.6077 12.3838 56.1123C12.8883 56.6169 13.5719 56.8691 14.4346 56.8691H15.0938C15.9564 56.8691 16.64 56.6169 17.1445 56.1123C17.6654 55.6077 17.9258 54.9242 17.9258 54.0615V47.5674C17.9258 46.7048 17.6654 46.013 17.1445 45.4922C16.64 44.9876 15.9564 44.7354 15.0938 44.7354H14.4346C13.5719 44.7354 12.8883 44.9876 12.3838 45.4922C11.8792 46.013 11.627 46.7048 11.627 47.5674Z" fill="#FFDB6F"/>
</svg>
