<svg width="54" height="43" viewBox="0 0 54 43" fill="none" xmlns="http://www.w3.org/2000/svg">
<path d="M7.40332 42.0273H46.5391C48.6875 42.0273 50.3395 41.4251 51.4951 40.2207C52.667 39.0163 53.2529 37.2422 53.2529 34.8984V7.9209C53.2529 5.57715 52.6507 3.8112 51.4463 2.62305C50.2419 1.41862 48.4515 0.816406 46.0752 0.816406H6.93945C4.79102 0.816406 3.13086 1.41862 1.95898 2.62305C0.803385 3.8112 0.225586 5.57715 0.225586 7.9209V34.8984C0.225586 37.2585 0.827799 39.0326 2.03223 40.2207C3.23665 41.4251 5.02702 42.0273 7.40332 42.0273ZM7.33008 39.1709C5.94661 39.1709 4.88867 38.8128 4.15625 38.0967C3.4401 37.3643 3.08203 36.29 3.08203 34.874V7.94531C3.08203 6.5293 3.4401 5.46322 4.15625 4.74707C4.88867 4.03092 5.94661 3.67285 7.33008 3.67285H46.1484C47.4993 3.67285 48.541 4.03092 49.2734 4.74707C50.0221 5.46322 50.3965 6.5293 50.3965 7.94531V34.8984C50.3965 36.2982 50.0221 37.3643 49.2734 38.0967C48.541 38.8128 47.4993 39.1709 46.1484 39.1709H7.33008ZM26.8369 27.4521C27.6019 27.4521 28.3669 27.2894 29.1318 26.9639C29.9131 26.6221 30.7106 26.0605 31.5244 25.2793L51.5928 5.62598L49.6152 3.64844L29.8154 23.1064C29.2946 23.6273 28.7819 24.0098 28.2773 24.2539C27.7728 24.4818 27.2926 24.5957 26.8369 24.5957C26.3649 24.5957 25.8766 24.4736 25.3721 24.2295C24.8675 23.9854 24.3548 23.611 23.834 23.1064L3.98535 3.5752L2.00781 5.57715L22.1494 25.2793C22.9469 26.0605 23.7363 26.6221 24.5176 26.9639C25.2988 27.2894 26.0719 27.4521 26.8369 27.4521ZM49.3467 39.1465L51.2998 37.1445L34.9668 21.2266L32.9893 23.1797L49.3467 39.1465ZM2.30078 37.2178L4.22949 39.2441L20.6846 23.1797L18.6826 21.2266L2.30078 37.2178Z" fill="#FFDB6F"/>
</svg>
