<svg width="364" height="364" viewBox="0 0 364 364" fill="none" xmlns="http://www.w3.org/2000/svg">
<rect width="364" height="364" rx="50" fill="#121212"/>
<path d="M132.073 256V113.6H172.073V256H132.073ZM89.4734 147.6V113.6H214.873V147.6H89.4734ZM229.309 256V157.6H268.509V256H229.309ZM248.909 148.4C243.176 148.4 238.376 146.467 234.509 142.6C230.776 138.6 228.909 133.733 228.909 128C228.909 122.267 230.776 117.467 234.509 113.6C238.376 109.6 243.176 107.6 248.909 107.6C254.776 107.6 259.576 109.6 263.309 113.6C267.043 117.467 268.909 122.267 268.909 128C268.909 133.733 267.043 138.6 263.309 142.6C259.576 146.467 254.776 148.4 248.909 148.4Z" fill="white"/>
</svg>
