<svg width="40" height="40" viewBox="0 0 40 40" fill="none" xmlns="http://www.w3.org/2000/svg">
<path d="M13.116 40H26.884C28.4774 40 29.7284 39.5653 30.637 38.6959C31.5457 37.8264 32 36.6326 32 35.1144V4.90511C32 3.38686 31.5457 2.19303 30.637 1.3236C29.7284 0.4412 28.4774 0 26.884 0H13.116C11.5358 0 10.2848 0.4412 9.36296 1.3236C8.45432 2.19303 8 3.38686 8 4.90511V35.1144C8 36.6326 8.45432 37.8264 9.36296 38.6959C10.2848 39.5653 11.5358 40 13.116 40ZM13.4123 37.6448C12.4115 37.6448 11.6609 37.4047 11.1605 36.9246C10.6601 36.4444 10.4099 35.7307 10.4099 34.7835V5.23601C10.4099 4.27575 10.6601 3.56204 11.1605 3.09489C11.6609 2.61476 12.4115 2.3747 13.4123 2.3747H26.6074C27.6082 2.3747 28.3523 2.61476 28.8395 3.09489C29.3399 3.56204 29.5901 4.27575 29.5901 5.23601V34.7835C29.5901 35.7307 29.3399 36.4444 28.8395 36.9246C28.3523 37.4047 27.6082 37.6448 26.6074 37.6448H13.4123ZM14.084 34.7835H15.9012C16.4016 34.7835 16.6519 34.5564 16.6519 34.1022V32.253C16.6519 31.7859 16.4016 31.5523 15.9012 31.5523H14.084C13.6099 31.5523 13.3728 31.7859 13.3728 32.253V34.1022C13.3728 34.5564 13.6099 34.7835 14.084 34.7835ZM19.042 34.7835H20.879C21.3794 34.7835 21.6296 34.5564 21.6296 34.1022V32.253C21.6296 31.7859 21.3794 31.5523 20.879 31.5523H19.042C18.5811 31.5523 18.3506 31.7859 18.3506 32.253V34.1022C18.3506 34.5564 18.5811 34.7835 19.042 34.7835ZM24.0395 34.7835H25.837C26.3506 34.7835 26.6074 34.5564 26.6074 34.1022V32.253C26.6074 31.7859 26.3506 31.5523 25.837 31.5523H24.0395C23.5654 31.5523 23.3284 31.7859 23.3284 32.253V34.1022C23.3284 34.5564 23.5654 34.7835 24.0395 34.7835ZM14.084 19.0949H15.9012C16.4016 19.0949 16.6519 18.8613 16.6519 18.3942V16.5645C16.6519 16.0973 16.4016 15.8637 15.9012 15.8637H14.084C13.6099 15.8637 13.3728 16.0973 13.3728 16.5645V18.3942C13.3728 18.8613 13.6099 19.0949 14.084 19.0949ZM19.042 19.0949H20.879C21.3794 19.0949 21.6296 18.8613 21.6296 18.3942V16.5645C21.6296 16.0973 21.3794 15.8637 20.879 15.8637H19.042C18.5811 15.8637 18.3506 16.0973 18.3506 16.5645V18.3942C18.3506 18.8613 18.5811 19.0949 19.042 19.0949ZM14.084 13.9173H15.9012C16.4016 13.9173 16.6519 13.6902 16.6519 13.236V11.3869C16.6519 10.9197 16.4016 10.6861 15.9012 10.6861H14.084C13.6099 10.6861 13.3728 10.9197 13.3728 11.3869V13.236C13.3728 13.6902 13.6099 13.9173 14.084 13.9173ZM19.042 13.9173H20.879C21.3794 13.9173 21.6296 13.6902 21.6296 13.236V11.3869C21.6296 10.9197 21.3794 10.6861 20.879 10.6861H19.042C18.5811 10.6861 18.3506 10.9197 18.3506 11.3869V13.236C18.3506 13.6902 18.5811 13.9173 19.042 13.9173ZM24.0395 13.9173H25.837C26.3506 13.9173 26.6074 13.6902 26.6074 13.236V11.3869C26.6074 10.9197 26.3506 10.6861 25.837 10.6861H24.0395C23.5654 10.6861 23.3284 10.9197 23.3284 11.3869V13.236C23.3284 13.6902 23.5654 13.9173 24.0395 13.9173ZM14.084 8.75912H15.9012C16.4016 8.75912 16.6519 8.52555 16.6519 8.05839V6.20925C16.6519 5.74209 16.4016 5.50852 15.9012 5.50852H14.084C13.6099 5.50852 13.3728 5.74209 13.3728 6.20925V8.05839C13.3728 8.52555 13.6099 8.75912 14.084 8.75912ZM19.042 8.75912H20.879C21.3794 8.75912 21.6296 8.52555 21.6296 8.05839V6.20925C21.6296 5.74209 21.3794 5.50852 20.879 5.50852H19.042C18.5811 5.50852 18.3506 5.74209 18.3506 6.20925V8.05839C18.3506 8.52555 18.5811 8.75912 19.042 8.75912ZM24.0395 8.75912H25.837C26.3506 8.75912 26.6074 8.52555 26.6074 8.05839V6.20925C26.6074 5.74209 26.3506 5.50852 25.837 5.50852H24.0395C23.5654 5.50852 23.3284 5.74209 23.3284 6.20925V8.05839C23.3284 8.52555 23.5654 8.75912 24.0395 8.75912Z" fill="#D10071"/>
</svg>
