<svg width="31" height="51" viewBox="0 0 31 51" fill="none" xmlns="http://www.w3.org/2000/svg">
<path d="M6.67383 50.4463H23.666C25.6517 50.4463 27.2061 49.901 28.3291 48.8105C29.4521 47.7201 30.0137 46.2227 30.0137 44.3184V6.42773C30.0137 4.52344 29.4521 3.02604 28.3291 1.93555C27.2061 0.828776 25.6517 0.275391 23.666 0.275391H6.67383C4.7207 0.275391 3.17448 0.828776 2.03516 1.93555C0.912109 3.02604 0.350586 4.52344 0.350586 6.42773V44.3184C0.350586 46.2227 0.912109 47.7201 2.03516 48.8105C3.17448 49.901 4.7207 50.4463 6.67383 50.4463ZM7.04004 47.4922C5.80306 47.4922 4.87533 47.1911 4.25684 46.5889C3.63835 45.9867 3.3291 45.0915 3.3291 43.9033V6.84277C3.3291 5.63835 3.63835 4.74316 4.25684 4.15723C4.87533 3.55501 5.80306 3.25391 7.04004 3.25391H23.3486C24.5693 3.25391 25.4889 3.55501 26.1074 4.15723C26.7259 4.74316 27.0352 5.63835 27.0352 6.84277V43.9033C27.0352 45.0915 26.7259 45.9867 26.1074 46.5889C25.4889 47.1911 24.5693 47.4922 23.3486 47.4922H7.04004ZM10.1406 45.7832H20.248C20.5247 45.7832 20.7526 45.6937 20.9316 45.5146C21.1107 45.3356 21.2002 45.0996 21.2002 44.8066C21.2002 44.5299 21.1107 44.3021 20.9316 44.123C20.7526 43.9603 20.5247 43.8789 20.248 43.8789H10.1406C9.86393 43.8789 9.62793 43.9603 9.43262 44.123C9.25358 44.3021 9.16406 44.5299 9.16406 44.8066C9.16406 45.0996 9.25358 45.3356 9.43262 45.5146C9.62793 45.6937 9.86393 45.7832 10.1406 45.7832ZM12.3379 8.16113H18.0264C18.4333 8.16113 18.7751 8.02279 19.0518 7.74609C19.3285 7.4694 19.4668 7.11947 19.4668 6.69629C19.4668 6.30566 19.3285 5.97201 19.0518 5.69531C18.7751 5.41862 18.4333 5.28027 18.0264 5.28027H12.3379C11.931 5.28027 11.5892 5.41862 11.3125 5.69531C11.0358 5.97201 10.8975 6.30566 10.8975 6.69629C10.8975 7.11947 11.0358 7.4694 11.3125 7.74609C11.5892 8.02279 11.931 8.16113 12.3379 8.16113Z" fill="#FFDB6F"/>
</svg>
