<svg width="263" height="221" viewBox="0 0 263 221" fill="none" xmlns="http://www.w3.org/2000/svg">
<path d="M247.22 0H15.78C11.5963 0.00467609 7.58533 1.66931 4.62702 4.6287C1.66871 7.58808 0.00467439 11.6005 2.68896e-10 15.7857V205.216C-1.20969e-05 207.289 0.408151 209.341 1.20118 211.256C1.99421 213.171 3.15658 214.912 4.62191 216.377C6.08724 217.843 7.82683 219.006 9.74134 219.799C11.6559 220.592 13.7078 221 15.78 221L33.3874 220.998C34.3823 220.998 35.3568 220.716 36.1978 220.184C37.0388 219.652 37.7118 218.893 38.1389 217.994C43.6888 206.297 52.4416 196.416 63.381 189.497C74.3204 182.578 86.9974 178.905 99.94 178.905C112.883 178.905 125.56 182.578 136.499 189.497C147.438 196.416 156.191 206.297 161.741 217.994C162.168 218.893 162.841 219.652 163.682 220.184C164.523 220.716 165.498 220.998 166.493 220.998L247.22 221C251.404 220.995 255.415 219.331 258.373 216.371C261.331 213.412 262.995 209.399 263 205.214V15.7857C262.995 11.6005 261.331 7.58808 258.373 4.6287C255.415 1.66931 251.404 0.00467609 247.22 0V0ZM252.48 205.214C252.479 206.609 251.924 207.947 250.938 208.933C249.952 209.92 248.615 210.475 247.22 210.476L169.736 210.474C160.065 192.296 143.716 178.585 124.136 172.231C133.048 166.929 139.974 158.847 143.849 149.226C147.725 139.605 148.335 128.977 145.587 118.975C142.839 108.974 136.884 100.151 128.638 93.863C120.391 87.575 110.309 84.1694 99.94 84.1694C89.571 84.1694 79.4888 87.575 71.2423 93.863C62.9957 100.151 57.041 108.974 54.2929 118.975C51.5448 128.977 52.1553 139.605 56.0306 149.226C59.906 158.847 66.8318 166.929 75.7441 172.231C56.1636 178.585 39.8145 192.296 30.1436 210.475L15.78 210.476C14.3852 210.476 13.0476 209.922 12.0612 208.935C11.0748 207.949 10.5204 206.611 10.52 205.216V15.7857C10.5215 14.3906 11.0761 13.0531 12.0623 12.0666C13.0484 11.0802 14.3854 10.5253 15.78 10.5238H247.22C248.615 10.5253 249.952 11.0802 250.938 12.0666C251.924 13.0531 252.479 14.3906 252.48 15.7857V205.214ZM99.94 168.381C92.6577 168.381 85.5389 166.221 79.4839 162.173C73.4289 158.126 68.7096 152.374 65.9228 145.643C63.1359 138.913 62.4068 131.507 63.8275 124.362C65.2482 117.217 68.755 110.654 73.9043 105.503C79.0537 100.351 85.6144 96.8432 92.7568 95.422C99.8992 94.0008 107.302 94.7302 114.03 97.5181C120.758 100.306 126.509 105.027 130.555 111.084C134.601 117.141 136.76 124.263 136.76 131.548C136.749 141.313 132.866 150.675 125.964 157.581C119.061 164.486 109.702 168.37 99.94 168.381V168.381ZM220.92 47.3571V173.643C220.92 175.038 220.366 176.377 219.379 177.364C218.393 178.35 217.055 178.905 215.66 178.905H194.62C193.225 178.905 191.887 178.35 190.901 177.364C189.914 176.377 189.36 175.038 189.36 173.643C189.36 172.247 189.914 170.909 190.901 169.922C191.887 168.935 193.225 168.381 194.62 168.381H210.4V52.619H52.6V68.4048C52.6 69.8003 52.0458 71.1387 51.0594 72.1255C50.0729 73.1123 48.735 73.6667 47.34 73.6667C45.945 73.6667 44.6071 73.1123 43.6206 72.1255C42.6342 71.1387 42.08 69.8003 42.08 68.4048V47.3571C42.0801 45.9616 42.6343 44.6233 43.6207 43.6365C44.6071 42.6497 45.945 42.0953 47.34 42.0952H215.66C217.055 42.0953 218.393 42.6497 219.379 43.6365C220.366 44.6233 220.92 45.9616 220.92 47.3571V47.3571Z" fill="#FFDB6F"/>
</svg>
