<svg width="47" height="47" viewBox="0 0 47 47" fill="none" xmlns="http://www.w3.org/2000/svg">
<path d="M1.71294 19.6621C1.15955 19.9062 0.744513 20.2318 0.46782 20.6387C0.207404 21.0456 0.0609193 21.4688 0.0283673 21.9082C0.0120912 22.3477 0.101609 22.7627 0.296922 23.1533C0.50851 23.5439 0.809617 23.8695 1.20024 24.1299C1.60714 24.374 2.10356 24.4961 2.6895 24.4961L21.6592 24.5693C21.7894 24.5693 21.879 24.5938 21.9278 24.6426C21.9766 24.6914 22.001 24.7809 22.001 24.9111L22.0499 43.7588C22.0499 44.361 22.1719 44.8656 22.4161 45.2725C22.6765 45.6794 23.0101 45.9723 23.417 46.1514C23.8239 46.3304 24.2553 46.3955 24.711 46.3467C25.1667 46.3141 25.598 46.1432 26.0049 45.834C26.4118 45.541 26.7374 45.1341 26.9815 44.6133L45.7071 4.57422C46.0489 3.8418 46.1791 3.18262 46.0977 2.59668C46.0163 1.99447 45.7803 1.51432 45.3897 1.15625C44.9991 0.781901 44.4945 0.570312 43.876 0.521484C43.2738 0.45638 42.6146 0.594727 41.8985 0.936523L1.71294 19.6621ZM4.71587 21.6396C4.63449 21.6396 4.58566 21.6152 4.56938 21.5664C4.56938 21.5013 4.61007 21.4525 4.69145 21.4199L42.3135 3.98828C42.4275 3.93945 42.517 3.93945 42.5821 3.98828C42.6472 4.03711 42.6472 4.12663 42.5821 4.25684L25.0772 41.8545C25.0446 41.9196 25.004 41.944 24.9551 41.9277C24.9063 41.9115 24.8819 41.8708 24.8819 41.8057L24.9551 23.1045C24.9551 22.6325 24.8168 22.2581 24.5401 21.9814C24.2634 21.7048 23.8809 21.5664 23.3926 21.5664L4.71587 21.6396Z" fill="#FFDB6F"/>
</svg>
