<svg width="1991" height="574" viewBox="0 0 1991 574" fill="none" xmlns="http://www.w3.org/2000/svg">
<path d="M42 483V205.4H120.4V483H42ZM0 350.2V286.2H162.4V350.2H0Z" fill="white"/>
<path d="M309.169 483V372.6C309.169 364.867 306.902 359 302.369 355C298.102 350.733 292.635 348.6 285.969 348.6C281.435 348.6 277.302 349.533 273.569 351.4C270.102 353.267 267.302 356.067 265.169 359.8C263.302 363.267 262.369 367.533 262.369 372.6L231.969 359C231.969 343 235.169 329.267 241.569 317.8C248.235 306.333 257.302 297.533 268.769 291.4C280.502 285.267 294.102 282.2 309.569 282.2C325.569 282.2 339.435 285.4 351.169 291.8C362.902 297.933 371.835 306.467 377.969 317.4C384.369 328.067 387.569 340.467 387.569 354.6V483H309.169ZM183.969 483V190.2H262.369V483H183.969Z" fill="white"/>
<path d="M503.078 487C484.678 487 468.411 482.6 454.278 473.8C440.145 465 429.078 453 421.078 437.8C413.078 422.333 409.078 404.6 409.078 384.6C409.078 364.6 413.078 346.867 421.078 331.4C429.078 315.933 440.145 303.933 454.278 295.4C468.411 286.6 484.678 282.2 503.078 282.2C514.545 282.2 525.078 284.2 534.678 288.2C544.545 291.933 552.678 297.267 559.078 304.2C565.745 311.133 570.011 319.133 571.878 328.2V441C570.011 450.067 565.745 458.067 559.078 465C552.678 471.933 544.545 477.4 534.678 481.4C525.078 485.133 514.545 487 503.078 487ZM520.678 418.2C530.545 418.2 538.411 415.133 544.278 409C550.411 402.6 553.478 394.467 553.478 384.6C553.478 377.933 552.145 372.2 549.478 367.4C546.811 362.333 542.945 358.333 537.878 355.4C533.078 352.467 527.478 351 521.078 351C514.678 351 508.945 352.467 503.878 355.4C499.078 358.333 495.211 362.333 492.278 367.4C489.345 372.467 487.878 378.2 487.878 384.6C487.878 391 489.211 396.733 491.878 401.8C494.811 406.867 498.811 410.867 503.878 413.8C508.945 416.733 514.545 418.2 520.678 418.2ZM551.078 483V430.2L561.878 382.2L551.078 334.6V286.2H627.478V483H551.078Z" fill="white"/>
<path d="M691.219 483V205.4H769.619V483H691.219ZM649.219 350.2V286.2H942.019V350.2H649.219ZM821.619 483V205.4H900.019V483H821.619Z" fill="white"/>
<path d="M963.256 483V286.2H1041.66V483H963.256ZM1002.46 267.8C990.99 267.8 981.39 263.933 973.656 256.2C966.19 248.2 962.456 238.467 962.456 227C962.456 215.533 966.19 205.933 973.656 198.2C981.39 190.2 990.99 186.2 1002.46 186.2C1014.19 186.2 1023.79 190.2 1031.26 198.2C1038.72 205.933 1042.46 215.533 1042.46 227C1042.46 238.467 1038.72 248.2 1031.26 256.2C1023.79 263.933 1014.19 267.8 1002.46 267.8Z" fill="white"/>
<path d="M1078.89 483V286.2H1157.29V483H1078.89ZM1200.09 483V370.2C1200.09 363.533 1198.09 358.333 1194.09 354.6C1190.09 350.6 1185.02 348.6 1178.89 348.6C1174.62 348.6 1170.76 349.533 1167.29 351.4C1164.09 353 1161.56 355.4 1159.69 358.6C1158.09 361.8 1157.29 365.667 1157.29 370.2L1126.89 359C1126.89 343 1130.36 329.267 1137.29 317.8C1144.49 306.333 1154.09 297.533 1166.09 291.4C1178.09 285.267 1191.69 282.2 1206.89 282.2C1220.22 282.2 1232.22 285.4 1242.89 291.8C1253.82 298.2 1262.49 307.133 1268.89 318.6C1275.29 329.8 1278.49 343.133 1278.49 358.6V483H1200.09ZM1321.29 483V370.2C1321.29 363.533 1319.29 358.333 1315.29 354.6C1311.29 350.6 1306.22 348.6 1300.09 348.6C1295.82 348.6 1291.96 349.533 1288.49 351.4C1285.29 353 1282.76 355.4 1280.89 358.6C1279.29 361.8 1278.49 365.667 1278.49 370.2L1232.49 370.6C1232.49 352.2 1236.09 336.467 1243.29 323.4C1250.76 310.067 1261.02 299.933 1274.09 293C1287.16 285.8 1302.09 282.2 1318.89 282.2C1334.62 282.2 1348.49 285.533 1360.49 292.2C1372.76 298.867 1382.36 308.467 1389.29 321C1396.22 333.533 1399.69 348.6 1399.69 366.2V483H1321.29Z" fill="white"/>
<path d="M1476 487.8C1463.46 487.8 1453.06 483.533 1444.8 475C1436.53 466.467 1432.4 456.067 1432.4 443.8C1432.4 431.267 1436.53 420.733 1444.8 412.2C1453.06 403.667 1463.46 399.4 1476 399.4C1488.53 399.4 1498.8 403.667 1506.8 412.2C1515.06 420.733 1519.2 431.267 1519.2 443.8C1519.2 456.067 1515.06 466.467 1506.8 475C1498.8 483.533 1488.53 487.8 1476 487.8Z" fill="white"/>
<path d="M1637.12 573.4C1614.99 573.4 1595.39 569.667 1578.32 562.2C1561.25 555 1548.05 544.733 1538.72 531.4L1585.12 485.4C1591.25 492.067 1598.05 497.267 1605.52 501C1612.99 505 1622.05 507 1632.72 507C1645.52 507 1655.52 503.933 1662.72 497.8C1670.19 491.667 1673.92 482.733 1673.92 471V419L1686.72 376.6L1675.92 334.6V286.2H1752.32V467.8C1752.32 489.4 1747.25 508.067 1737.12 523.8C1726.99 539.533 1713.25 551.667 1695.92 560.2C1678.59 569 1658.99 573.4 1637.12 573.4ZM1633.52 475C1615.12 475 1598.85 470.733 1584.72 462.2C1570.59 453.667 1559.52 442.067 1551.52 427.4C1543.52 412.733 1539.52 396.467 1539.52 378.6C1539.52 360.467 1543.52 344.2 1551.52 329.8C1559.52 315.133 1570.59 303.533 1584.72 295C1598.85 286.467 1615.12 282.2 1633.52 282.2C1644.99 282.2 1655.52 284.2 1665.12 288.2C1674.99 291.933 1683.12 297.267 1689.52 304.2C1696.19 311.133 1700.45 319.133 1702.32 328.2V429C1700.45 438.067 1696.19 446.067 1689.52 453C1683.12 459.933 1674.99 465.4 1665.12 469.4C1655.52 473.133 1644.99 475 1633.52 475ZM1647.92 408.2C1654.32 408.2 1659.79 406.733 1664.32 403.8C1668.85 400.867 1672.32 397.133 1674.72 392.6C1677.12 388.067 1678.32 383.267 1678.32 378.2C1678.32 373.133 1677.12 368.333 1674.72 363.8C1672.32 359.267 1668.85 355.533 1664.32 352.6C1660.05 349.667 1654.72 348.2 1648.32 348.2C1642.19 348.2 1636.85 349.667 1632.32 352.6C1627.79 355.533 1624.32 359.4 1621.92 364.2C1619.52 368.733 1618.32 373.4 1618.32 378.2C1618.32 382.733 1619.52 387.4 1621.92 392.2C1624.32 396.733 1627.65 400.6 1631.92 403.8C1636.45 406.733 1641.79 408.2 1647.92 408.2Z" fill="white"/>
<path d="M1891.84 487.8C1868.9 487.8 1848.77 483.533 1831.44 475C1814.1 466.2 1800.5 454.067 1790.64 438.6C1781.04 422.867 1776.24 404.867 1776.24 384.6C1776.24 364.6 1780.9 346.867 1790.24 331.4C1799.84 315.933 1812.9 303.8 1829.44 295C1845.97 285.933 1864.64 281.4 1885.44 281.4C1905.97 281.4 1924.1 285.667 1939.84 294.2C1955.57 302.467 1967.84 314.067 1976.64 329C1985.7 343.933 1990.24 361 1990.24 380.2C1990.24 384.2 1989.97 388.467 1989.44 393C1989.17 397.267 1988.37 402.333 1987.04 408.2L1809.44 409.4V361.4L1957.84 360.2L1921.44 381.4C1921.44 370.733 1920.1 362.067 1917.44 355.4C1915.04 348.467 1911.3 343.267 1906.24 339.8C1901.17 336.333 1894.77 334.6 1887.04 334.6C1879.04 334.6 1872.1 336.6 1866.24 340.6C1860.37 344.6 1855.84 350.333 1852.64 357.8C1849.7 365.267 1848.24 374.333 1848.24 385C1848.24 395.933 1849.84 405.133 1853.04 412.6C1856.5 419.8 1861.44 425.267 1867.84 429C1874.24 432.733 1882.24 434.6 1891.84 434.6C1901.17 434.6 1909.3 433.133 1916.24 430.2C1923.44 427 1929.97 422.067 1935.84 415.4L1975.04 454.2C1965.17 465.4 1953.3 473.8 1939.44 479.4C1925.57 485 1909.7 487.8 1891.84 487.8Z" fill="white"/>
<path d="M23.5202 159.72V129.36H62.0202C71.4069 129.36 79.6202 127.527 86.6602 123.86C93.7002 120.047 99.1269 114.547 102.94 107.36C106.754 100.173 108.66 91.6667 108.66 81.84C108.66 72.0133 106.68 63.58 102.72 56.54C98.9069 49.5 93.4802 44.0733 86.4402 40.26C79.5469 36.4467 71.4069 34.54 62.0202 34.54H22.4202V4.4H62.4602C74.1935 4.4 84.9735 6.30666 94.8002 10.12C104.774 13.7867 113.427 19.14 120.76 26.18C128.24 33.0733 133.96 41.2867 137.92 50.82C142.027 60.2067 144.08 70.62 144.08 82.06C144.08 93.3533 142.027 103.767 137.92 113.3C133.96 122.833 128.314 131.047 120.98 137.94C113.647 144.833 104.994 150.187 95.0202 154C85.1935 157.813 74.4869 159.72 62.9002 159.72H23.5202ZM0.200195 159.72V4.4H34.7402V159.72H0.200195Z" fill="white"/>
<path d="M215.78 162.14C204.193 162.14 193.853 159.793 184.76 155.1C175.813 150.26 168.773 143.587 163.64 135.08C158.506 126.573 155.94 116.967 155.94 106.26C155.94 95.5533 158.433 86.02 163.42 77.66C168.553 69.1533 175.446 62.48 184.1 57.64C192.753 52.8 202.506 50.38 213.36 50.38C223.92 50.38 233.233 52.6533 241.3 57.2C249.366 61.7467 255.673 68.0533 260.22 76.12C264.913 84.1867 267.26 93.4267 267.26 103.84C267.26 105.747 267.113 107.8 266.82 110C266.673 112.053 266.306 114.473 265.72 117.26L173.54 117.48V94.38L251.42 94.16L236.9 103.84C236.753 97.68 235.8 92.62 234.04 88.66C232.28 84.5533 229.64 81.4733 226.12 79.42C222.746 77.22 218.566 76.12 213.58 76.12C208.3 76.12 203.68 77.3667 199.72 79.86C195.906 82.2067 192.9 85.58 190.7 89.98C188.646 94.38 187.62 99.7333 187.62 106.04C187.62 112.347 188.72 117.773 190.92 122.32C193.266 126.72 196.493 130.167 200.6 132.66C204.853 135.007 209.84 136.18 215.56 136.18C220.84 136.18 225.606 135.3 229.86 133.54C234.113 131.633 237.853 128.847 241.08 125.18L259.56 143.66C254.28 149.82 247.9 154.44 240.42 157.52C232.94 160.6 224.726 162.14 215.78 162.14Z" fill="white"/>
<path d="M322.447 162.36C316.14 162.36 309.907 161.553 303.747 159.94C297.734 158.327 292.087 156.053 286.807 153.12C281.674 150.04 277.274 146.52 273.607 142.56L292.747 123.2C296.267 127.013 300.447 130.02 305.287 132.22C310.127 134.273 315.407 135.3 321.127 135.3C325.087 135.3 328.094 134.713 330.147 133.54C332.347 132.367 333.447 130.753 333.447 128.7C333.447 126.06 332.127 124.08 329.487 122.76C326.994 121.293 323.767 120.047 319.807 119.02C315.847 117.847 311.667 116.6 307.267 115.28C302.867 113.96 298.687 112.127 294.727 109.78C290.767 107.433 287.54 104.207 285.047 100.1C282.554 95.8467 281.307 90.4933 281.307 84.04C281.307 77.1467 283.067 71.2067 286.587 66.22C290.107 61.0867 295.094 57.0533 301.547 54.12C308 51.1867 315.554 49.72 324.207 49.72C333.3 49.72 341.66 51.3333 349.287 54.56C357.06 57.64 363.367 62.26 368.207 68.42L349.067 87.78C345.694 83.82 341.88 81.0333 337.627 79.42C333.52 77.8067 329.487 77 325.527 77C321.714 77 318.854 77.5867 316.947 78.76C315.04 79.7867 314.087 81.3267 314.087 83.38C314.087 85.58 315.334 87.34 317.827 88.66C320.32 89.98 323.547 91.1533 327.507 92.18C331.467 93.2067 335.647 94.4533 340.047 95.92C344.447 97.3867 348.627 99.3667 352.587 101.86C356.547 104.353 359.774 107.727 362.267 111.98C364.76 116.087 366.007 121.513 366.007 128.26C366.007 138.673 362.047 146.96 354.127 153.12C346.354 159.28 335.794 162.36 322.447 162.36Z" fill="white"/>
<path d="M384.269 159.72V52.8H417.929V159.72H384.269ZM401.209 38.06C395.929 38.06 391.529 36.3 388.009 32.78C384.635 29.1133 382.949 24.7133 382.949 19.58C382.949 14.3 384.635 9.89999 388.009 6.38C391.529 2.86 395.929 1.1 401.209 1.1C406.489 1.1 410.815 2.86 414.189 6.38C417.562 9.89999 419.249 14.3 419.249 19.58C419.249 24.7133 417.562 29.1133 414.189 32.78C410.815 36.3 406.489 38.06 401.209 38.06Z" fill="white"/>
<path d="M486.952 207.68C475.219 207.68 464.879 205.627 455.932 201.52C447.132 197.56 440.165 191.913 435.032 184.58L455.712 163.9C459.525 168.447 463.779 171.893 468.472 174.24C473.312 176.587 479.105 177.76 485.852 177.76C494.212 177.76 500.739 175.707 505.432 171.6C510.272 167.493 512.692 161.7 512.692 154.22V126.94L518.412 103.62L513.352 80.3V52.8H546.352V153.34C546.352 164.34 543.785 173.873 538.652 181.94C533.519 190.007 526.479 196.313 517.532 200.86C508.585 205.407 498.392 207.68 486.952 207.68ZM485.412 156.42C475.585 156.42 466.859 154.073 459.232 149.38C451.605 144.687 445.592 138.307 441.192 130.24C436.792 122.173 434.592 113.227 434.592 103.4C434.592 93.4267 436.792 84.48 441.192 76.56C445.592 68.4933 451.605 62.1867 459.232 57.64C466.859 52.9467 475.585 50.6 485.412 50.6C492.745 50.6 499.272 51.9933 504.992 54.78C510.859 57.42 515.552 61.2333 519.072 66.22C522.739 71.06 524.792 76.7067 525.232 83.16V123.86C524.792 130.167 522.739 135.813 519.072 140.8C515.552 145.64 510.859 149.453 504.992 152.24C499.125 155.027 492.599 156.42 485.412 156.42ZM491.792 126.5C496.485 126.5 500.519 125.473 503.892 123.42C507.412 121.367 510.052 118.653 511.812 115.28C513.719 111.76 514.672 107.8 514.672 103.4C514.672 99 513.719 95.04 511.812 91.52C510.052 88 507.412 85.2133 503.892 83.16C500.519 81.1067 496.485 80.08 491.792 80.08C487.245 80.08 483.212 81.1067 479.692 83.16C476.172 85.2133 473.459 88 471.552 91.52C469.645 95.04 468.692 99 468.692 103.4C468.692 107.507 469.645 111.393 471.552 115.06C473.459 118.58 476.099 121.367 479.472 123.42C482.992 125.473 487.099 126.5 491.792 126.5Z" fill="white"/>
<path d="M640.728 159.72V98.78C640.728 93.2067 638.968 88.7333 635.448 85.36C632.075 81.84 627.749 80.08 622.469 80.08C618.802 80.08 615.575 80.8867 612.788 82.5C610.002 83.9667 607.802 86.1667 606.188 89.1C604.575 91.8867 603.768 95.1133 603.768 98.78L590.788 92.4C590.788 84.04 592.622 76.7067 596.288 70.4C599.955 64.0933 605.015 59.2533 611.469 55.88C618.069 52.36 625.475 50.6 633.688 50.6C641.608 50.6 648.575 52.5067 654.589 56.32C660.749 59.9867 665.588 64.9 669.108 71.06C672.628 77.22 674.388 83.9667 674.388 91.3V159.72H640.728ZM570.108 159.72V52.8H603.768V159.72H570.108Z" fill="white"/>
<path d="M748.807 162.14C737.22 162.14 726.88 159.793 717.787 155.1C708.84 150.26 701.8 143.587 696.667 135.08C691.534 126.573 688.967 116.967 688.967 106.26C688.967 95.5533 691.46 86.02 696.447 77.66C701.58 69.1533 708.474 62.48 717.127 57.64C725.78 52.8 735.534 50.38 746.387 50.38C756.947 50.38 766.26 52.6533 774.327 57.2C782.394 61.7467 788.7 68.0533 793.247 76.12C797.94 84.1867 800.287 93.4267 800.287 103.84C800.287 105.747 800.14 107.8 799.847 110C799.7 112.053 799.334 114.473 798.747 117.26L706.567 117.48V94.38L784.447 94.16L769.927 103.84C769.78 97.68 768.827 92.62 767.067 88.66C765.307 84.5533 762.667 81.4733 759.147 79.42C755.774 77.22 751.594 76.12 746.607 76.12C741.327 76.12 736.707 77.3667 732.747 79.86C728.934 82.2067 725.927 85.58 723.727 89.98C721.674 94.38 720.647 99.7333 720.647 106.04C720.647 112.347 721.747 117.773 723.947 122.32C726.294 126.72 729.52 130.167 733.627 132.66C737.88 135.007 742.867 136.18 748.587 136.18C753.867 136.18 758.634 135.3 762.887 133.54C767.14 131.633 770.88 128.847 774.107 125.18L792.587 143.66C787.307 149.82 780.927 154.44 773.447 157.52C765.967 160.6 757.754 162.14 748.807 162.14Z" fill="white"/>
<path d="M862.074 161.92C851.954 161.92 842.934 159.5 835.014 154.66C827.241 149.82 821.081 143.22 816.534 134.86C812.134 126.5 809.934 116.967 809.934 106.26C809.934 95.5533 812.134 86.02 816.534 77.66C821.081 69.3 827.241 62.7 835.014 57.86C842.934 53.02 851.954 50.6 862.074 50.6C869.408 50.6 876.008 51.9933 881.874 54.78C887.888 57.5667 892.801 61.4533 896.614 66.44C900.574 71.28 902.774 76.8533 903.214 83.16V128.26C902.774 134.567 900.648 140.287 896.834 145.42C893.021 150.407 888.108 154.44 882.094 157.52C876.081 160.453 869.408 161.92 862.074 161.92ZM868.014 131.56C872.854 131.56 877.034 130.533 880.554 128.48C884.074 126.28 886.861 123.273 888.914 119.46C890.968 115.647 891.994 111.247 891.994 106.26C891.994 101.273 890.968 96.9467 888.914 93.28C887.008 89.4667 884.221 86.46 880.554 84.26C877.034 82.06 872.928 80.96 868.234 80.96C863.541 80.96 859.361 82.06 855.694 84.26C852.174 86.46 849.314 89.4667 847.114 93.28C845.061 97.0933 844.034 101.42 844.034 106.26C844.034 111.1 845.061 115.427 847.114 119.24C849.168 123.053 852.028 126.06 855.694 128.26C859.361 130.46 863.468 131.56 868.014 131.56ZM923.674 159.72H890.674V130.9L895.734 104.94L890.014 78.98V0H923.674V159.72Z" fill="white"/>
<path d="M1050.87 161.92C1043.68 161.92 1037.08 160.453 1031.07 157.52C1025.06 154.44 1020.14 150.407 1016.33 145.42C1012.52 140.287 1010.32 134.567 1009.73 128.26V83.16C1010.32 76.8533 1012.52 71.28 1016.33 66.44C1020.14 61.4533 1025.06 57.5667 1031.07 54.78C1037.08 51.9933 1043.68 50.6 1050.87 50.6C1060.99 50.6 1069.94 53.02 1077.71 57.86C1085.63 62.7 1091.79 69.3 1096.19 77.66C1100.74 86.02 1103.01 95.5533 1103.01 106.26C1103.01 116.967 1100.74 126.5 1096.19 134.86C1091.79 143.22 1085.63 149.82 1077.71 154.66C1069.94 159.5 1060.99 161.92 1050.87 161.92ZM1044.93 131.56C1049.62 131.56 1053.73 130.46 1057.25 128.26C1060.92 126.06 1063.78 123.053 1065.83 119.24C1067.88 115.427 1068.91 111.1 1068.91 106.26C1068.91 101.273 1067.88 96.8733 1065.83 93.06C1063.78 89.2467 1060.92 86.3133 1057.25 84.26C1053.73 82.06 1049.62 80.96 1044.93 80.96C1040.24 80.96 1036.06 82.06 1032.39 84.26C1028.72 86.3133 1025.86 89.2467 1023.81 93.06C1021.9 96.8733 1020.95 101.273 1020.95 106.26C1020.95 111.247 1021.98 115.647 1024.03 119.46C1026.08 123.273 1028.87 126.28 1032.39 128.48C1036.06 130.533 1040.24 131.56 1044.93 131.56ZM989.269 159.72V0H1022.93V78.98L1017.43 104.94L1022.49 130.9V159.72H989.269Z" fill="white"/>
<path d="M1150.1 160.16L1106.1 52.8H1142.4L1170.34 137.94H1156.92L1185.52 52.8H1221.82L1176.06 160.16H1150.1ZM1122.6 204.82L1154.72 135.52L1176.06 160.16L1157.14 204.82H1122.6Z" fill="white"/>
</svg>
