<svg width="286" height="251" viewBox="0 0 286 251" fill="none" xmlns="http://www.w3.org/2000/svg">
<path d="M255.357 137.893C240.203 137.893 227.619 148.96 225.175 163.429H204.286C187.389 163.429 173.643 177.167 173.643 194.054V250.25H183.857V194.054C183.857 182.8 193.022 173.643 204.286 173.643H225.175C227.618 188.111 240.203 199.179 255.357 199.179C272.254 199.179 286 185.433 286 168.536C286 151.639 272.254 137.893 255.357 137.893ZM255.357 188.964C244.093 188.964 234.929 179.799 234.929 168.536C234.929 157.272 244.093 148.107 255.357 148.107C266.621 148.107 275.786 157.272 275.786 168.536C275.786 179.799 266.621 188.964 255.357 188.964Z" fill="#FFDB6F"/>
<path d="M117.464 61.2857H97.0357C97.0357 44.3887 83.2898 30.6428 66.3929 30.6428C49.4959 30.6428 35.75 44.3887 35.75 61.2857C35.75 78.1827 49.4959 91.9285 66.3929 91.9285C79.7046 91.9285 91.0284 83.383 95.2482 71.5H117.464C128.728 71.5 137.893 80.6775 137.893 91.9592V250.25H148.107V91.9592C148.107 75.0456 134.361 61.2857 117.464 61.2857ZM66.3929 81.7143C55.1291 81.7143 45.9643 72.5495 45.9643 61.2857C45.9643 50.0219 55.1291 40.8571 66.3929 40.8571C77.6567 40.8571 86.8214 50.0219 86.8214 61.2857C86.8214 72.5495 77.6567 81.7143 66.3929 81.7143Z" fill="#FFDB6F"/>
<path d="M81.7143 137.893H60.8248C58.381 123.424 45.797 112.357 30.6429 112.357C13.7459 112.357 0 126.103 0 143C0 159.897 13.7459 173.643 30.6429 173.643C45.797 173.643 58.381 162.576 60.8248 148.107H81.7143C92.9781 148.107 102.143 157.28 102.143 168.554V250.25H112.357V168.554C112.357 151.649 98.6113 137.893 81.7143 137.893ZM30.6429 163.429C19.3791 163.429 10.2143 154.264 10.2143 143C10.2143 131.736 19.3791 122.571 30.6429 122.571C41.9067 122.571 51.0714 131.736 51.0714 143C51.0714 154.264 41.9067 163.429 30.6429 163.429Z" fill="#FFDB6F"/>
<path d="M208.705 102.143H225.175C227.618 116.611 240.203 127.679 255.357 127.679C272.254 127.679 286 113.933 286 97.0357C286 80.1387 272.254 66.3929 255.357 66.3929C240.203 66.3929 227.619 77.46 225.175 91.9286H208.705C200.665 91.9286 194.124 85.385 194.124 77.34V0H183.909V77.34C183.909 91.0157 195.032 102.143 208.705 102.143ZM255.357 76.6071C266.621 76.6071 275.786 85.7719 275.786 97.0357C275.786 108.3 266.621 117.464 255.357 117.464C244.093 117.464 234.929 108.3 234.929 97.0357C234.929 85.7719 244.093 76.6071 255.357 76.6071Z" fill="#FFDB6F"/>
</svg>
