<svg width="56" height="47" viewBox="0 0 56 47" fill="none" xmlns="http://www.w3.org/2000/svg">
<path d="M9.64941 8.82227H12.6035V46.6152H9.64941V8.82227ZM43.1211 8.82227H46.0996V46.6152H43.1211V8.82227ZM7.15918 46.6152H48.6143C50.9255 46.6152 52.6507 46.0456 53.79 44.9062C54.9456 43.7832 55.5234 42.0661 55.5234 39.7549V15.6582C55.5234 13.3633 54.9456 11.6543 53.79 10.5312C52.6507 9.39193 50.9255 8.82227 48.6143 8.82227H7.15918C4.84798 8.82227 3.11458 9.39193 1.95898 10.5312C0.803385 11.6543 0.225586 13.3633 0.225586 15.6582V39.7549C0.225586 42.0661 0.803385 43.7832 1.95898 44.9062C3.11458 46.0456 4.84798 46.6152 7.15918 46.6152ZM15.875 10.458H18.7559V5.86816C18.7559 4.92415 19.0326 4.19173 19.5859 3.6709C20.1556 3.13379 20.945 2.86523 21.9541 2.86523H33.7949C34.804 2.86523 35.5853 3.13379 36.1387 3.6709C36.6921 4.19173 36.9688 4.92415 36.9688 5.86816V10.4336H39.8496V6.03906C39.8496 4.06966 39.3206 2.59668 38.2627 1.62012C37.2048 0.627279 35.6911 0.130859 33.7217 0.130859H22.0029C20.1312 0.130859 18.6419 0.627279 17.5352 1.62012C16.4284 2.59668 15.875 4.06966 15.875 6.03906V10.458Z" fill="#FFDB6F"/>
</svg>
