<svg width="247" height="211" viewBox="0 0 247 211" fill="none" xmlns="http://www.w3.org/2000/svg">
<path d="M108.07 148.363C98.1094 148.363 93.1289 143.708 93.1289 134.398V127.172C83.5586 126.456 73.9557 125.284 64.3203 123.656C54.75 121.964 44.6914 119.62 34.1445 116.625C23.6628 113.63 12.3021 109.724 0.0625 104.906V78.2461C11.9115 83.9102 24.6719 88.6953 38.3438 92.6016C52.0156 96.4427 66.0456 99.3724 80.4336 101.391C94.8867 103.344 109.242 104.32 123.5 104.32C137.758 104.32 152.081 103.344 166.469 101.391C180.922 99.3724 194.984 96.4427 208.656 92.6016C222.328 88.6953 235.089 83.9102 246.938 78.2461V104.906C234.698 109.724 223.305 113.63 212.758 116.625C202.276 119.62 192.217 121.964 182.582 123.656C173.012 125.284 163.441 126.456 153.871 127.172V134.398C153.871 143.708 148.891 148.363 138.93 148.363H108.07ZM36.293 210.863H210.805C222.393 210.863 231.312 207.738 237.562 201.488C243.812 195.303 246.938 186.417 246.938 174.828V77.2695C246.938 65.681 243.812 56.7943 237.562 50.6094C231.312 44.3594 222.393 41.2344 210.805 41.2344H36.293C24.7044 41.2344 15.7526 44.3594 9.4375 50.6094C3.1875 56.7943 0.0625 65.681 0.0625 77.2695V174.828C0.0625 186.417 3.1875 195.303 9.4375 201.488C15.7526 207.738 24.7044 210.863 36.293 210.863ZM66.957 47.4844H93.2266V31.957C93.2266 29.1576 93.9753 27.0417 95.4727 25.6094C96.9701 24.112 99.1185 23.3633 101.918 23.3633H145.082C147.947 23.3633 150.095 24.112 151.527 25.6094C153.025 27.1068 153.773 29.2227 153.773 31.957V47.3867H180.043V28.4414C180.043 19.0013 177.341 11.9375 171.938 7.25C166.534 2.4974 158.656 0.121094 148.305 0.121094H98.5C88.2786 0.121094 80.4661 2.4974 75.0625 7.25C69.6589 11.9375 66.957 19.0013 66.957 28.4414V47.4844Z" fill="#80B3F9"/>
</svg>
