<svg width="248" height="212" viewBox="0 0 248 212" fill="none" xmlns="http://www.w3.org/2000/svg">
<path d="M108.902 148.808C98.9414 148.808 93.9609 144.153 93.9609 134.843V127.616C84.3906 126.9 74.7878 125.728 65.1523 124.101C55.582 122.408 45.5234 120.064 34.9766 117.069C24.4948 114.075 13.1341 110.168 0.894531 105.351V78.6904C12.7435 84.3545 25.5039 89.1396 39.1758 93.0459C52.8477 96.887 66.8776 99.8167 81.2656 101.835C95.7188 103.788 110.074 104.765 124.332 104.765C138.59 104.765 152.913 103.788 167.301 101.835C181.754 99.8167 195.816 96.887 209.488 93.0459C223.16 89.1396 235.921 84.3545 247.77 78.6904V105.351C235.53 110.168 224.137 114.075 213.59 117.069C203.108 120.064 193.049 122.408 183.414 124.101C173.844 125.728 164.273 126.9 154.703 127.616V134.843C154.703 144.153 149.723 148.808 139.762 148.808H108.902ZM37.125 211.308H211.637C223.225 211.308 232.145 208.183 238.395 201.933C244.645 195.748 247.77 186.861 247.77 175.272V77.7139C247.77 66.1253 244.645 57.2386 238.395 51.0537C232.145 44.8037 223.225 41.6787 211.637 41.6787H37.125C25.5365 41.6787 16.5846 44.8037 10.2695 51.0537C4.01953 57.2386 0.894531 66.1253 0.894531 77.7139V175.272C0.894531 186.861 4.01953 195.748 10.2695 201.933C16.5846 208.183 25.5365 211.308 37.125 211.308ZM67.7891 47.9287H94.0586V32.4014C94.0586 29.6019 94.8073 27.486 96.3047 26.0537C97.8021 24.5563 99.9505 23.8076 102.75 23.8076H145.914C148.779 23.8076 150.927 24.5563 152.359 26.0537C153.857 27.5511 154.605 29.667 154.605 32.4014V47.8311H180.875V28.8857C180.875 19.4456 178.173 12.3818 172.77 7.69434C167.366 2.94173 159.488 0.56543 149.137 0.56543H99.332C89.1107 0.56543 81.2982 2.94173 75.8945 7.69434C70.4909 12.3818 67.7891 19.4456 67.7891 28.8857V47.9287Z" fill="#29A6FF"/>
</svg>
