<svg width="232" height="219" viewBox="0 0 232 219" fill="none" xmlns="http://www.w3.org/2000/svg">
<path d="M0.277344 102.559V185.957C0.277344 189.603 1.05859 192.5 2.62109 194.648C4.18359 196.862 6.10417 198.457 8.38281 199.434C10.7266 200.41 12.9401 200.898 15.0234 200.898C17.1068 200.833 19.2552 200.312 21.4688 199.336C23.7474 198.424 25.668 196.862 27.2305 194.648C28.8581 192.5 29.6719 189.603 29.6719 185.957V71.2109H28.5C23.9427 71.2109 19.4831 72.3828 15.1211 74.7266C10.8242 77.0052 7.27604 80.4883 4.47656 85.1758C1.67708 89.7982 0.277344 95.5924 0.277344 102.559ZM40.1211 218.574H195.004C206.658 218.574 215.674 215.384 222.055 209.004C228.435 202.689 231.625 193.704 231.625 182.051V37.0312C231.625 25.4427 228.435 16.4583 222.055 10.0781C215.674 3.69792 206.658 0.507812 195.004 0.507812H85.3359C73.6172 0.507812 64.5677 3.69792 58.1875 10.0781C51.8073 16.4583 48.6172 25.4427 48.6172 37.0312V202.363C48.6172 206.595 47.9336 210.013 46.5664 212.617C45.2643 215.221 43.1159 217.207 40.1211 218.574ZM97.543 70.1367C95.1992 70.1367 93.2135 69.3555 91.5859 67.793C90.0234 66.1654 89.2422 64.2122 89.2422 61.9336C89.2422 59.6549 90.0234 57.7344 91.5859 56.1719C93.1484 54.6094 95.1341 53.8281 97.543 53.8281H182.797C185.141 53.8281 187.094 54.6094 188.656 56.1719C190.219 57.7344 191 59.6549 191 61.9336C191 64.2122 190.186 66.1654 188.559 67.793C186.996 69.3555 185.076 70.1367 182.797 70.1367H97.543ZM97.543 101.777C95.1341 101.777 93.1484 100.996 91.5859 99.4336C90.0234 97.8711 89.2422 95.9505 89.2422 93.6719C89.2422 91.3281 90.0234 89.375 91.5859 87.8125C93.2135 86.25 95.1992 85.4688 97.543 85.4688H182.797C185.076 85.4688 186.996 86.25 188.559 87.8125C190.186 89.375 191 91.3281 191 93.6719C191 95.9505 190.219 97.8711 188.656 99.4336C187.094 100.996 185.141 101.777 182.797 101.777H97.543ZM153.012 133.418C150.668 133.418 148.682 132.637 147.055 131.074C145.492 129.512 144.711 127.624 144.711 125.41C144.711 123.001 145.492 121.048 147.055 119.551C148.617 117.988 150.603 117.207 153.012 117.207H182.797C185.076 117.207 186.996 117.988 188.559 119.551C190.121 121.048 190.902 123.001 190.902 125.41C190.902 127.624 190.121 129.512 188.559 131.074C186.996 132.637 185.076 133.418 182.797 133.418H153.012ZM153.012 163.984C150.603 163.984 148.617 163.236 147.055 161.738C145.492 160.176 144.711 158.255 144.711 155.977C144.711 153.633 145.492 151.68 147.055 150.117C148.682 148.555 150.668 147.773 153.012 147.773H182.797C185.076 147.773 186.996 148.555 188.559 150.117C190.121 151.68 190.902 153.633 190.902 155.977C190.902 158.255 190.121 160.176 188.559 161.738C186.996 163.236 185.076 163.984 182.797 163.984H153.012ZM101.645 164.18C97.8034 164.18 94.7435 163.04 92.4648 160.762C90.2513 158.483 89.1445 155.456 89.1445 151.68V129.512C89.1445 125.736 90.2513 122.741 92.4648 120.527C94.7435 118.314 97.8034 117.207 101.645 117.207H121.859C125.701 117.207 128.728 118.314 130.941 120.527C133.22 122.741 134.359 125.736 134.359 129.512V151.68C134.359 155.456 133.22 158.483 130.941 160.762C128.728 163.04 125.701 164.18 121.859 164.18H101.645Z" fill="#80B3F9"/>
</svg>
