<svg width="233" height="219" viewBox="0 0 233 219" fill="none" xmlns="http://www.w3.org/2000/svg">
<path d="M0.832031 102.495V185.894C0.832031 189.539 1.61328 192.437 3.17578 194.585C4.73828 196.799 6.65885 198.394 8.9375 199.37C11.2812 200.347 13.4948 200.835 15.5781 200.835C17.6615 200.77 19.8099 200.249 22.0234 199.272C24.3021 198.361 26.2227 196.799 27.7852 194.585C29.4128 192.437 30.2266 189.539 30.2266 185.894V71.1475H29.0547C24.4974 71.1475 20.0378 72.3193 15.6758 74.6631C11.3789 76.9417 7.83073 80.4248 5.03125 85.1123C2.23177 89.7347 0.832031 95.529 0.832031 102.495ZM40.6758 218.511H195.559C207.212 218.511 216.229 215.321 222.609 208.94C228.99 202.625 232.18 193.641 232.18 181.987V36.9678C232.18 25.3792 228.99 16.3949 222.609 10.0146C216.229 3.63444 207.212 0.444336 195.559 0.444336H85.8906C74.1719 0.444336 65.1224 3.63444 58.7422 10.0146C52.362 16.3949 49.1719 25.3792 49.1719 36.9678V202.3C49.1719 206.532 48.4883 209.95 47.1211 212.554C45.819 215.158 43.6706 217.144 40.6758 218.511ZM98.0977 70.0732C95.7539 70.0732 93.7682 69.292 92.1406 67.7295C90.5781 66.1019 89.7969 64.1488 89.7969 61.8701C89.7969 59.5915 90.5781 57.6709 92.1406 56.1084C93.7031 54.5459 95.6888 53.7646 98.0977 53.7646H183.352C185.695 53.7646 187.648 54.5459 189.211 56.1084C190.773 57.6709 191.555 59.5915 191.555 61.8701C191.555 64.1488 190.741 66.1019 189.113 67.7295C187.551 69.292 185.63 70.0732 183.352 70.0732H98.0977ZM98.0977 101.714C95.6888 101.714 93.7031 100.933 92.1406 99.3701C90.5781 97.8076 89.7969 95.887 89.7969 93.6084C89.7969 91.2646 90.5781 89.3115 92.1406 87.749C93.7682 86.1865 95.7539 85.4053 98.0977 85.4053H183.352C185.63 85.4053 187.551 86.1865 189.113 87.749C190.741 89.3115 191.555 91.2646 191.555 93.6084C191.555 95.887 190.773 97.8076 189.211 99.3701C187.648 100.933 185.695 101.714 183.352 101.714H98.0977ZM153.566 133.354C151.223 133.354 149.237 132.573 147.609 131.011C146.047 129.448 145.266 127.56 145.266 125.347C145.266 122.938 146.047 120.985 147.609 119.487C149.172 117.925 151.158 117.144 153.566 117.144H183.352C185.63 117.144 187.551 117.925 189.113 119.487C190.676 120.985 191.457 122.938 191.457 125.347C191.457 127.56 190.676 129.448 189.113 131.011C187.551 132.573 185.63 133.354 183.352 133.354H153.566ZM153.566 163.921C151.158 163.921 149.172 163.172 147.609 161.675C146.047 160.112 145.266 158.192 145.266 155.913C145.266 153.569 146.047 151.616 147.609 150.054C149.237 148.491 151.223 147.71 153.566 147.71H183.352C185.63 147.71 187.551 148.491 189.113 150.054C190.676 151.616 191.457 153.569 191.457 155.913C191.457 158.192 190.676 160.112 189.113 161.675C187.551 163.172 185.63 163.921 183.352 163.921H153.566ZM102.199 164.116C98.3581 164.116 95.2982 162.977 93.0195 160.698C90.806 158.42 89.6992 155.392 89.6992 151.616V129.448C89.6992 125.672 90.806 122.677 93.0195 120.464C95.2982 118.25 98.3581 117.144 102.199 117.144H122.414C126.255 117.144 129.283 118.25 131.496 120.464C133.775 122.677 134.914 125.672 134.914 129.448V151.616C134.914 155.392 133.775 158.42 131.496 160.698C129.283 162.977 126.255 164.116 122.414 164.116H102.199Z" fill="#29A6FF"/>
</svg>
