<svg width="276" height="247" viewBox="0 0 276 247" fill="none" xmlns="http://www.w3.org/2000/svg">
<path d="M262.258 50.96L167.336 7.60059C161.802 5.12663 156.659 3.30371 151.906 2.13184C147.219 0.894857 142.694 0.308919 138.332 0.374023C133.97 0.308919 129.413 0.894857 124.66 2.13184C119.973 3.30371 114.862 5.12663 109.328 7.60059L14.4062 50.96C10.2396 52.848 6.95182 55.5173 4.54297 58.9678C2.13411 62.4183 0.929688 66.2269 0.929688 70.3936C0.929688 74.5602 2.13411 78.4014 4.54297 81.917C6.95182 85.3675 10.2396 87.9717 14.4062 89.7295L44.875 103.011L113.039 71.6631C112.909 71.2725 112.844 70.8493 112.844 70.3936C112.844 67.0732 114.048 64.2087 116.457 61.7998C118.931 59.3909 122.121 57.5029 126.027 56.1357C129.934 54.7686 134.068 54.085 138.43 54.085C142.792 54.085 146.893 54.7686 150.734 56.1357C154.641 57.4378 157.798 59.3258 160.207 61.7998C162.681 64.2087 163.918 67.0732 163.918 70.3936C163.918 73.7139 162.714 76.611 160.305 79.085C157.896 81.5589 154.738 83.4795 150.832 84.8467C146.926 86.2139 142.792 86.8975 138.43 86.8975C134.198 86.8975 130.194 86.279 126.418 85.042L64.8945 112.972L109.328 133.187C114.862 135.726 119.973 137.581 124.66 138.753C129.413 139.925 133.97 140.478 138.332 140.413C142.694 140.478 147.219 139.925 151.906 138.753C156.659 137.516 161.802 135.66 167.336 133.187L262.258 89.7295C266.424 87.8415 269.712 85.2048 272.121 81.8193C274.53 78.3688 275.734 74.5602 275.734 70.3936C275.734 66.2269 274.53 62.4183 272.121 58.9678C269.712 55.5173 266.424 52.848 262.258 50.96ZM64.8945 131.917V182.601C74.2044 188.069 85.1745 192.334 97.8047 195.394C110.435 198.519 123.944 200.081 138.332 200.081C152.525 200.081 165.806 198.584 178.176 195.589C190.611 192.659 201.516 188.525 210.891 183.187C220.331 177.913 227.688 171.696 232.961 164.534C238.234 157.308 240.871 149.463 240.871 140.999V118.538L174.367 148.909C161.477 154.834 149.465 157.763 138.332 157.698C127.264 157.763 115.188 154.834 102.102 148.909L64.8945 131.917ZM35.6953 118.538V140.999C35.6953 145.231 36.5091 149.463 38.1367 153.694C39.7643 157.926 42.0755 161.93 45.0703 165.706V122.835L35.6953 118.538ZM45.0703 198.714L64.8945 198.812V182.601C60.793 180.192 57.082 177.555 53.7617 174.69C50.4414 171.891 47.5443 168.896 45.0703 165.706V198.714ZM33.8398 205.354V229.573C33.8398 234.716 35.4023 238.851 38.5273 241.976C41.6523 245.101 45.7539 246.663 50.832 246.663H59.0352C64.1133 246.663 68.2148 245.101 71.3398 241.976C74.4648 238.851 76.0273 234.716 76.0273 229.573V205.354C76.0273 200.276 74.4648 196.142 71.3398 192.952C68.2148 189.827 64.1133 188.265 59.0352 188.265H50.832C45.7539 188.265 41.6523 189.827 38.5273 192.952C35.4023 196.142 33.8398 200.276 33.8398 205.354Z" fill="#29A6FF"/>
</svg>
