<svg width="275" height="248" viewBox="0 0 275 248" fill="none" xmlns="http://www.w3.org/2000/svg">
<path d="M261.426 51.5156L166.504 8.15625C160.97 5.68229 155.827 3.85938 151.074 2.6875C146.387 1.45052 141.862 0.864583 137.5 0.929688C133.138 0.864583 128.581 1.45052 123.828 2.6875C119.141 3.85938 114.03 5.68229 108.496 8.15625L13.5742 51.5156C9.40755 53.4036 6.11979 56.0729 3.71094 59.5234C1.30208 62.974 0.0976562 66.7826 0.0976562 70.9492C0.0976562 75.1159 1.30208 78.957 3.71094 82.4727C6.11979 85.9232 9.40755 88.5273 13.5742 90.2852L44.043 103.566L112.207 72.2188C112.077 71.8281 112.012 71.4049 112.012 70.9492C112.012 67.6289 113.216 64.7643 115.625 62.3555C118.099 59.9466 121.289 58.0586 125.195 56.6914C129.102 55.3242 133.236 54.6406 137.598 54.6406C141.96 54.6406 146.061 55.3242 149.902 56.6914C153.809 57.9935 156.966 59.8815 159.375 62.3555C161.849 64.7643 163.086 67.6289 163.086 70.9492C163.086 74.2695 161.882 77.1667 159.473 79.6406C157.064 82.1146 153.906 84.0352 150 85.4023C146.094 86.7695 141.96 87.4531 137.598 87.4531C133.366 87.4531 129.362 86.8346 125.586 85.5977L64.0625 113.527L108.496 133.742C114.03 136.281 119.141 138.137 123.828 139.309C128.581 140.48 133.138 141.034 137.5 140.969C141.862 141.034 146.387 140.48 151.074 139.309C155.827 138.072 160.97 136.216 166.504 133.742L261.426 90.2852C265.592 88.3971 268.88 85.7604 271.289 82.375C273.698 78.9245 274.902 75.1159 274.902 70.9492C274.902 66.7826 273.698 62.974 271.289 59.5234C268.88 56.0729 265.592 53.4036 261.426 51.5156ZM64.0625 132.473V183.156C73.3724 188.625 84.3424 192.889 96.9727 195.949C109.603 199.074 123.112 200.637 137.5 200.637C151.693 200.637 164.974 199.139 177.344 196.145C189.779 193.215 200.684 189.081 210.059 183.742C219.499 178.469 226.855 172.251 232.129 165.09C237.402 157.863 240.039 150.018 240.039 141.555V119.094L173.535 149.465C160.645 155.389 148.633 158.319 137.5 158.254C126.432 158.319 114.355 155.389 101.27 149.465L64.0625 132.473ZM34.8633 119.094V141.555C34.8633 145.786 35.6771 150.018 37.3047 154.25C38.9323 158.482 41.2435 162.486 44.2383 166.262V123.391L34.8633 119.094ZM44.2383 199.27L64.0625 199.367V183.156C59.9609 180.747 56.25 178.111 52.9297 175.246C49.6094 172.447 46.7122 169.452 44.2383 166.262V199.27ZM33.0078 205.91V230.129C33.0078 235.272 34.5703 239.406 37.6953 242.531C40.8203 245.656 44.9219 247.219 50 247.219H58.2031C63.2812 247.219 67.3828 245.656 70.5078 242.531C73.6328 239.406 75.1953 235.272 75.1953 230.129V205.91C75.1953 200.832 73.6328 196.698 70.5078 193.508C67.3828 190.383 63.2812 188.82 58.2031 188.82H50C44.9219 188.82 40.8203 190.383 37.6953 193.508C34.5703 196.698 33.0078 200.832 33.0078 205.91Z" fill="#80B3F9"/>
</svg>
