<svg width="231" height="182" viewBox="0 0 231 182" fill="none" xmlns="http://www.w3.org/2000/svg">
<path d="M115.332 97.9678C119.499 97.9678 123.926 95.624 128.613 90.9365L214.355 4.90137C210.059 1.90658 203.255 0.40918 193.945 0.40918H35.7422C26.8229 0.40918 20.3451 1.87402 16.3086 4.80371L102.148 90.9365C106.836 95.624 111.23 97.9678 115.332 97.9678ZM3.22266 162.616L76.7578 89.1787L4.19922 17.499C1.39974 21.6657 0 28.1436 0 36.9326V145.136C0 152.948 1.07422 158.775 3.22266 162.616ZM36.6211 181.757H194.824C204.59 181.757 211.784 179.869 216.406 176.093L141.504 101.288L136.914 105.976C130.013 112.812 122.819 116.229 115.332 116.229C107.91 116.229 100.716 112.812 93.75 105.976L89.1602 101.483L14.3555 176.093C19.1081 179.869 26.5299 181.757 36.6211 181.757ZM227.539 162.616C229.622 158.71 230.664 152.883 230.664 145.136V36.9326C230.664 28.1436 229.264 21.6657 226.465 17.499L153.906 89.1787L227.539 162.616Z" fill="#29A6FF"/>
</svg>
