<svg width="231" height="183" viewBox="0 0 231 183" fill="none" xmlns="http://www.w3.org/2000/svg">
<path d="M115.5 98.5234C119.667 98.5234 124.094 96.1797 128.781 91.4922L214.523 5.45703C210.227 2.46224 203.423 0.964844 194.113 0.964844H35.9102C26.9909 0.964844 20.513 2.42969 16.4766 5.35938L102.316 91.4922C107.004 96.1797 111.398 98.5234 115.5 98.5234ZM3.39062 163.172L76.9258 89.7344L4.36719 18.0547C1.56771 22.2214 0.167969 28.6992 0.167969 37.4883V145.691C0.167969 153.504 1.24219 159.331 3.39062 163.172ZM36.7891 182.312H194.992C204.758 182.312 211.952 180.424 216.574 176.648L141.672 101.844L137.082 106.531C130.181 113.367 122.987 116.785 115.5 116.785C108.078 116.785 100.884 113.367 93.918 106.531L89.3281 102.039L14.5234 176.648C19.276 180.424 26.6979 182.312 36.7891 182.312ZM227.707 163.172C229.79 159.266 230.832 153.439 230.832 145.691V37.4883C230.832 28.6992 229.432 22.2214 226.633 18.0547L154.074 89.7344L227.707 163.172Z" fill="#80B3F9"/>
</svg>
