<svg width="18" height="15" viewBox="0 0 18 15" fill="none" xmlns="http://www.w3.org/2000/svg">
<g clip-path="url(#clip0_130_152)">
<path d="M9.0003 8.04697C9.32478 8.04697 9.66951 7.86447 10.0345 7.49946L16.7111 0.799997C16.3766 0.566796 15.8468 0.450195 15.1218 0.450195H2.80274C2.1082 0.450195 1.60378 0.564261 1.28947 0.792393L7.97368 7.49946C8.33873 7.86447 8.68089 8.04697 9.0003 8.04697ZM0.270475 13.0811L5.99658 7.36258L0.34652 1.78096C0.128527 2.10542 0.0195312 2.60984 0.0195312 3.29424V11.7199C0.0195312 12.3282 0.10318 12.782 0.270475 13.0811ZM2.87118 14.5715H15.1903C15.9507 14.5715 16.5109 14.4245 16.8708 14.1304L11.0383 8.30554L10.6809 8.67051C10.1435 9.20282 9.58331 9.46898 9.0003 9.46898C8.42236 9.46898 7.86217 9.20282 7.31974 8.67051L6.96233 8.32072L1.13737 14.1304C1.50745 14.4245 2.08539 14.5715 2.87118 14.5715ZM17.7377 13.0811C17.8999 12.7769 17.9811 12.3232 17.9811 11.7199V3.29424C17.9811 2.60984 17.8721 2.10542 17.6541 1.78096L12.004 7.36258L17.7377 13.0811Z" fill="#53A4F8"/>
</g>
<defs>
<clipPath id="clip0_130_152">
<rect width="17.9877" height="14.25" fill="white" transform="translate(0.00585938 0.375)"/>
</clipPath>
</defs>
</svg>
