<svg width="207" height="206" viewBox="0 0 207 206" fill="none" xmlns="http://www.w3.org/2000/svg">
<path d="M21.3792 115.487H90.1292C90.5198 115.487 90.6826 115.455 90.6175 115.389C90.6175 115.259 90.6175 115.487 90.6175 116.073L90.7151 184.628C90.7151 189.315 91.7893 193.222 93.9378 196.347C96.0862 199.537 98.8206 201.848 102.141 203.28C105.526 204.777 109.107 205.331 112.883 204.94C116.724 204.615 120.305 203.28 123.625 200.936C126.946 198.658 129.615 195.305 131.633 190.878L202.922 34.4324C205.657 28.3778 206.698 22.8439 206.047 17.8309C205.461 12.8179 203.573 8.74885 200.383 5.62385C197.193 2.49885 193.091 0.675934 188.078 0.155101C183.065 -0.430836 177.499 0.643382 171.379 3.37776L14.8362 74.5692C10.4742 76.5874 7.15392 79.2567 4.87528 82.577C2.59663 85.8973 1.262 89.4455 0.871373 93.2215C0.545852 96.9324 1.13179 100.513 2.62919 103.964C4.12658 107.349 6.43778 110.116 9.56278 112.264C12.6878 114.413 16.6266 115.487 21.3792 115.487Z" fill="#29A6FF"/>
</svg>
