<svg width="207" height="206" viewBox="0 0 207 206" fill="none" xmlns="http://www.w3.org/2000/svg">
<path d="M21.5472 116.043H90.2972C90.6878 116.043 90.8505 116.01 90.7854 115.945C90.7854 115.815 90.7854 116.043 90.7854 116.629L90.8831 185.183C90.8831 189.871 91.9573 193.777 94.1058 196.902C96.2542 200.092 98.9886 202.403 102.309 203.836C105.694 205.333 109.275 205.887 113.051 205.496C116.892 205.17 120.473 203.836 123.793 201.492C127.114 199.213 129.783 195.861 131.801 191.433L203.09 34.9881C205.824 28.9334 206.866 23.3996 206.215 18.3865C205.629 13.3735 203.741 9.30452 200.551 6.17952C197.361 3.05452 193.259 1.2316 188.246 0.710765C183.233 0.124828 177.667 1.19905 171.547 3.93342L15.0042 75.1248C10.6422 77.1431 7.32189 79.8123 5.04325 83.1326C2.7646 86.4529 1.42997 90.0011 1.03934 93.7772C0.713821 97.4881 1.29976 101.069 2.79715 104.519C4.29455 107.905 6.60575 110.672 9.73075 112.82C12.8557 114.969 16.7945 116.043 21.5472 116.043Z" fill="#80B3F9"/>
</svg>
