<svg width="15" height="15" viewBox="0 0 15 15" fill="none" xmlns="http://www.w3.org/2000/svg">
<g clip-path="url(#clip0_130_164)">
<path d="M1.56214 8.43676H6.54214C6.57043 8.43676 6.58222 8.43437 6.5775 8.42966C6.5775 8.42025 6.5775 8.43676 6.5775 8.47921L6.58458 13.445C6.58458 13.7846 6.66239 14.0675 6.81802 14.2939C6.97364 14.525 7.17171 14.6924 7.41223 14.7962C7.65742 14.9046 7.91682 14.9447 8.19034 14.9164C8.46856 14.8928 8.72796 14.7962 8.96845 14.6264C9.20901 14.4613 9.40234 14.2185 9.54852 13.8977L14.7124 2.56545C14.9105 2.12687 14.9859 1.72602 14.9388 1.36289C14.8963 0.999765 14.7596 0.705024 14.5285 0.47866C14.2974 0.252297 14.0003 0.120251 13.6372 0.082524C13.2741 0.0400809 12.8709 0.117894 12.4276 0.315961L1.08819 5.4728C0.772224 5.619 0.531713 5.81235 0.366657 6.05286C0.2016 6.29337 0.104924 6.55038 0.0766284 6.82391C0.053049 7.09271 0.0954922 7.3521 0.203958 7.60201C0.312424 7.84728 0.479838 8.04771 0.706202 8.2033C0.932562 8.35897 1.21787 8.43676 1.56214 8.43676Z" fill="#53A4F8"/>
</g>
<defs>
<clipPath id="clip0_130_164">
<rect width="14.9943" height="14.9219" fill="white" transform="translate(0.00195312 0.03125)"/>
</clipPath>
</defs>
</svg>
