<svg width="196" height="197" viewBox="0 0 196 197" fill="none" xmlns="http://www.w3.org/2000/svg">
<path d="M54.9727 141.616C65.194 151.903 75.9362 161.147 87.1992 169.351C98.5273 177.619 109.79 184.129 120.988 188.882C132.186 193.7 142.798 196.108 152.824 196.108C159.53 196.108 165.812 194.904 171.672 192.495C177.531 190.086 182.805 186.213 187.492 180.874C190.292 177.814 192.408 174.624 193.84 171.304C195.272 167.983 195.988 164.565 195.988 161.05C195.988 157.925 195.337 154.93 194.035 152.065C192.733 149.201 190.617 146.694 187.688 144.546L157.414 123.062C154.81 121.174 152.434 119.839 150.285 119.058C148.137 118.211 146.118 117.788 144.23 117.788C141.757 117.788 139.38 118.439 137.102 119.741C134.888 121.043 132.609 122.866 130.266 125.21L122.844 132.729C121.867 133.771 120.598 134.292 119.035 134.292C118.189 134.292 117.375 134.162 116.594 133.901C115.812 133.641 115.161 133.315 114.641 132.925C111.385 131.102 107.219 128.042 102.141 123.745C97.1276 119.383 92.082 114.663 87.0039 109.585C81.9258 104.507 77.2057 99.4613 72.8438 94.4482C68.5469 89.3701 65.487 85.2035 63.6641 81.9482C63.2734 81.4274 62.9479 80.7764 62.6875 79.9951C62.4271 79.2139 62.2969 78.4326 62.2969 77.6514C62.2969 76.0238 62.8177 74.7217 63.8594 73.7451L71.3789 66.3232C73.7227 63.9144 75.5456 61.6032 76.8477 59.3896C78.1497 57.1761 78.8008 54.8324 78.8008 52.3584C78.8008 50.4704 78.3776 48.4521 77.5312 46.3037C76.6849 44.1553 75.3177 41.779 73.4297 39.1748L52.043 8.99902C49.8945 6.00423 47.3555 3.85579 44.4258 2.55371C41.4961 1.25163 38.5013 0.600586 35.4414 0.600586C28.2148 0.600586 21.6068 3.43262 15.6172 9.09668C10.4089 13.8493 6.60026 19.1553 4.19141 25.0146C1.78255 30.874 0.578125 37.1566 0.578125 43.8623C0.578125 53.8883 2.95443 64.5003 7.70703 75.6982C12.5247 86.8962 19.0026 98.1266 27.1406 109.39C35.3438 120.653 44.6211 131.395 54.9727 141.616Z" fill="#29A6FF"/>
</svg>
