<svg width="18" height="19" viewBox="0 0 18 19" fill="none" xmlns="http://www.w3.org/2000/svg">
<g clip-path="url(#clip0_130_158)">
<path d="M5.03971 13.444C5.97352 14.3837 6.95491 15.2283 7.98388 15.9777C9.0188 16.7331 10.0477 17.3279 11.0708 17.7622C12.0938 18.2022 13.0633 18.4223 13.9793 18.4223C14.5919 18.4223 15.1658 18.3123 15.7012 18.0922C16.2365 17.8722 16.7183 17.5182 17.1465 17.0306C17.4023 16.751 17.5956 16.4596 17.7264 16.1562C17.8572 15.8529 17.9227 15.5406 17.9227 15.2194C17.9227 14.9339 17.8632 14.6604 17.7442 14.3986C17.6253 14.137 17.432 13.9079 17.1643 13.7117L14.3986 11.7489C14.1607 11.5764 13.9436 11.4545 13.7473 11.3831C13.5511 11.3058 13.3666 11.2671 13.1941 11.2671C12.9681 11.2671 12.751 11.3266 12.5429 11.4455C12.3407 11.5645 12.1324 11.731 11.9184 11.9452L11.2403 12.6321C11.1511 12.7273 11.0351 12.7749 10.8923 12.7749C10.8151 12.7749 10.7407 12.7629 10.6693 12.7392C10.5979 12.7154 10.5384 12.6856 10.4909 12.6499C10.1935 12.4835 9.81286 12.2039 9.34894 11.8113C8.89092 11.4128 8.42996 10.9816 7.96604 10.5177C7.50211 10.0537 7.07089 9.59279 6.67238 9.13481C6.27983 8.67088 6.00028 8.29022 5.83374 7.99283C5.79806 7.94525 5.76832 7.88576 5.74453 7.81439C5.72074 7.74302 5.70884 7.67165 5.70884 7.60027C5.70884 7.45157 5.75642 7.33262 5.85158 7.2434L6.53856 6.56535C6.75268 6.34529 6.91922 6.13414 7.03817 5.93191C7.15713 5.72969 7.21662 5.51556 7.21662 5.28955C7.21662 5.11706 7.17795 4.93268 7.10063 4.7364C7.02331 4.54012 6.8984 4.32302 6.72592 4.08512L4.77206 1.3283C4.57578 1.0547 4.34381 0.858426 4.07617 0.73947C3.80852 0.620513 3.53492 0.561035 3.25537 0.561035C2.59516 0.561035 1.99145 0.819765 1.44426 1.33722C0.96843 1.77141 0.620485 2.25616 0.400417 2.79146C0.180347 3.32677 0.0703125 3.90073 0.0703125 4.51336C0.0703125 5.42932 0.287408 6.39882 0.721598 7.42184C1.16174 8.44486 1.75355 9.47086 2.49702 10.4998C3.24644 11.5288 4.09401 12.5102 5.03971 13.444Z" fill="#53A4F8"/>
</g>
<defs>
<clipPath id="clip0_130_158">
<rect width="17.9976" height="17.9062" fill="white" transform="translate(0.00195312 0.546875)"/>
</clipPath>
</defs>
</svg>
