<svg width="197" height="196" viewBox="0 0 197 196" fill="none" xmlns="http://www.w3.org/2000/svg">
<path d="M55.1406 141.172C65.362 151.458 76.1042 160.703 87.3672 168.906C98.6953 177.174 109.958 183.685 121.156 188.438C132.354 193.255 142.966 195.664 152.992 195.664C159.698 195.664 165.98 194.46 171.84 192.051C177.699 189.642 182.973 185.768 187.66 180.43C190.46 177.37 192.576 174.18 194.008 170.859C195.44 167.539 196.156 164.121 196.156 160.605C196.156 157.48 195.505 154.486 194.203 151.621C192.901 148.757 190.785 146.25 187.855 144.102L157.582 122.617C154.978 120.729 152.602 119.395 150.453 118.613C148.305 117.767 146.286 117.344 144.398 117.344C141.924 117.344 139.548 117.995 137.27 119.297C135.056 120.599 132.777 122.422 130.434 124.766L123.012 132.285C122.035 133.327 120.766 133.848 119.203 133.848C118.357 133.848 117.543 133.717 116.762 133.457C115.98 133.197 115.329 132.871 114.809 132.48C111.553 130.658 107.387 127.598 102.309 123.301C97.2956 118.939 92.25 114.219 87.1719 109.141C82.0938 104.062 77.3737 99.0169 73.0117 94.0039C68.7148 88.9258 65.6549 84.7591 63.832 81.5039C63.4414 80.9831 63.1159 80.332 62.8555 79.5508C62.5951 78.7695 62.4648 77.9883 62.4648 77.207C62.4648 75.5794 62.9857 74.2773 64.0273 73.3008L71.5469 65.8789C73.8906 63.4701 75.7135 61.1589 77.0156 58.9453C78.3177 56.7318 78.9688 54.388 78.9688 51.9141C78.9688 50.026 78.5456 48.0078 77.6992 45.8594C76.8529 43.7109 75.4857 41.3346 73.5977 38.7305L52.2109 8.55469C50.0625 5.5599 47.5234 3.41146 44.5938 2.10938C41.6641 0.807292 38.6693 0.15625 35.6094 0.15625C28.3828 0.15625 21.7747 2.98828 15.7852 8.65234C10.5768 13.4049 6.76823 18.7109 4.35938 24.5703C1.95052 30.4297 0.746094 36.7122 0.746094 43.418C0.746094 53.444 3.1224 64.056 7.875 75.2539C12.6927 86.4518 19.1706 97.6823 27.3086 108.945C35.5117 120.208 44.7891 130.951 55.1406 141.172Z" fill="#80B3F9"/>
</svg>
