<svg width="243" height="149" viewBox="0 0 243 149" fill="none" xmlns="http://www.w3.org/2000/svg">
<path d="M110.867 95.7812C110.867 85.9505 108.914 77.2917 105.008 69.8047C101.102 62.2526 95.7305 56.3281 88.8945 52.0312C82.1237 47.7344 74.3763 45.5859 65.6523 45.5859C58.9466 45.5859 52.957 46.6927 47.6836 48.9062C42.4102 51.1198 37.8854 54.4401 34.1094 58.8672H28.9336C29.9753 54.8958 31.7656 50.957 34.3047 47.0508C36.9089 43.1445 40.1641 39.4987 44.0703 36.1133C48.0417 32.6628 52.6315 29.6354 57.8398 27.0312C63.0482 24.362 68.8099 22.3763 75.125 21.0742C76.8828 20.6185 78.3802 20.0977 79.6172 19.5117C80.8542 18.8607 81.8958 18.0469 82.7422 17.0703C83.5885 16.224 84.2396 15.2148 84.6953 14.043C85.151 12.806 85.3789 11.4714 85.3789 10.0391C85.3789 7.30469 84.3372 5.02604 82.2539 3.20312C80.1706 1.38021 77.5339 0.46875 74.3438 0.46875C71.2839 0.46875 68.4844 0.729167 65.9453 1.25C63.4714 1.77083 60.4766 2.61719 56.9609 3.78906C50.8411 5.9375 44.8516 8.83464 38.9922 12.4805C33.1328 16.1263 27.7292 20.5534 22.7812 25.7617C15.4896 33.444 10.0208 42.2331 6.375 52.1289C2.72917 61.9596 0.90625 72.3438 0.90625 83.2812C0.90625 96.9531 3.47786 108.672 8.62109 118.438C13.7643 128.138 20.6979 135.56 29.4219 140.703C38.1458 145.781 48.0091 148.32 59.0117 148.32C68.9727 148.32 77.8594 146.107 85.6719 141.68C93.4844 137.253 99.6367 131.1 104.129 123.223C108.621 115.345 110.867 106.198 110.867 95.7812ZM242.996 95.7812C242.996 85.9505 241.043 77.2917 237.137 69.8047C233.23 62.2526 227.859 56.3281 221.023 52.0312C214.253 47.7344 206.505 45.5859 197.781 45.5859C191.01 45.5859 184.988 46.6927 179.715 48.9062C174.441 51.1198 169.949 54.4401 166.238 58.8672H160.867C161.974 54.8958 163.797 50.957 166.336 47.0508C168.94 43.1445 172.195 39.4987 176.102 36.1133C180.073 32.6628 184.663 29.6354 189.871 27.0312C195.079 24.362 200.874 22.3763 207.254 21.0742C208.947 20.6185 210.411 20.0977 211.648 19.5117C212.951 18.8607 214.025 18.0469 214.871 17.0703C215.717 16.224 216.368 15.2148 216.824 14.043C217.28 12.806 217.508 11.4714 217.508 10.0391C217.508 7.30469 216.466 5.02604 214.383 3.20312C212.299 1.38021 209.663 0.46875 206.473 0.46875C203.413 0.46875 200.613 0.729167 198.074 1.25C195.6 1.77083 192.573 2.61719 188.992 3.78906C182.872 5.9375 176.883 8.83464 171.023 12.4805C165.164 16.1263 159.76 20.5534 154.812 25.7617C147.521 33.444 142.052 42.2331 138.406 52.1289C134.826 61.9596 133.035 72.3438 133.035 83.2812C133.035 96.9531 135.574 108.672 140.652 118.438C145.796 128.138 152.729 135.56 161.453 140.703C170.242 145.781 180.105 148.32 191.043 148.32C201.004 148.32 209.891 146.107 217.703 141.68C225.581 137.253 231.766 131.1 236.258 123.223C240.75 115.345 242.996 106.198 242.996 95.7812Z" fill="#80B3F9"/>
</svg>
