<svg width="243" height="149" viewBox="0 0 243 149" fill="none" xmlns="http://www.w3.org/2000/svg">
<path d="M110.793 95.7568C110.793 85.9261 108.84 77.2673 104.934 69.7803C101.027 62.2282 95.6562 56.3037 88.8203 52.0068C82.0495 47.71 74.3021 45.5615 65.5781 45.5615C58.8724 45.5615 52.8828 46.6683 47.6094 48.8818C42.3359 51.0954 37.8112 54.4157 34.0352 58.8428H28.8594C29.901 54.8714 31.6914 50.9326 34.2305 47.0264C36.8346 43.1201 40.0898 39.4743 43.9961 36.0889C47.9674 32.6383 52.5573 29.611 57.7656 27.0068C62.974 24.3376 68.7357 22.3519 75.0508 21.0498C76.8086 20.5941 78.306 20.0732 79.543 19.4873C80.7799 18.8363 81.8216 18.0225 82.668 17.0459C83.5143 16.1995 84.1654 15.1904 84.6211 14.0186C85.0768 12.7816 85.3047 11.4469 85.3047 10.0146C85.3047 7.28027 84.263 5.00163 82.1797 3.17871C80.0964 1.35579 77.4596 0.444336 74.2695 0.444336C71.2096 0.444336 68.4102 0.704753 65.8711 1.22559C63.3971 1.74642 60.4023 2.59277 56.8867 3.76465C50.7669 5.91309 44.7773 8.81022 38.918 12.4561C33.0586 16.1019 27.6549 20.529 22.707 25.7373C15.4154 33.4196 9.94661 42.2087 6.30078 52.1045C2.65495 61.9352 0.832031 72.3193 0.832031 83.2568C0.832031 96.9287 3.40365 108.647 8.54688 118.413C13.6901 128.114 20.6237 135.535 29.3477 140.679C38.0716 145.757 47.9349 148.296 58.9375 148.296C68.8984 148.296 77.7852 146.082 85.5977 141.655C93.4102 137.228 99.5625 131.076 104.055 123.198C108.547 115.321 110.793 106.174 110.793 95.7568ZM242.922 95.7568C242.922 85.9261 240.969 77.2673 237.062 69.7803C233.156 62.2282 227.785 56.3037 220.949 52.0068C214.178 47.71 206.431 45.5615 197.707 45.5615C190.936 45.5615 184.914 46.6683 179.641 48.8818C174.367 51.0954 169.875 54.4157 166.164 58.8428H160.793C161.9 54.8714 163.723 50.9326 166.262 47.0264C168.866 43.1201 172.121 39.4743 176.027 36.0889C179.999 32.6383 184.589 29.611 189.797 27.0068C195.005 24.3376 200.799 22.3519 207.18 21.0498C208.872 20.5941 210.337 20.0732 211.574 19.4873C212.876 18.8363 213.951 18.0225 214.797 17.0459C215.643 16.1995 216.294 15.1904 216.75 14.0186C217.206 12.7816 217.434 11.4469 217.434 10.0146C217.434 7.28027 216.392 5.00163 214.309 3.17871C212.225 1.35579 209.589 0.444336 206.398 0.444336C203.339 0.444336 200.539 0.704753 198 1.22559C195.526 1.74642 192.499 2.59277 188.918 3.76465C182.798 5.91309 176.809 8.81022 170.949 12.4561C165.09 16.1019 159.686 20.529 154.738 25.7373C147.447 33.4196 141.978 42.2087 138.332 52.1045C134.751 61.9352 132.961 72.3193 132.961 83.2568C132.961 96.9287 135.5 108.647 140.578 118.413C145.721 128.114 152.655 135.535 161.379 140.679C170.168 145.757 180.031 148.296 190.969 148.296C200.93 148.296 209.816 146.082 217.629 141.655C225.507 137.228 231.691 131.076 236.184 123.198C240.676 115.321 242.922 106.174 242.922 95.7568Z" fill="#29A6FF"/>
</svg>
