<svg width="679" height="178" viewBox="0 0 679 178" fill="none" xmlns="http://www.w3.org/2000/svg">
<path d="M151.955 107V71.5H167.005C168.638 71.5 170.138 71.8333 171.505 72.5C172.872 73.1667 174.055 74.0667 175.055 75.2C176.088 76.3333 176.888 77.6 177.455 79C178.022 80.4 178.305 81.8333 178.305 83.3C178.305 85.3 177.838 87.2 176.905 89C175.972 90.8 174.688 92.2667 173.055 93.4C171.422 94.5333 169.488 95.1 167.255 95.1H158.855V107H151.955ZM158.855 89.05H166.855C167.688 89.05 168.438 88.8167 169.105 88.35C169.772 87.8833 170.305 87.2167 170.705 86.35C171.105 85.45 171.305 84.4333 171.305 83.3C171.305 82.0667 171.072 81.0167 170.605 80.15C170.172 79.2833 169.588 78.6333 168.855 78.2C168.155 77.7667 167.388 77.55 166.555 77.55H158.855V89.05ZM197.557 86.6C195.524 86.6 193.707 87 192.107 87.8C190.507 88.5667 189.357 89.6833 188.657 91.15V107H181.957V80.8H188.107V86.4C189.041 84.6 190.224 83.1833 191.657 82.15C193.091 81.1167 194.607 80.55 196.207 80.45C196.574 80.45 196.857 80.45 197.057 80.45C197.257 80.45 197.424 80.4667 197.557 80.5V86.6ZM212.601 107.5C210.501 107.5 208.601 107.15 206.901 106.45C205.201 105.717 203.751 104.733 202.551 103.5C201.351 102.233 200.418 100.8 199.751 99.2C199.118 97.5667 198.801 95.85 198.801 94.05C198.801 91.55 199.351 89.2667 200.451 87.2C201.585 85.1333 203.185 83.4833 205.251 82.25C207.351 80.9833 209.818 80.35 212.651 80.35C215.518 80.35 217.968 80.9833 220.001 82.25C222.035 83.4833 223.585 85.1333 224.651 87.2C225.751 89.2333 226.301 91.4333 226.301 93.8C226.301 94.2 226.285 94.6167 226.251 95.05C226.218 95.45 226.185 95.7833 226.151 96.05H205.901C206.035 97.3833 206.418 98.55 207.051 99.55C207.718 100.55 208.551 101.317 209.551 101.85C210.585 102.35 211.685 102.6 212.851 102.6C214.185 102.6 215.435 102.283 216.601 101.65C217.801 100.983 218.618 100.117 219.051 99.05L224.801 100.65C224.168 101.983 223.251 103.167 222.051 104.2C220.885 105.233 219.501 106.05 217.901 106.65C216.301 107.217 214.535 107.5 212.601 107.5ZM205.751 91.8H219.451C219.318 90.4667 218.935 89.3167 218.301 88.35C217.701 87.35 216.901 86.5833 215.901 86.05C214.901 85.4833 213.785 85.2 212.551 85.2C211.351 85.2 210.251 85.4833 209.251 86.05C208.285 86.5833 207.485 87.35 206.851 88.35C206.251 89.3167 205.885 90.4667 205.751 91.8ZM236.201 107L226.551 80.8H233.501L240.101 100.9L246.751 80.8H253.101L243.501 107H236.201ZM256.141 107V80.8H262.841V107H256.141ZM256.141 77.15V70.5H262.841V77.15H256.141ZM280.485 107.5C278.352 107.5 276.435 107.15 274.735 106.45C273.035 105.717 271.585 104.717 270.385 103.45C269.218 102.183 268.318 100.733 267.685 99.1C267.052 97.4667 266.735 95.75 266.735 93.95C266.735 92.1167 267.052 90.3833 267.685 88.75C268.318 87.1167 269.218 85.6667 270.385 84.4C271.585 83.1333 273.035 82.15 274.735 81.45C276.435 80.7167 278.352 80.35 280.485 80.35C282.618 80.35 284.518 80.7167 286.185 81.45C287.885 82.15 289.335 83.1333 290.535 84.4C291.735 85.6667 292.635 87.1167 293.235 88.75C293.868 90.3833 294.185 92.1167 294.185 93.95C294.185 95.75 293.868 97.4667 293.235 99.1C292.635 100.733 291.735 102.183 290.535 103.45C289.368 104.717 287.935 105.717 286.235 106.45C284.535 107.15 282.618 107.5 280.485 107.5ZM273.635 93.95C273.635 95.4833 273.935 96.85 274.535 98.05C275.135 99.2167 275.952 100.133 276.985 100.8C278.018 101.467 279.185 101.8 280.485 101.8C281.752 101.8 282.902 101.467 283.935 100.8C284.968 100.1 285.785 99.1667 286.385 98C287.018 96.8 287.335 95.4333 287.335 93.9C287.335 92.4 287.018 91.05 286.385 89.85C285.785 88.65 284.968 87.7167 283.935 87.05C282.902 86.3833 281.752 86.05 280.485 86.05C279.185 86.05 278.018 86.4 276.985 87.1C275.952 87.7667 275.135 88.7 274.535 89.9C273.935 91.0667 273.635 92.4167 273.635 93.95ZM297.957 97.2V80.8H304.657V95.75C304.657 97.75 305.024 99.2667 305.757 100.3C306.491 101.3 307.574 101.8 309.007 101.8C309.874 101.8 310.724 101.633 311.557 101.3C312.424 100.933 313.207 100.4 313.907 99.7C314.641 99 315.257 98.1167 315.757 97.05V80.8H322.457V99.5C322.457 100.2 322.574 100.7 322.807 101C323.074 101.3 323.491 101.483 324.057 101.55V107C323.391 107.1 322.824 107.167 322.357 107.2C321.924 107.267 321.524 107.3 321.157 107.3C319.957 107.3 318.974 107.033 318.207 106.5C317.474 105.933 317.041 105.167 316.907 104.2L316.757 102.1C315.591 103.867 314.091 105.217 312.257 106.15C310.424 107.05 308.407 107.5 306.207 107.5C303.507 107.5 301.457 106.633 300.057 104.9C298.657 103.133 297.957 100.567 297.957 97.2ZM338.265 107.5C336.032 107.5 333.899 107.133 331.865 106.4C329.832 105.667 328.082 104.583 326.615 103.15L329.015 98.8C330.582 100.067 332.115 101 333.615 101.6C335.149 102.2 336.615 102.5 338.015 102.5C339.315 102.5 340.349 102.267 341.115 101.8C341.915 101.333 342.315 100.633 342.315 99.7C342.315 99.0667 342.099 98.5833 341.665 98.25C341.232 97.8833 340.599 97.5667 339.765 97.3C338.965 97.0333 337.982 96.7333 336.815 96.4C334.882 95.7667 333.265 95.15 331.965 94.55C330.665 93.95 329.682 93.2 329.015 92.3C328.382 91.3667 328.065 90.1833 328.065 88.75C328.065 87.0167 328.499 85.5333 329.365 84.3C330.265 83.0333 331.499 82.05 333.065 81.35C334.665 80.65 336.532 80.3 338.665 80.3C340.532 80.3 342.299 80.6 343.965 81.2C345.632 81.7667 347.149 82.7 348.515 84L345.815 88.25C344.482 87.2167 343.215 86.4667 342.015 86C340.815 85.5 339.599 85.25 338.365 85.25C337.665 85.25 336.999 85.3333 336.365 85.5C335.765 85.6667 335.265 85.95 334.865 86.35C334.499 86.7167 334.315 87.25 334.315 87.95C334.315 88.5833 334.482 89.0833 334.815 89.45C335.182 89.7833 335.715 90.0833 336.415 90.35C337.149 90.6167 338.032 90.9167 339.065 91.25C341.165 91.85 342.932 92.4667 344.365 93.1C345.832 93.7333 346.932 94.5167 347.665 95.45C348.399 96.35 348.765 97.6 348.765 99.2C348.765 101.8 347.815 103.833 345.915 105.3C344.015 106.767 341.465 107.5 338.265 107.5ZM370.017 107L360.367 80.8H367.317L373.917 100.9L380.567 80.8H386.917L377.317 107H370.017ZM401.228 107.5C399.128 107.5 397.228 107.15 395.528 106.45C393.828 105.717 392.378 104.733 391.178 103.5C389.978 102.233 389.045 100.8 388.378 99.2C387.745 97.5667 387.428 95.85 387.428 94.05C387.428 91.55 387.978 89.2667 389.078 87.2C390.212 85.1333 391.812 83.4833 393.878 82.25C395.978 80.9833 398.445 80.35 401.278 80.35C404.145 80.35 406.595 80.9833 408.628 82.25C410.662 83.4833 412.212 85.1333 413.278 87.2C414.378 89.2333 414.928 91.4333 414.928 93.8C414.928 94.2 414.912 94.6167 414.878 95.05C414.845 95.45 414.812 95.7833 414.778 96.05H394.528C394.662 97.3833 395.045 98.55 395.678 99.55C396.345 100.55 397.178 101.317 398.178 101.85C399.212 102.35 400.312 102.6 401.478 102.6C402.812 102.6 404.062 102.283 405.228 101.65C406.428 100.983 407.245 100.117 407.678 99.05L413.428 100.65C412.795 101.983 411.878 103.167 410.678 104.2C409.512 105.233 408.128 106.05 406.528 106.65C404.928 107.217 403.162 107.5 401.228 107.5ZM394.378 91.8H408.078C407.945 90.4667 407.562 89.3167 406.928 88.35C406.328 87.35 405.528 86.5833 404.528 86.05C403.528 85.4833 402.412 85.2 401.178 85.2C399.978 85.2 398.878 85.4833 397.878 86.05C396.912 86.5833 396.112 87.35 395.478 88.35C394.878 89.3167 394.512 90.4667 394.378 91.8ZM434.11 86.6C432.077 86.6 430.26 87 428.66 87.8C427.06 88.5667 425.91 89.6833 425.21 91.15V107H418.51V80.8H424.66V86.4C425.593 84.6 426.777 83.1833 428.21 82.15C429.643 81.1167 431.16 80.55 432.76 80.45C433.127 80.45 433.41 80.45 433.61 80.45C433.81 80.45 433.977 80.4667 434.11 80.5V86.6ZM446.996 107.5C444.763 107.5 442.629 107.133 440.596 106.4C438.563 105.667 436.813 104.583 435.346 103.15L437.746 98.8C439.313 100.067 440.846 101 442.346 101.6C443.879 102.2 445.346 102.5 446.746 102.5C448.046 102.5 449.079 102.267 449.846 101.8C450.646 101.333 451.046 100.633 451.046 99.7C451.046 99.0667 450.829 98.5833 450.396 98.25C449.963 97.8833 449.329 97.5667 448.496 97.3C447.696 97.0333 446.713 96.7333 445.546 96.4C443.613 95.7667 441.996 95.15 440.696 94.55C439.396 93.95 438.413 93.2 437.746 92.3C437.113 91.3667 436.796 90.1833 436.796 88.75C436.796 87.0167 437.229 85.5333 438.096 84.3C438.996 83.0333 440.229 82.05 441.796 81.35C443.396 80.65 445.263 80.3 447.396 80.3C449.263 80.3 451.029 80.6 452.696 81.2C454.363 81.7667 455.879 82.7 457.246 84L454.546 88.25C453.213 87.2167 451.946 86.4667 450.746 86C449.546 85.5 448.329 85.25 447.096 85.25C446.396 85.25 445.729 85.3333 445.096 85.5C444.496 85.6667 443.996 85.95 443.596 86.35C443.229 86.7167 443.046 87.25 443.046 87.95C443.046 88.5833 443.213 89.0833 443.546 89.45C443.913 89.7833 444.446 90.0833 445.146 90.35C445.879 90.6167 446.763 90.9167 447.796 91.25C449.896 91.85 451.663 92.4667 453.096 93.1C454.563 93.7333 455.663 94.5167 456.396 95.45C457.129 96.35 457.496 97.6 457.496 99.2C457.496 101.8 456.546 103.833 454.646 105.3C452.746 106.767 450.196 107.5 446.996 107.5ZM461.553 107V80.8H468.253V107H461.553ZM461.553 77.15V70.5H468.253V77.15H461.553ZM485.897 107.5C483.764 107.5 481.847 107.15 480.147 106.45C478.447 105.717 476.997 104.717 475.797 103.45C474.63 102.183 473.73 100.733 473.097 99.1C472.464 97.4667 472.147 95.75 472.147 93.95C472.147 92.1167 472.464 90.3833 473.097 88.75C473.73 87.1167 474.63 85.6667 475.797 84.4C476.997 83.1333 478.447 82.15 480.147 81.45C481.847 80.7167 483.764 80.35 485.897 80.35C488.03 80.35 489.93 80.7167 491.597 81.45C493.297 82.15 494.747 83.1333 495.947 84.4C497.147 85.6667 498.047 87.1167 498.647 88.75C499.28 90.3833 499.597 92.1167 499.597 93.95C499.597 95.75 499.28 97.4667 498.647 99.1C498.047 100.733 497.147 102.183 495.947 103.45C494.78 104.717 493.347 105.717 491.647 106.45C489.947 107.15 488.03 107.5 485.897 107.5ZM479.047 93.95C479.047 95.4833 479.347 96.85 479.947 98.05C480.547 99.2167 481.364 100.133 482.397 100.8C483.43 101.467 484.597 101.8 485.897 101.8C487.164 101.8 488.314 101.467 489.347 100.8C490.38 100.1 491.197 99.1667 491.797 98C492.43 96.8 492.747 95.4333 492.747 93.9C492.747 92.4 492.43 91.05 491.797 89.85C491.197 88.65 490.38 87.7167 489.347 87.05C488.314 86.3833 487.164 86.05 485.897 86.05C484.597 86.05 483.43 86.4 482.397 87.1C481.364 87.7667 480.547 88.7 479.947 89.9C479.347 91.0667 479.047 92.4167 479.047 93.95ZM527.969 107H521.269V92.3C521.269 90.2 520.903 88.6667 520.169 87.7C519.436 86.7333 518.419 86.25 517.119 86.25C516.219 86.25 515.303 86.4833 514.369 86.95C513.469 87.4167 512.653 88.0667 511.919 88.9C511.186 89.7 510.653 90.6333 510.319 91.7V107H503.619V80.8H509.669V85.65C510.336 84.5167 511.186 83.5667 512.219 82.8C513.253 82 514.436 81.4 515.769 81C517.136 80.5667 518.569 80.35 520.069 80.35C521.703 80.35 523.036 80.65 524.069 81.25C525.136 81.8167 525.936 82.6 526.469 83.6C527.036 84.5667 527.419 85.6667 527.619 86.9C527.853 88.1333 527.969 89.3833 527.969 90.65V107Z" fill="white"/>
<rect x="3.5" y="3.5" width="672" height="171" rx="56.5" stroke="white" stroke-width="7"/>
</svg>
