<svg width="715" height="186" viewBox="0 0 715 186" fill="none" xmlns="http://www.w3.org/2000/svg">
<rect x="2.5" y="2.5" width="710" height="181" rx="47.5" stroke="white" stroke-width="5"/>
<path d="M191.304 98.9639H201.704C204.015 98.9639 206.042 98.4837 207.783 97.5234C209.541 96.5469 210.916 95.1878 211.909 93.4463C212.902 91.6885 213.398 89.6621 213.398 87.3672V87.3184C213.398 85.0234 212.902 83.0133 211.909 81.2881C210.916 79.5465 209.541 78.1956 207.783 77.2354C206.042 76.2588 204.015 75.7705 201.704 75.7705H191.304V80.3848H200.337C202.697 80.3848 204.528 80.9951 205.83 82.2158C207.148 83.4365 207.808 85.1536 207.808 87.3672V87.416C207.808 89.597 207.148 91.306 205.83 92.543C204.528 93.7637 202.697 94.374 200.337 94.374H191.304V98.9639ZM188.569 111H194.038V75.7705H188.569V111ZM217.049 111H222.371V95.6924C222.371 94.4229 222.591 93.3405 223.03 92.4453C223.47 91.5339 224.104 90.8421 224.935 90.3701C225.765 89.8818 226.741 89.6377 227.864 89.6377C228.385 89.6377 228.857 89.6702 229.28 89.7354C229.703 89.7842 230.021 89.8493 230.232 89.9307V85.0234C230.037 84.9746 229.777 84.9339 229.451 84.9014C229.142 84.8525 228.792 84.8281 228.401 84.8281C226.937 84.8281 225.683 85.2676 224.642 86.1465C223.6 87.0091 222.876 88.1973 222.469 89.7109H222.371V85.3164H217.049V111ZM242.916 111.513C244.479 111.513 245.895 111.301 247.164 110.878C248.434 110.455 249.532 109.877 250.46 109.145C251.404 108.396 252.169 107.558 252.755 106.63C253.341 105.702 253.74 104.734 253.951 103.725L254 103.456H248.971L248.897 103.651C248.686 104.302 248.312 104.896 247.774 105.434C247.254 105.954 246.594 106.378 245.797 106.703C244.999 107.012 244.08 107.167 243.038 107.167C241.622 107.167 240.393 106.858 239.352 106.239C238.31 105.604 237.504 104.701 236.935 103.529C236.381 102.341 236.104 100.917 236.104 99.2568V97.2061C236.104 95.4645 236.389 93.9997 236.959 92.8115C237.529 91.6071 238.31 90.6956 239.303 90.0771C240.296 89.4587 241.419 89.1494 242.672 89.1494C243.941 89.1494 245.056 89.4424 246.017 90.0283C246.993 90.6143 247.75 91.5094 248.287 92.7139C248.84 93.902 249.117 95.3994 249.117 97.2061V99.2568L251.729 95.7656H233.419V99.501H254.293V97.7188C254.293 95.1471 253.821 92.8929 252.877 90.9561C251.933 89.0029 250.59 87.4974 248.849 86.4395C247.123 85.3652 245.056 84.8281 242.647 84.8281C240.255 84.8281 238.172 85.3896 236.397 86.5127C234.623 87.6195 233.248 89.182 232.271 91.2002C231.295 93.2021 230.807 95.5378 230.807 98.207V98.2314C230.807 100.933 231.287 103.285 232.247 105.287C233.224 107.273 234.615 108.811 236.422 109.901C238.245 110.976 240.41 111.513 242.916 111.513ZM263.949 111H269.638L278.842 85.3164H273.3L266.879 105.824H266.757L260.312 85.3164H254.696L263.949 111ZM281.589 111H286.911V85.3164H281.589V111ZM284.25 81.3613C285.113 81.3613 285.837 81.0684 286.423 80.4824C287.025 79.8802 287.326 79.1641 287.326 78.334C287.326 77.4714 287.025 76.7471 286.423 76.1611C285.837 75.5752 285.113 75.2822 284.25 75.2822C283.404 75.2822 282.679 75.5752 282.077 76.1611C281.475 76.7471 281.174 77.4714 281.174 78.334C281.174 79.1641 281.475 79.8802 282.077 80.4824C282.679 81.0684 283.404 81.3613 284.25 81.3613ZM302.891 111.513C305.332 111.513 307.464 110.976 309.287 109.901C311.11 108.811 312.526 107.273 313.535 105.287C314.561 103.301 315.073 100.925 315.073 98.1582V98.1094C315.073 95.3587 314.561 92.9906 313.535 91.0049C312.526 89.0192 311.102 87.4974 309.263 86.4395C307.44 85.3652 305.308 84.8281 302.866 84.8281C300.441 84.8281 298.309 85.3652 296.47 86.4395C294.647 87.5137 293.223 89.0436 292.197 91.0293C291.188 93.015 290.684 95.375 290.684 98.1094V98.1582C290.684 100.909 291.188 103.285 292.197 105.287C293.206 107.273 294.622 108.811 296.445 109.901C298.285 110.976 300.433 111.513 302.891 111.513ZM302.915 107.069C301.532 107.069 300.327 106.719 299.302 106.02C298.276 105.32 297.479 104.311 296.909 102.992C296.356 101.658 296.079 100.046 296.079 98.1582V98.1094C296.079 96.2376 296.364 94.6426 296.934 93.3242C297.503 92.0059 298.293 90.9967 299.302 90.2969C300.327 89.597 301.515 89.2471 302.866 89.2471C304.233 89.2471 305.43 89.597 306.455 90.2969C307.48 90.9805 308.27 91.9896 308.823 93.3242C309.377 94.6426 309.653 96.2376 309.653 98.1094V98.1582C309.653 100.046 309.377 101.658 308.823 102.992C308.27 104.311 307.489 105.32 306.479 106.02C305.47 106.719 304.282 107.069 302.915 107.069ZM327.415 111.513C328.717 111.513 329.873 111.326 330.882 110.951C331.907 110.577 332.786 110.064 333.519 109.413C334.251 108.746 334.837 107.989 335.276 107.143H335.398V111H340.696V85.3164H335.398V100.307C335.398 101.299 335.252 102.211 334.959 103.041C334.682 103.855 334.275 104.555 333.738 105.141C333.201 105.71 332.558 106.158 331.81 106.483C331.077 106.793 330.239 106.947 329.295 106.947C327.472 106.947 326.105 106.435 325.193 105.409C324.298 104.368 323.851 102.878 323.851 100.941V85.3164H318.528V101.942C318.528 103.912 318.878 105.613 319.578 107.045C320.278 108.477 321.287 109.584 322.605 110.365C323.94 111.13 325.543 111.513 327.415 111.513ZM355.064 111.513C357.083 111.513 358.873 111.179 360.436 110.512C362.014 109.844 363.251 108.917 364.146 107.729C365.042 106.54 365.489 105.165 365.489 103.603V103.578C365.489 101.723 364.936 100.25 363.829 99.1592C362.739 98.0524 360.883 97.1979 358.263 96.5957L354.063 95.6191C353.168 95.4076 352.436 95.1471 351.866 94.8379C351.297 94.5286 350.882 94.1624 350.621 93.7393C350.377 93.3161 350.255 92.8441 350.255 92.3232V92.2988C350.255 91.6152 350.442 91.0212 350.816 90.5166C351.191 89.9958 351.728 89.597 352.428 89.3203C353.128 89.0436 353.95 88.9053 354.894 88.9053C356.375 88.9053 357.547 89.2633 358.409 89.9795C359.272 90.6794 359.776 91.5908 359.923 92.7139L359.947 92.8848H364.903V92.5918C364.822 91.1432 364.366 89.833 363.536 88.6611C362.722 87.473 361.583 86.5371 360.118 85.8535C358.653 85.1699 356.912 84.8281 354.894 84.8281C352.924 84.8281 351.191 85.1536 349.693 85.8047C348.196 86.4395 347.032 87.3428 346.202 88.5146C345.372 89.6702 344.957 91.0212 344.957 92.5674V92.5918C344.957 93.8288 345.226 94.9193 345.763 95.8633C346.3 96.8073 347.105 97.6048 348.18 98.2559C349.27 98.9069 350.629 99.4196 352.257 99.7939L356.456 100.746C357.84 101.088 358.8 101.511 359.337 102.016C359.874 102.52 360.143 103.188 360.143 104.018V104.042C360.143 104.742 359.939 105.344 359.532 105.849C359.125 106.353 358.548 106.744 357.799 107.021C357.05 107.281 356.139 107.411 355.064 107.411C353.453 107.411 352.2 107.086 351.305 106.435C350.41 105.767 349.832 104.848 349.571 103.676L349.522 103.432H344.298L344.322 103.651C344.501 105.214 345.03 106.589 345.909 107.777C346.788 108.949 347.993 109.869 349.522 110.536C351.069 111.187 352.916 111.513 355.064 111.513ZM385.754 111H391.442L400.646 85.3164H395.104L388.684 105.824H388.562L382.116 85.3164H376.501L385.754 111ZM413.184 111.513C414.746 111.513 416.162 111.301 417.432 110.878C418.701 110.455 419.8 109.877 420.728 109.145C421.672 108.396 422.437 107.558 423.022 106.63C423.608 105.702 424.007 104.734 424.219 103.725L424.268 103.456H419.238L419.165 103.651C418.953 104.302 418.579 104.896 418.042 105.434C417.521 105.954 416.862 106.378 416.064 106.703C415.267 107.012 414.347 107.167 413.306 107.167C411.89 107.167 410.661 106.858 409.619 106.239C408.577 105.604 407.772 104.701 407.202 103.529C406.649 102.341 406.372 100.917 406.372 99.2568V97.2061C406.372 95.4645 406.657 93.9997 407.227 92.8115C407.796 91.6071 408.577 90.6956 409.57 90.0771C410.563 89.4587 411.686 89.1494 412.939 89.1494C414.209 89.1494 415.324 89.4424 416.284 90.0283C417.261 90.6143 418.018 91.5094 418.555 92.7139C419.108 93.902 419.385 95.3994 419.385 97.2061V99.2568L421.997 95.7656H403.687V99.501H424.561V97.7188C424.561 95.1471 424.089 92.8929 423.145 90.9561C422.201 89.0029 420.858 87.4974 419.116 86.4395C417.391 85.3652 415.324 84.8281 412.915 84.8281C410.522 84.8281 408.439 85.3896 406.665 86.5127C404.891 87.6195 403.516 89.182 402.539 91.2002C401.562 93.2021 401.074 95.5378 401.074 98.207V98.2314C401.074 100.933 401.554 103.285 402.515 105.287C403.491 107.273 404.883 108.811 406.689 109.901C408.512 110.976 410.677 111.513 413.184 111.513ZM428.113 111H433.436V95.6924C433.436 94.4229 433.655 93.3405 434.095 92.4453C434.534 91.5339 435.169 90.8421 435.999 90.3701C436.829 89.8818 437.806 89.6377 438.929 89.6377C439.45 89.6377 439.922 89.6702 440.345 89.7354C440.768 89.7842 441.085 89.8493 441.297 89.9307V85.0234C441.102 84.9746 440.841 84.9339 440.516 84.9014C440.206 84.8525 439.856 84.8281 439.466 84.8281C438.001 84.8281 436.748 85.2676 435.706 86.1465C434.664 87.0091 433.94 88.1973 433.533 89.7109H433.436V85.3164H428.113V111ZM453.736 111.513C455.755 111.513 457.545 111.179 459.107 110.512C460.686 109.844 461.923 108.917 462.818 107.729C463.714 106.54 464.161 105.165 464.161 103.603V103.578C464.161 101.723 463.608 100.25 462.501 99.1592C461.41 98.0524 459.555 97.1979 456.935 96.5957L452.735 95.6191C451.84 95.4076 451.108 95.1471 450.538 94.8379C449.968 94.5286 449.553 94.1624 449.293 93.7393C449.049 93.3161 448.927 92.8441 448.927 92.3232V92.2988C448.927 91.6152 449.114 91.0212 449.488 90.5166C449.863 89.9958 450.4 89.597 451.1 89.3203C451.799 89.0436 452.621 88.9053 453.565 88.9053C455.047 88.9053 456.218 89.2633 457.081 89.9795C457.944 90.6794 458.448 91.5908 458.595 92.7139L458.619 92.8848H463.575V92.5918C463.494 91.1432 463.038 89.833 462.208 88.6611C461.394 87.473 460.255 86.5371 458.79 85.8535C457.325 85.1699 455.584 84.8281 453.565 84.8281C451.596 84.8281 449.863 85.1536 448.365 85.8047C446.868 86.4395 445.704 87.3428 444.874 88.5146C444.044 89.6702 443.629 91.0212 443.629 92.5674V92.5918C443.629 93.8288 443.897 94.9193 444.435 95.8633C444.972 96.8073 445.777 97.6048 446.852 98.2559C447.942 98.9069 449.301 99.4196 450.929 99.7939L455.128 100.746C456.511 101.088 457.472 101.511 458.009 102.016C458.546 102.52 458.814 103.188 458.814 104.018V104.042C458.814 104.742 458.611 105.344 458.204 105.849C457.797 106.353 457.219 106.744 456.471 107.021C455.722 107.281 454.811 107.411 453.736 107.411C452.125 107.411 450.872 107.086 449.977 106.435C449.081 105.767 448.504 104.848 448.243 103.676L448.194 103.432H442.97L442.994 103.651C443.173 105.214 443.702 106.589 444.581 107.777C445.46 108.949 446.664 109.869 448.194 110.536C449.741 111.187 451.588 111.513 453.736 111.513ZM467.958 111H473.28V85.3164H467.958V111ZM470.619 81.3613C471.482 81.3613 472.206 81.0684 472.792 80.4824C473.394 79.8802 473.695 79.1641 473.695 78.334C473.695 77.4714 473.394 76.7471 472.792 76.1611C472.206 75.5752 471.482 75.2822 470.619 75.2822C469.773 75.2822 469.049 75.5752 468.446 76.1611C467.844 76.7471 467.543 77.4714 467.543 78.334C467.543 79.1641 467.844 79.8802 468.446 80.4824C469.049 81.0684 469.773 81.3613 470.619 81.3613ZM489.26 111.513C491.701 111.513 493.833 110.976 495.656 109.901C497.479 108.811 498.895 107.273 499.904 105.287C500.93 103.301 501.442 100.925 501.442 98.1582V98.1094C501.442 95.3587 500.93 92.9906 499.904 91.0049C498.895 89.0192 497.471 87.4974 495.632 86.4395C493.809 85.3652 491.677 84.8281 489.235 84.8281C486.81 84.8281 484.678 85.3652 482.839 86.4395C481.016 87.5137 479.592 89.0436 478.566 91.0293C477.557 93.015 477.053 95.375 477.053 98.1094V98.1582C477.053 100.909 477.557 103.285 478.566 105.287C479.576 107.273 480.992 108.811 482.814 109.901C484.654 110.976 486.802 111.513 489.26 111.513ZM489.284 107.069C487.901 107.069 486.696 106.719 485.671 106.02C484.646 105.32 483.848 104.311 483.278 102.992C482.725 101.658 482.448 100.046 482.448 98.1582V98.1094C482.448 96.2376 482.733 94.6426 483.303 93.3242C483.872 92.0059 484.662 90.9967 485.671 90.2969C486.696 89.597 487.884 89.2471 489.235 89.2471C490.603 89.2471 491.799 89.597 492.824 90.2969C493.85 90.9805 494.639 91.9896 495.192 93.3242C495.746 94.6426 496.022 96.2376 496.022 98.1094V98.1582C496.022 100.046 495.746 101.658 495.192 102.992C494.639 104.311 493.858 105.32 492.849 106.02C491.84 106.719 490.651 107.069 489.284 107.069ZM505.02 111H510.342V96.0342C510.342 94.6833 510.586 93.5114 511.074 92.5186C511.579 91.5257 512.287 90.7526 513.198 90.1992C514.126 89.6458 515.208 89.3691 516.445 89.3691C518.268 89.3691 519.627 89.89 520.522 90.9316C521.434 91.9733 521.89 93.4626 521.89 95.3994V111H527.188V94.374C527.188 91.4118 526.414 89.0843 524.868 87.3916C523.322 85.6826 521.141 84.8281 518.325 84.8281C516.388 84.8281 514.761 85.235 513.442 86.0488C512.124 86.8464 511.123 87.8962 510.439 89.1982H510.342V85.3164H505.02V111Z" fill="white"/>
</svg>
