<svg width="645" height="157" viewBox="0 0 645 157" fill="none" xmlns="http://www.w3.org/2000/svg">
<rect x="2.5" y="2.5" width="640" height="152" rx="47.5" stroke="white" stroke-width="5"/>
<path d="M91.5711 96V60.5H106.621C108.254 60.5 109.754 60.8333 111.121 61.5C112.488 62.1667 113.671 63.0667 114.671 64.2C115.704 65.3333 116.504 66.6 117.071 68C117.638 69.4 117.921 70.8333 117.921 72.3C117.921 74.3 117.454 76.2 116.521 78C115.588 79.8 114.304 81.2667 112.671 82.4C111.038 83.5333 109.104 84.1 106.871 84.1H98.4711V96H91.5711ZM98.4711 78.05H106.471C107.304 78.05 108.054 77.8167 108.721 77.35C109.388 76.8833 109.921 76.2167 110.321 75.35C110.721 74.45 110.921 73.4333 110.921 72.3C110.921 71.0667 110.688 70.0167 110.221 69.15C109.788 68.2833 109.204 67.6333 108.471 67.2C107.771 66.7667 107.004 66.55 106.171 66.55H98.4711V78.05ZM122.223 96V60.5H137.923C139.557 60.5 141.057 60.8333 142.423 61.5C143.823 62.1667 145.023 63.0667 146.023 64.2C147.057 65.3333 147.84 66.6 148.373 68C148.94 69.4 149.223 70.8333 149.223 72.3C149.223 73.8 148.957 75.25 148.423 76.65C147.923 78.0167 147.19 79.2167 146.223 80.25C145.257 81.2833 144.123 82.0833 142.823 82.65L150.923 96H143.323L136.023 84.1H129.123V96H122.223ZM129.123 78.05H137.773C138.64 78.05 139.407 77.8 140.073 77.3C140.74 76.7667 141.273 76.0667 141.673 75.2C142.073 74.3333 142.273 73.3667 142.273 72.3C142.273 71.1667 142.04 70.1833 141.573 69.35C141.107 68.4833 140.507 67.8 139.773 67.3C139.073 66.8 138.307 66.55 137.473 66.55H129.123V78.05ZM179.625 89.95V96H154.975V60.5H179.175V66.55H161.875V75.1H176.825V80.7H161.875V89.95H179.625ZM188.155 60.5L197.755 87.8L207.255 60.5H214.505L201.055 96H194.405L180.905 60.5H188.155ZM217.794 96V60.5H224.694V96H217.794ZM246.75 96.25C244.15 96.25 241.784 95.75 239.65 94.75C237.55 93.75 235.734 92.4 234.2 90.7C232.7 88.9667 231.534 87.0333 230.7 84.9C229.867 82.7333 229.45 80.5167 229.45 78.25C229.45 75.8833 229.884 73.6333 230.75 71.5C231.65 69.3333 232.867 67.4167 234.4 65.75C235.967 64.05 237.8 62.7167 239.9 61.75C242.034 60.75 244.367 60.25 246.9 60.25C249.467 60.25 251.8 60.7667 253.9 61.8C256.034 62.8333 257.85 64.2167 259.35 65.95C260.85 67.6833 262.017 69.6167 262.85 71.75C263.684 73.8833 264.1 76.0833 264.1 78.35C264.1 80.6833 263.667 82.9333 262.8 85.1C261.934 87.2333 260.717 89.15 259.15 90.85C257.617 92.5167 255.784 93.8333 253.65 94.8C251.55 95.7667 249.25 96.25 246.75 96.25ZM236.45 78.25C236.45 79.7833 236.684 81.2667 237.15 82.7C237.617 84.1333 238.284 85.4167 239.15 86.55C240.05 87.65 241.134 88.5333 242.4 89.2C243.7 89.8333 245.167 90.15 246.8 90.15C248.467 90.15 249.95 89.8167 251.25 89.15C252.55 88.45 253.634 87.5333 254.5 86.4C255.367 85.2333 256.017 83.95 256.45 82.55C256.917 81.1167 257.15 79.6833 257.15 78.25C257.15 76.7167 256.9 75.25 256.4 73.85C255.934 72.4167 255.25 71.15 254.35 70.05C253.484 68.9167 252.4 68.0333 251.1 67.4C249.834 66.7333 248.4 66.4 246.8 66.4C245.1 66.4 243.6 66.75 242.3 67.45C241.034 68.1167 239.967 69.0167 239.1 70.15C238.234 71.2833 237.567 72.55 237.1 73.95C236.667 75.35 236.45 76.7833 236.45 78.25ZM283.943 96.25C281.11 96.25 278.693 95.7833 276.693 94.85C274.727 93.8833 273.127 92.5667 271.893 90.9C270.693 89.2333 269.81 87.35 269.243 85.25C268.677 83.1167 268.393 80.9 268.393 78.6V60.5H275.293V78.6C275.293 80.0667 275.427 81.5 275.693 82.9C275.993 84.2667 276.477 85.5 277.143 86.6C277.81 87.7 278.693 88.5667 279.793 89.2C280.893 89.8333 282.26 90.15 283.893 90.15C285.56 90.15 286.943 89.8333 288.043 89.2C289.177 88.5333 290.06 87.65 290.693 86.55C291.36 85.45 291.843 84.2167 292.143 82.85C292.443 81.45 292.593 80.0333 292.593 78.6V60.5H299.443V78.6C299.443 81.0333 299.143 83.3167 298.543 85.45C297.977 87.5833 297.06 89.4667 295.793 91.1C294.56 92.7 292.96 93.9667 290.993 94.9C289.027 95.8 286.677 96.25 283.943 96.25ZM327.043 69.8C326.81 69.5667 326.377 69.25 325.743 68.85C325.143 68.45 324.393 68.0667 323.493 67.7C322.627 67.3333 321.677 67.0167 320.643 66.75C319.61 66.45 318.56 66.3 317.493 66.3C315.627 66.3 314.21 66.65 313.243 67.35C312.31 68.05 311.843 69.0333 311.843 70.3C311.843 71.2667 312.143 72.0333 312.743 72.6C313.343 73.1667 314.243 73.65 315.443 74.05C316.643 74.45 318.143 74.8833 319.943 75.35C322.277 75.9167 324.293 76.6167 325.993 77.45C327.727 78.25 329.043 79.3167 329.943 80.65C330.877 81.95 331.343 83.6833 331.343 85.85C331.343 87.75 330.993 89.3833 330.293 90.75C329.593 92.0833 328.627 93.1667 327.393 94C326.16 94.8333 324.76 95.45 323.193 95.85C321.627 96.2167 319.96 96.4 318.193 96.4C316.427 96.4 314.66 96.2167 312.893 95.85C311.127 95.4833 309.427 94.9667 307.793 94.3C306.16 93.6 304.66 92.7667 303.293 91.8L306.343 85.85C306.643 86.15 307.177 86.55 307.943 87.05C308.71 87.5167 309.643 88 310.743 88.5C311.843 88.9667 313.043 89.3667 314.343 89.7C315.643 90.0333 316.96 90.2 318.293 90.2C320.16 90.2 321.577 89.8833 322.543 89.25C323.51 88.6167 323.993 87.7167 323.993 86.55C323.993 85.4833 323.61 84.65 322.843 84.05C322.077 83.45 321.01 82.9333 319.643 82.5C318.277 82.0333 316.66 81.5333 314.793 81C312.56 80.3667 310.693 79.6667 309.193 78.9C307.693 78.1 306.577 77.1 305.843 75.9C305.11 74.7 304.743 73.2 304.743 71.4C304.743 68.9667 305.31 66.9333 306.443 65.3C307.61 63.6333 309.177 62.3833 311.143 61.55C313.11 60.6833 315.293 60.25 317.693 60.25C319.36 60.25 320.927 60.4333 322.393 60.8C323.893 61.1667 325.293 61.65 326.593 62.25C327.893 62.85 329.06 63.5 330.093 64.2L327.043 69.8ZM349.51 60.5L359.11 87.8L368.61 60.5H375.86L362.41 96H355.76L342.26 60.5H349.51ZM403.799 89.95V96H379.149V60.5H403.349V66.55H386.049V75.1H400.999V80.7H386.049V89.95H403.799ZM408.679 96V60.5H424.379C426.012 60.5 427.512 60.8333 428.879 61.5C430.279 62.1667 431.479 63.0667 432.479 64.2C433.512 65.3333 434.295 66.6 434.829 68C435.395 69.4 435.679 70.8333 435.679 72.3C435.679 73.8 435.412 75.25 434.879 76.65C434.379 78.0167 433.645 79.2167 432.679 80.25C431.712 81.2833 430.579 82.0833 429.279 82.65L437.379 96H429.779L422.479 84.1H415.579V96H408.679ZM415.579 78.05H424.229C425.095 78.05 425.862 77.8 426.529 77.3C427.195 76.7667 427.729 76.0667 428.129 75.2C428.529 74.3333 428.729 73.3667 428.729 72.3C428.729 71.1667 428.495 70.1833 428.029 69.35C427.562 68.4833 426.962 67.8 426.229 67.3C425.529 66.8 424.762 66.55 423.929 66.55H415.579V78.05ZM462.58 69.8C462.347 69.5667 461.914 69.25 461.28 68.85C460.68 68.45 459.93 68.0667 459.03 67.7C458.164 67.3333 457.214 67.0167 456.18 66.75C455.147 66.45 454.097 66.3 453.03 66.3C451.164 66.3 449.747 66.65 448.78 67.35C447.847 68.05 447.38 69.0333 447.38 70.3C447.38 71.2667 447.68 72.0333 448.28 72.6C448.88 73.1667 449.78 73.65 450.98 74.05C452.18 74.45 453.68 74.8833 455.48 75.35C457.814 75.9167 459.83 76.6167 461.53 77.45C463.264 78.25 464.58 79.3167 465.48 80.65C466.414 81.95 466.88 83.6833 466.88 85.85C466.88 87.75 466.53 89.3833 465.83 90.75C465.13 92.0833 464.164 93.1667 462.93 94C461.697 94.8333 460.297 95.45 458.73 95.85C457.164 96.2167 455.497 96.4 453.73 96.4C451.964 96.4 450.197 96.2167 448.43 95.85C446.664 95.4833 444.964 94.9667 443.33 94.3C441.697 93.6 440.197 92.7667 438.83 91.8L441.88 85.85C442.18 86.15 442.714 86.55 443.48 87.05C444.247 87.5167 445.18 88 446.28 88.5C447.38 88.9667 448.58 89.3667 449.88 89.7C451.18 90.0333 452.497 90.2 453.83 90.2C455.697 90.2 457.114 89.8833 458.08 89.25C459.047 88.6167 459.53 87.7167 459.53 86.55C459.53 85.4833 459.147 84.65 458.38 84.05C457.614 83.45 456.547 82.9333 455.18 82.5C453.814 82.0333 452.197 81.5333 450.33 81C448.097 80.3667 446.23 79.6667 444.73 78.9C443.23 78.1 442.114 77.1 441.38 75.9C440.647 74.7 440.28 73.2 440.28 71.4C440.28 68.9667 440.847 66.9333 441.98 65.3C443.147 63.6333 444.714 62.3833 446.68 61.55C448.647 60.6833 450.83 60.25 453.23 60.25C454.897 60.25 456.464 60.4333 457.93 60.8C459.43 61.1667 460.83 61.65 462.13 62.25C463.43 62.85 464.597 63.5 465.63 64.2L462.58 69.8ZM471.595 96V60.5H478.495V96H471.595ZM500.551 96.25C497.951 96.25 495.585 95.75 493.451 94.75C491.351 93.75 489.535 92.4 488.001 90.7C486.501 88.9667 485.335 87.0333 484.501 84.9C483.668 82.7333 483.251 80.5167 483.251 78.25C483.251 75.8833 483.685 73.6333 484.551 71.5C485.451 69.3333 486.668 67.4167 488.201 65.75C489.768 64.05 491.601 62.7167 493.701 61.75C495.835 60.75 498.168 60.25 500.701 60.25C503.268 60.25 505.601 60.7667 507.701 61.8C509.835 62.8333 511.651 64.2167 513.151 65.95C514.651 67.6833 515.818 69.6167 516.651 71.75C517.485 73.8833 517.901 76.0833 517.901 78.35C517.901 80.6833 517.468 82.9333 516.601 85.1C515.735 87.2333 514.518 89.15 512.951 90.85C511.418 92.5167 509.585 93.8333 507.451 94.8C505.351 95.7667 503.051 96.25 500.551 96.25ZM490.251 78.25C490.251 79.7833 490.485 81.2667 490.951 82.7C491.418 84.1333 492.085 85.4167 492.951 86.55C493.851 87.65 494.935 88.5333 496.201 89.2C497.501 89.8333 498.968 90.15 500.601 90.15C502.268 90.15 503.751 89.8167 505.051 89.15C506.351 88.45 507.435 87.5333 508.301 86.4C509.168 85.2333 509.818 83.95 510.251 82.55C510.718 81.1167 510.951 79.6833 510.951 78.25C510.951 76.7167 510.701 75.25 510.201 73.85C509.735 72.4167 509.051 71.15 508.151 70.05C507.285 68.9167 506.201 68.0333 504.901 67.4C503.635 66.7333 502.201 66.4 500.601 66.4C498.901 66.4 497.401 66.75 496.101 67.45C494.835 68.1167 493.768 69.0167 492.901 70.15C492.035 71.2833 491.368 72.55 490.901 73.95C490.468 75.35 490.251 76.7833 490.251 78.25ZM529.594 73.2V96H522.694V60.5H528.194L546.544 83.9V60.55H553.444V96H547.694L529.594 73.2Z" fill="white"/>
</svg>
