<svg width="679" height="178" viewBox="0 0 679 178" fill="none" xmlns="http://www.w3.org/2000/svg">
<mask id="path-1-inside-1_89_253" fill="white">
<path fill-rule="evenodd" clip-rule="evenodd" d="M60 0C26.8629 0 0 26.8629 0 60V118C0 151.137 26.8629 178 60 178H619C652.137 178 679 151.137 679 118V60C679 26.8629 652.137 0 619 0H60ZM241.806 71.5V107H248.706V95.1H257.106C259.34 95.1 261.273 94.5333 262.906 93.4C264.54 92.2667 265.823 90.8 266.756 89C267.69 87.2 268.156 85.3 268.156 83.3C268.156 81.8333 267.873 80.4 267.306 79C266.74 77.6 265.94 76.3333 264.906 75.2C263.906 74.0667 262.723 73.1667 261.356 72.5C259.99 71.8333 258.49 71.5 256.856 71.5H241.806ZM256.706 89.05H248.706V77.55H256.406C257.24 77.55 258.006 77.7667 258.706 78.2C259.44 78.6333 260.023 79.2833 260.456 80.15C260.923 81.0167 261.156 82.0667 261.156 83.3C261.156 84.4333 260.956 85.45 260.556 86.35C260.156 87.2167 259.623 87.8833 258.956 88.35C258.29 88.8167 257.54 89.05 256.706 89.05ZM277.622 106.45C279.322 107.15 281.238 107.5 283.372 107.5C285.505 107.5 287.422 107.15 289.122 106.45C290.822 105.717 292.255 104.717 293.422 103.45C294.622 102.183 295.522 100.733 296.122 99.1C296.755 97.4667 297.072 95.75 297.072 93.95C297.072 92.1167 296.755 90.3833 296.122 88.75C295.522 87.1167 294.622 85.6667 293.422 84.4C292.222 83.1333 290.772 82.15 289.072 81.45C287.405 80.7167 285.505 80.35 283.372 80.35C281.238 80.35 279.322 80.7167 277.622 81.45C275.922 82.15 274.472 83.1333 273.272 84.4C272.105 85.6667 271.205 87.1167 270.572 88.75C269.938 90.3833 269.622 92.1167 269.622 93.95C269.622 95.75 269.938 97.4667 270.572 99.1C271.205 100.733 272.105 102.183 273.272 103.45C274.472 104.717 275.922 105.717 277.622 106.45ZM277.422 98.05C276.822 96.85 276.522 95.4833 276.522 93.95C276.522 92.4167 276.822 91.0667 277.422 89.9C278.022 88.7 278.838 87.7667 279.872 87.1C280.905 86.4 282.072 86.05 283.372 86.05C284.638 86.05 285.788 86.3833 286.822 87.05C287.855 87.7167 288.672 88.65 289.272 89.85C289.905 91.05 290.222 92.4 290.222 93.9C290.222 95.4333 289.905 96.8 289.272 98C288.672 99.1667 287.855 100.1 286.822 100.8C285.788 101.467 284.638 101.8 283.372 101.8C282.072 101.8 280.905 101.467 279.872 100.8C278.838 100.133 278.022 99.2167 277.422 98.05ZM311.244 87.8C312.844 87 314.661 86.6 316.694 86.6V80.5C316.561 80.4667 316.394 80.45 316.194 80.45H315.344C313.744 80.55 312.227 81.1167 310.794 82.15C309.361 83.1833 308.177 84.6 307.244 86.4V80.8H301.094V107H307.794V91.15C308.494 89.6833 309.644 88.5667 311.244 87.8ZM333.58 106.45C334.38 106.15 335.063 105.883 335.63 105.65L334.28 100.35C333.88 100.517 333.347 100.717 332.68 100.95C332.013 101.183 331.33 101.3 330.63 101.3C329.93 101.3 329.347 101.1 328.88 100.7C328.413 100.3 328.163 99.65 328.13 98.75V85.95H333.63V80.8H328.13V72.3H321.43V80.8H317.98V85.95H321.43V101C321.43 102.533 321.73 103.783 322.33 104.75C322.963 105.683 323.797 106.367 324.83 106.8C325.863 107.233 326.997 107.45 328.23 107.45C329.163 107.45 330.08 107.35 330.98 107.15C331.913 106.983 332.78 106.75 333.58 106.45ZM340.122 87.3V107H346.822V87.3H353.222V82.2H346.822V80.35C346.822 78.8167 347.122 77.65 347.722 76.85C348.322 76.05 349.188 75.65 350.322 75.65C350.922 75.65 351.555 75.75 352.222 75.95C352.888 76.1167 353.472 76.3333 353.972 76.6L355.322 71.55C354.255 71.05 353.172 70.6667 352.072 70.4C351.005 70.1333 349.938 70 348.872 70C347.105 70 345.555 70.4333 344.222 71.3C342.922 72.1667 341.905 73.4 341.172 75C340.472 76.5667 340.122 78.4333 340.122 80.6V82.2H336.672V87.3H340.122ZM362.536 106.45C364.236 107.15 366.152 107.5 368.286 107.5C370.419 107.5 372.336 107.15 374.036 106.45C375.736 105.717 377.169 104.717 378.336 103.45C379.536 102.183 380.436 100.733 381.036 99.1C381.669 97.4667 381.986 95.75 381.986 93.95C381.986 92.1167 381.669 90.3833 381.036 88.75C380.436 87.1167 379.536 85.6667 378.336 84.4C377.136 83.1333 375.686 82.15 373.986 81.45C372.319 80.7167 370.419 80.35 368.286 80.35C366.152 80.35 364.236 80.7167 362.536 81.45C360.836 82.15 359.386 83.1333 358.186 84.4C357.019 85.6667 356.119 87.1167 355.486 88.75C354.852 90.3833 354.536 92.1167 354.536 93.95C354.536 95.75 354.852 97.4667 355.486 99.1C356.119 100.733 357.019 102.183 358.186 103.45C359.386 104.717 360.836 105.717 362.536 106.45ZM362.336 98.05C361.736 96.85 361.436 95.4833 361.436 93.95C361.436 92.4167 361.736 91.0667 362.336 89.9C362.936 88.7 363.752 87.7667 364.786 87.1C365.819 86.4 366.986 86.05 368.286 86.05C369.552 86.05 370.702 86.3833 371.736 87.05C372.769 87.7167 373.586 88.65 374.186 89.85C374.819 91.05 375.136 92.4 375.136 93.9C375.136 95.4333 374.819 96.8 374.186 98C373.586 99.1667 372.769 100.1 371.736 100.8C370.702 101.467 369.552 101.8 368.286 101.8C366.986 101.8 365.819 101.467 364.786 100.8C363.752 100.133 362.936 99.2167 362.336 98.05ZM392.658 70.5H385.958V100.95C385.958 103.017 386.525 104.617 387.658 105.75C388.825 106.85 390.458 107.4 392.558 107.4C393.525 107.4 394.608 107.283 395.808 107.05C397.008 106.817 398.058 106.483 398.958 106.05L398.058 100.95C397.625 101.15 397.125 101.317 396.558 101.45C395.991 101.583 395.441 101.65 394.908 101.65C394.208 101.65 393.658 101.45 393.258 101.05C392.858 100.617 392.658 99.8 392.658 98.6V70.5ZM401.377 80.8V107H408.077V80.8H401.377ZM401.377 70.5V77.15H408.077V70.5H401.377ZM419.971 106.45C421.671 107.15 423.588 107.5 425.721 107.5C427.855 107.5 429.771 107.15 431.471 106.45C433.171 105.717 434.605 104.717 435.771 103.45C436.971 102.183 437.871 100.733 438.471 99.1C439.105 97.4667 439.421 95.75 439.421 93.95C439.421 92.1167 439.105 90.3833 438.471 88.75C437.871 87.1167 436.971 85.6667 435.771 84.4C434.571 83.1333 433.121 82.15 431.421 81.45C429.755 80.7167 427.855 80.35 425.721 80.35C423.588 80.35 421.671 80.7167 419.971 81.45C418.271 82.15 416.821 83.1333 415.621 84.4C414.455 85.6667 413.555 87.1167 412.921 88.75C412.288 90.3833 411.971 92.1167 411.971 93.95C411.971 95.75 412.288 97.4667 412.921 99.1C413.555 100.733 414.455 102.183 415.621 103.45C416.821 104.717 418.271 105.717 419.971 106.45ZM419.771 98.05C419.171 96.85 418.871 95.4833 418.871 93.95C418.871 92.4167 419.171 91.0667 419.771 89.9C420.371 88.7 421.188 87.7667 422.221 87.1C423.255 86.4 424.421 86.05 425.721 86.05C426.988 86.05 428.138 86.3833 429.171 87.05C430.205 87.7167 431.021 88.65 431.621 89.85C432.255 91.05 432.571 92.4 432.571 93.9C432.571 95.4333 432.255 96.8 431.621 98C431.021 99.1667 430.205 100.1 429.171 100.8C428.138 101.467 426.988 101.8 425.721 101.8C424.421 101.8 423.255 101.467 422.221 100.8C421.188 100.133 420.371 99.2167 419.771 98.05Z"/>
</mask>
<path fill-rule="evenodd" clip-rule="evenodd" d="M60 0C26.8629 0 0 26.8629 0 60V118C0 151.137 26.8629 178 60 178H619C652.137 178 679 151.137 679 118V60C679 26.8629 652.137 0 619 0H60ZM241.806 71.5V107H248.706V95.1H257.106C259.34 95.1 261.273 94.5333 262.906 93.4C264.54 92.2667 265.823 90.8 266.756 89C267.69 87.2 268.156 85.3 268.156 83.3C268.156 81.8333 267.873 80.4 267.306 79C266.74 77.6 265.94 76.3333 264.906 75.2C263.906 74.0667 262.723 73.1667 261.356 72.5C259.99 71.8333 258.49 71.5 256.856 71.5H241.806ZM256.706 89.05H248.706V77.55H256.406C257.24 77.55 258.006 77.7667 258.706 78.2C259.44 78.6333 260.023 79.2833 260.456 80.15C260.923 81.0167 261.156 82.0667 261.156 83.3C261.156 84.4333 260.956 85.45 260.556 86.35C260.156 87.2167 259.623 87.8833 258.956 88.35C258.29 88.8167 257.54 89.05 256.706 89.05ZM277.622 106.45C279.322 107.15 281.238 107.5 283.372 107.5C285.505 107.5 287.422 107.15 289.122 106.45C290.822 105.717 292.255 104.717 293.422 103.45C294.622 102.183 295.522 100.733 296.122 99.1C296.755 97.4667 297.072 95.75 297.072 93.95C297.072 92.1167 296.755 90.3833 296.122 88.75C295.522 87.1167 294.622 85.6667 293.422 84.4C292.222 83.1333 290.772 82.15 289.072 81.45C287.405 80.7167 285.505 80.35 283.372 80.35C281.238 80.35 279.322 80.7167 277.622 81.45C275.922 82.15 274.472 83.1333 273.272 84.4C272.105 85.6667 271.205 87.1167 270.572 88.75C269.938 90.3833 269.622 92.1167 269.622 93.95C269.622 95.75 269.938 97.4667 270.572 99.1C271.205 100.733 272.105 102.183 273.272 103.45C274.472 104.717 275.922 105.717 277.622 106.45ZM277.422 98.05C276.822 96.85 276.522 95.4833 276.522 93.95C276.522 92.4167 276.822 91.0667 277.422 89.9C278.022 88.7 278.838 87.7667 279.872 87.1C280.905 86.4 282.072 86.05 283.372 86.05C284.638 86.05 285.788 86.3833 286.822 87.05C287.855 87.7167 288.672 88.65 289.272 89.85C289.905 91.05 290.222 92.4 290.222 93.9C290.222 95.4333 289.905 96.8 289.272 98C288.672 99.1667 287.855 100.1 286.822 100.8C285.788 101.467 284.638 101.8 283.372 101.8C282.072 101.8 280.905 101.467 279.872 100.8C278.838 100.133 278.022 99.2167 277.422 98.05ZM311.244 87.8C312.844 87 314.661 86.6 316.694 86.6V80.5C316.561 80.4667 316.394 80.45 316.194 80.45H315.344C313.744 80.55 312.227 81.1167 310.794 82.15C309.361 83.1833 308.177 84.6 307.244 86.4V80.8H301.094V107H307.794V91.15C308.494 89.6833 309.644 88.5667 311.244 87.8ZM333.58 106.45C334.38 106.15 335.063 105.883 335.63 105.65L334.28 100.35C333.88 100.517 333.347 100.717 332.68 100.95C332.013 101.183 331.33 101.3 330.63 101.3C329.93 101.3 329.347 101.1 328.88 100.7C328.413 100.3 328.163 99.65 328.13 98.75V85.95H333.63V80.8H328.13V72.3H321.43V80.8H317.98V85.95H321.43V101C321.43 102.533 321.73 103.783 322.33 104.75C322.963 105.683 323.797 106.367 324.83 106.8C325.863 107.233 326.997 107.45 328.23 107.45C329.163 107.45 330.08 107.35 330.98 107.15C331.913 106.983 332.78 106.75 333.58 106.45ZM340.122 87.3V107H346.822V87.3H353.222V82.2H346.822V80.35C346.822 78.8167 347.122 77.65 347.722 76.85C348.322 76.05 349.188 75.65 350.322 75.65C350.922 75.65 351.555 75.75 352.222 75.95C352.888 76.1167 353.472 76.3333 353.972 76.6L355.322 71.55C354.255 71.05 353.172 70.6667 352.072 70.4C351.005 70.1333 349.938 70 348.872 70C347.105 70 345.555 70.4333 344.222 71.3C342.922 72.1667 341.905 73.4 341.172 75C340.472 76.5667 340.122 78.4333 340.122 80.6V82.2H336.672V87.3H340.122ZM362.536 106.45C364.236 107.15 366.152 107.5 368.286 107.5C370.419 107.5 372.336 107.15 374.036 106.45C375.736 105.717 377.169 104.717 378.336 103.45C379.536 102.183 380.436 100.733 381.036 99.1C381.669 97.4667 381.986 95.75 381.986 93.95C381.986 92.1167 381.669 90.3833 381.036 88.75C380.436 87.1167 379.536 85.6667 378.336 84.4C377.136 83.1333 375.686 82.15 373.986 81.45C372.319 80.7167 370.419 80.35 368.286 80.35C366.152 80.35 364.236 80.7167 362.536 81.45C360.836 82.15 359.386 83.1333 358.186 84.4C357.019 85.6667 356.119 87.1167 355.486 88.75C354.852 90.3833 354.536 92.1167 354.536 93.95C354.536 95.75 354.852 97.4667 355.486 99.1C356.119 100.733 357.019 102.183 358.186 103.45C359.386 104.717 360.836 105.717 362.536 106.45ZM362.336 98.05C361.736 96.85 361.436 95.4833 361.436 93.95C361.436 92.4167 361.736 91.0667 362.336 89.9C362.936 88.7 363.752 87.7667 364.786 87.1C365.819 86.4 366.986 86.05 368.286 86.05C369.552 86.05 370.702 86.3833 371.736 87.05C372.769 87.7167 373.586 88.65 374.186 89.85C374.819 91.05 375.136 92.4 375.136 93.9C375.136 95.4333 374.819 96.8 374.186 98C373.586 99.1667 372.769 100.1 371.736 100.8C370.702 101.467 369.552 101.8 368.286 101.8C366.986 101.8 365.819 101.467 364.786 100.8C363.752 100.133 362.936 99.2167 362.336 98.05ZM392.658 70.5H385.958V100.95C385.958 103.017 386.525 104.617 387.658 105.75C388.825 106.85 390.458 107.4 392.558 107.4C393.525 107.4 394.608 107.283 395.808 107.05C397.008 106.817 398.058 106.483 398.958 106.05L398.058 100.95C397.625 101.15 397.125 101.317 396.558 101.45C395.991 101.583 395.441 101.65 394.908 101.65C394.208 101.65 393.658 101.45 393.258 101.05C392.858 100.617 392.658 99.8 392.658 98.6V70.5ZM401.377 80.8V107H408.077V80.8H401.377ZM401.377 70.5V77.15H408.077V70.5H401.377ZM419.971 106.45C421.671 107.15 423.588 107.5 425.721 107.5C427.855 107.5 429.771 107.15 431.471 106.45C433.171 105.717 434.605 104.717 435.771 103.45C436.971 102.183 437.871 100.733 438.471 99.1C439.105 97.4667 439.421 95.75 439.421 93.95C439.421 92.1167 439.105 90.3833 438.471 88.75C437.871 87.1167 436.971 85.6667 435.771 84.4C434.571 83.1333 433.121 82.15 431.421 81.45C429.755 80.7167 427.855 80.35 425.721 80.35C423.588 80.35 421.671 80.7167 419.971 81.45C418.271 82.15 416.821 83.1333 415.621 84.4C414.455 85.6667 413.555 87.1167 412.921 88.75C412.288 90.3833 411.971 92.1167 411.971 93.95C411.971 95.75 412.288 97.4667 412.921 99.1C413.555 100.733 414.455 102.183 415.621 103.45C416.821 104.717 418.271 105.717 419.971 106.45ZM419.771 98.05C419.171 96.85 418.871 95.4833 418.871 93.95C418.871 92.4167 419.171 91.0667 419.771 89.9C420.371 88.7 421.188 87.7667 422.221 87.1C423.255 86.4 424.421 86.05 425.721 86.05C426.988 86.05 428.138 86.3833 429.171 87.05C430.205 87.7167 431.021 88.65 431.621 89.85C432.255 91.05 432.571 92.4 432.571 93.9C432.571 95.4333 432.255 96.8 431.621 98C431.021 99.1667 430.205 100.1 429.171 100.8C428.138 101.467 426.988 101.8 425.721 101.8C424.421 101.8 423.255 101.467 422.221 100.8C421.188 100.133 420.371 99.2167 419.771 98.05Z" fill="white"/>
<path d="M241.806 107H234.806V114H241.806V107ZM241.806 71.5V64.5H234.806V71.5H241.806ZM248.706 107V114H255.706V107H248.706ZM248.706 95.1V88.1H241.706V95.1H248.706ZM262.906 93.4L266.897 99.1511L266.897 99.1511L262.906 93.4ZM266.756 89L260.542 85.7777L260.542 85.7778L266.756 89ZM267.306 79L273.795 76.3737L273.795 76.3736L267.306 79ZM264.906 75.2L259.658 79.8314L259.695 79.8742L259.734 79.9163L264.906 75.2ZM261.356 72.5L258.287 78.7914L258.287 78.7914L261.356 72.5ZM248.706 89.05H241.706V96.05H248.706V89.05ZM248.706 77.55V70.55H241.706V77.55H248.706ZM258.706 78.2L255.022 84.1519L255.083 84.1898L255.145 84.2265L258.706 78.2ZM260.456 80.15L254.196 83.2806L254.243 83.3754L254.293 83.4688L260.456 80.15ZM260.556 86.35L266.912 89.2835L266.933 89.2384L266.953 89.1929L260.556 86.35ZM258.956 88.35L262.971 94.0847L262.971 94.0846L258.956 88.35ZM277.622 106.45L274.849 112.877L274.903 112.901L274.956 112.923L277.622 106.45ZM289.122 106.45L291.787 112.923L291.841 112.901L291.894 112.877L289.122 106.45ZM293.422 103.45L288.34 98.6358L288.306 98.6715L288.273 98.7076L293.422 103.45ZM296.122 99.1L289.595 96.5693L289.573 96.6276L289.551 96.6863L296.122 99.1ZM296.122 88.75L289.551 91.1637L289.573 91.2224L289.595 91.2807L296.122 88.75ZM293.422 84.4L298.503 79.5858L298.503 79.5858L293.422 84.4ZM289.072 81.45L286.253 87.8572L286.329 87.8909L286.406 87.9227L289.072 81.45ZM277.622 81.45L280.287 87.9227L280.341 87.9006L280.394 87.8775L277.622 81.45ZM273.272 84.4L268.19 79.5858L268.156 79.6215L268.123 79.6577L273.272 84.4ZM273.272 103.45L268.123 108.192L268.156 108.229L268.19 108.264L273.272 103.45ZM277.422 98.05L271.161 101.181L271.178 101.216L271.197 101.251L277.422 98.05ZM277.422 89.9L283.647 93.1015L283.665 93.066L283.683 93.0304L277.422 89.9ZM279.872 87.1L283.667 92.9821L283.733 92.9395L283.798 92.8954L279.872 87.1ZM286.822 87.05L290.617 81.1679L290.617 81.1679L286.822 87.05ZM289.272 89.85L283.011 92.9804L283.045 93.0493L283.081 93.1174L289.272 89.85ZM289.272 98L283.081 94.7326L283.064 94.7655L283.047 94.7987L289.272 98ZM286.822 100.8L290.617 106.682L290.683 106.639L290.748 106.595L286.822 100.8ZM279.872 100.8L276.077 106.682L276.077 106.682L279.872 100.8ZM316.694 86.6V93.6H323.694V86.6H316.694ZM311.244 87.8L314.269 94.1127L314.322 94.0873L314.375 94.061L311.244 87.8ZM316.694 80.5H323.694V75.0346L318.392 73.709L316.694 80.5ZM315.344 80.45V73.45H315.125L314.907 73.4636L315.344 80.45ZM307.244 86.4H300.244L313.458 89.6222L307.244 86.4ZM307.244 80.8H314.244V73.8H307.244V80.8ZM301.094 80.8V73.8H294.094V80.8H301.094ZM301.094 107H294.094V114H301.094V107ZM307.794 107V114H314.794V107H307.794ZM307.794 91.15L301.477 88.1349L300.794 89.5651V91.15H307.794ZM335.63 105.65L338.295 112.123L343.913 109.81L342.413 103.922L335.63 105.65ZM333.58 106.45L336.038 113.004L336.038 113.004L333.58 106.45ZM334.28 100.35L341.063 98.6221L339.064 90.7731L331.587 93.8885L334.28 100.35ZM332.68 100.95L330.368 94.343L330.367 94.343L332.68 100.95ZM328.88 100.7L333.435 95.3852L333.435 95.3851L328.88 100.7ZM328.13 98.75H321.13V98.8796L321.135 99.009L328.13 98.75ZM328.13 85.95V78.95H321.13V85.95H328.13ZM333.63 85.95V92.95H340.63V85.95H333.63ZM333.63 80.8H340.63V73.8H333.63V80.8ZM328.13 80.8H321.13V87.8H328.13V80.8ZM328.13 72.3H335.13V65.3H328.13V72.3ZM321.43 72.3V65.3H314.43V72.3H321.43ZM321.43 80.8V87.8H328.43V80.8H321.43ZM317.98 80.8V73.8H310.98V80.8H317.98ZM317.98 85.95H310.98V92.95H317.98V85.95ZM321.43 85.95H328.43V78.95H321.43V85.95ZM322.33 104.75L316.382 108.442L316.458 108.563L316.538 108.68L322.33 104.75ZM324.83 106.8L327.537 100.345L327.537 100.345L324.83 106.8ZM330.98 107.15L329.749 100.259L329.605 100.285L329.461 100.317L330.98 107.15ZM340.122 107H333.122V114H340.122V107ZM340.122 87.3H347.122V80.3H340.122V87.3ZM346.822 107V114H353.822V107H346.822ZM346.822 87.3V80.3H339.822V87.3H346.822ZM353.222 87.3V94.3H360.222V87.3H353.222ZM353.222 82.2H360.222V75.2H353.222V82.2ZM346.822 82.2H339.822V89.2H346.822V82.2ZM347.722 76.85L353.322 81.05L353.322 81.05L347.722 76.85ZM352.222 75.95L350.21 82.6548L350.366 82.7015L350.524 82.741L352.222 75.95ZM353.972 76.6L350.678 82.7765L358.457 86.9256L360.734 78.4078L353.972 76.6ZM355.322 71.55L362.084 73.3578L363.597 67.6982L358.293 65.2118L355.322 71.55ZM352.072 70.4L350.374 77.191L350.398 77.1971L350.422 77.2029L352.072 70.4ZM344.222 71.3L340.407 65.4309L340.373 65.4531L340.339 65.4757L344.222 71.3ZM341.172 75L334.808 72.0835L334.794 72.1139L334.781 72.1444L341.172 75ZM340.122 82.2V89.2H347.122V82.2H340.122ZM336.672 82.2V75.2H329.672V82.2H336.672ZM336.672 87.3H329.672V94.3H336.672V87.3ZM362.536 106.45L359.763 112.877L359.817 112.901L359.87 112.923L362.536 106.45ZM374.036 106.45L376.701 112.923L376.755 112.901L376.808 112.877L374.036 106.45ZM378.336 103.45L373.254 98.6358L373.22 98.6715L373.187 98.7076L378.336 103.45ZM381.036 99.1L374.509 96.5693L374.487 96.6276L374.465 96.6863L381.036 99.1ZM381.036 88.75L374.465 91.1637L374.487 91.2224L374.509 91.2807L381.036 88.75ZM378.336 84.4L383.417 79.5858L383.417 79.5858L378.336 84.4ZM373.986 81.45L371.167 87.8572L371.243 87.8909L371.32 87.9227L373.986 81.45ZM362.536 81.45L365.201 87.9227L365.255 87.9006L365.308 87.8775L362.536 81.45ZM358.186 84.4L353.104 79.5858L353.07 79.6215L353.037 79.6577L358.186 84.4ZM358.186 103.45L353.037 108.192L353.07 108.229L353.104 108.264L358.186 103.45ZM362.336 98.05L356.075 101.181L356.093 101.216L356.111 101.251L362.336 98.05ZM362.336 89.9L368.561 93.1015L368.579 93.066L368.597 93.0304L362.336 89.9ZM364.786 87.1L368.581 92.9821L368.647 92.9395L368.712 92.8954L364.786 87.1ZM371.736 87.05L375.531 81.1679L375.531 81.1679L371.736 87.05ZM374.186 89.85L367.925 92.9804L367.959 93.0493L367.995 93.1174L374.186 89.85ZM374.186 98L367.995 94.7326L367.978 94.7655L367.961 94.7987L374.186 98ZM371.736 100.8L375.531 106.682L375.597 106.639L375.662 106.595L371.736 100.8ZM364.786 100.8L360.991 106.682L360.991 106.682L364.786 100.8ZM385.958 70.5V63.5H378.958V70.5H385.958ZM392.658 70.5H399.658V63.5H392.658V70.5ZM387.658 105.75L382.708 110.7L382.781 110.773L382.856 110.843L387.658 105.75ZM395.808 107.05L397.144 113.921L397.144 113.921L395.808 107.05ZM398.958 106.05L401.995 112.357L406.773 110.056L405.851 104.834L398.958 106.05ZM398.058 100.95L404.952 99.7335L403.373 90.7875L395.125 94.5943L398.058 100.95ZM396.558 101.45L394.955 94.6361L394.955 94.6361L396.558 101.45ZM393.258 101.05L388.114 105.798L388.209 105.901L388.308 106L393.258 101.05ZM401.377 107H394.377V114H401.377V107ZM401.377 80.8V73.8H394.377V80.8H401.377ZM408.077 107V114H415.077V107H408.077ZM408.077 80.8H415.077V73.8H408.077V80.8ZM401.377 77.15H394.377V84.15H401.377V77.15ZM401.377 70.5V63.5H394.377V70.5H401.377ZM408.077 77.15V84.15H415.077V77.15H408.077ZM408.077 70.5H415.077V63.5H408.077V70.5ZM419.971 106.45L417.199 112.877L417.252 112.901L417.306 112.923L419.971 106.45ZM431.471 106.45L434.137 112.923L434.19 112.901L434.244 112.877L431.471 106.45ZM435.771 103.45L430.69 98.6358L430.656 98.6715L430.623 98.7076L435.771 103.45ZM438.471 99.1L431.945 96.5693L431.922 96.6276L431.901 96.6863L438.471 99.1ZM438.471 88.75L431.901 91.1637L431.922 91.2224L431.945 91.2807L438.471 88.75ZM435.771 84.4L440.853 79.5858L440.853 79.5858L435.771 84.4ZM431.421 81.45L428.602 87.8572L428.679 87.8909L428.756 87.9227L431.421 81.45ZM419.971 81.45L422.637 87.9227L422.69 87.9006L422.744 87.8775L419.971 81.45ZM415.621 84.4L410.54 79.5858L410.506 79.6215L410.472 79.6577L415.621 84.4ZM415.621 103.45L410.472 108.192L410.506 108.229L410.54 108.264L415.621 103.45ZM419.771 98.05L413.51 101.181L413.528 101.216L413.546 101.251L419.771 98.05ZM419.771 89.9L425.996 93.1015L426.015 93.066L426.032 93.0304L419.771 89.9ZM422.221 87.1L426.016 92.9821L426.082 92.9395L426.147 92.8954L422.221 87.1ZM429.171 87.05L432.966 81.1679L432.966 81.1679L429.171 87.05ZM431.621 89.85L425.36 92.9804L425.395 93.0493L425.431 93.1174L431.621 89.85ZM431.621 98L425.431 94.7326L425.413 94.7655L425.396 94.7987L431.621 98ZM429.171 100.8L432.966 106.682L433.032 106.639L433.097 106.595L429.171 100.8ZM422.221 100.8L418.426 106.682L418.426 106.682L422.221 100.8ZM7 60C7 30.7289 30.7289 7 60 7V-7C22.9969 -7 -7 22.9969 -7 60H7ZM7 118V60H-7V118H7ZM60 171C30.7289 171 7 147.271 7 118H-7C-7 155.003 22.9969 185 60 185V171ZM619 171H60V185H619V171ZM672 118C672 147.271 648.271 171 619 171V185C656.003 185 686 155.003 686 118H672ZM672 60V118H686V60H672ZM619 7C648.271 7 672 30.7289 672 60H686C686 22.9969 656.003 -7 619 -7V7ZM60 7H619V-7H60V7ZM248.806 107V71.5H234.806V107H248.806ZM248.706 100H241.806V114H248.706V100ZM241.706 95.1V107H255.706V95.1H241.706ZM257.106 88.1H248.706V102.1H257.106V88.1ZM258.916 87.6489C258.596 87.8706 258.096 88.1 257.106 88.1V102.1C260.583 102.1 263.95 101.196 266.897 99.1511L258.916 87.6489ZM260.542 85.7778C260.122 86.5873 259.594 87.1783 258.916 87.6489L266.897 99.1511C269.485 97.355 271.524 95.0127 272.971 92.2222L260.542 85.7778ZM261.156 83.3C261.156 84.1625 260.967 84.9591 260.542 85.7777L272.971 92.2223C274.413 89.4409 275.156 86.4374 275.156 83.3H261.156ZM260.818 81.6263C261.057 82.2172 261.156 82.7605 261.156 83.3H275.156C275.156 80.9062 274.689 78.5828 273.795 76.3737L260.818 81.6263ZM259.734 79.9163C260.217 80.4461 260.567 81.0075 260.818 81.6264L273.795 76.3736C272.912 74.1925 271.663 72.2205 270.079 70.4837L259.734 79.9163ZM258.287 78.7914C258.83 79.0562 259.272 79.3938 259.658 79.8314L270.155 70.5686C268.541 68.7395 266.616 67.2771 264.425 66.2086L258.287 78.7914ZM256.856 78.5C257.507 78.5 257.946 78.625 258.287 78.7914L264.425 66.2086C262.033 65.0416 259.473 64.5 256.856 64.5V78.5ZM241.806 78.5H256.856V64.5H241.806V78.5ZM248.706 96.05H256.706V82.05H248.706V96.05ZM241.706 77.55V89.05H255.706V77.55H241.706ZM256.406 70.55H248.706V84.55H256.406V70.55ZM262.391 72.2481C260.57 71.1208 258.525 70.55 256.406 70.55V84.55C256.209 84.55 255.967 84.5233 255.703 84.4487C255.438 84.3739 255.208 84.2667 255.022 84.1519L262.391 72.2481ZM266.717 77.0194C265.767 75.1183 264.315 73.3832 262.268 72.1735L255.145 84.2265C254.881 84.0704 254.658 83.8811 254.484 83.6878C254.315 83.4995 254.228 83.3464 254.196 83.2806L266.717 77.0194ZM268.156 83.3C268.156 81.196 267.758 78.9443 266.62 76.8312L254.293 83.4688C254.195 83.2858 254.158 83.1512 254.148 83.1059C254.139 83.066 254.156 83.1212 254.156 83.3H268.156ZM266.953 89.1929C267.807 87.2728 268.156 85.2658 268.156 83.3H254.156C254.156 83.455 254.143 83.5374 254.138 83.5614C254.134 83.583 254.137 83.5593 254.16 83.5071L266.953 89.1929ZM262.971 94.0846C264.815 92.7933 266.084 91.0783 266.912 89.2835L254.201 83.4164C254.229 83.355 254.431 82.9734 254.942 82.6154L262.971 94.0846ZM256.706 96.05C258.939 96.05 261.098 95.3958 262.971 94.0847L254.942 82.6153C255.179 82.4493 255.475 82.2967 255.814 82.191C256.153 82.0858 256.461 82.05 256.706 82.05V96.05ZM283.372 100.5C282.008 100.5 281.017 100.278 280.287 99.9772L274.956 112.923C277.626 114.022 280.469 114.5 283.372 114.5V100.5ZM286.456 99.9773C285.726 100.278 284.736 100.5 283.372 100.5V114.5C286.274 114.5 289.117 114.022 291.787 112.923L286.456 99.9773ZM288.273 98.7076C287.82 99.1991 287.216 99.6484 286.349 100.023L291.894 112.877C294.427 111.785 296.69 110.234 298.57 108.192L288.273 98.7076ZM289.551 96.6863C289.28 97.4241 288.888 98.0579 288.34 98.6358L298.503 108.264C300.356 106.309 301.763 104.043 302.692 101.514L289.551 96.6863ZM290.072 93.95C290.072 94.9086 289.907 95.7653 289.595 96.5693L302.648 101.631C303.603 99.168 304.072 96.5914 304.072 93.95H290.072ZM289.595 91.2807C289.901 92.0698 290.072 92.9414 290.072 93.95H304.072C304.072 91.2919 303.609 88.6969 302.648 86.2193L289.595 91.2807ZM288.34 89.2142C288.888 89.7921 289.28 90.4259 289.551 91.1637L302.692 86.3363C301.763 83.8074 300.356 81.5412 298.503 79.5858L288.34 89.2142ZM286.406 87.9227C287.243 88.2672 287.856 88.703 288.34 89.2142L298.503 79.5858C296.588 77.5637 294.3 76.0328 291.737 74.9773L286.406 87.9227ZM283.372 87.35C284.699 87.35 285.614 87.5761 286.253 87.8572L291.891 75.0428C289.196 73.8573 286.311 73.35 283.372 73.35V87.35ZM280.394 87.8775C281.095 87.575 282.048 87.35 283.372 87.35V73.35C280.429 73.35 277.548 73.8583 274.849 75.0225L280.394 87.8775ZM278.353 89.2142C278.838 88.703 279.45 88.2672 280.287 87.9227L274.956 74.9773C272.393 76.0328 270.106 77.5637 268.19 79.5858L278.353 89.2142ZM277.098 91.2807C277.42 90.4499 277.858 89.7532 278.42 89.1423L268.123 79.6577C266.352 81.5801 264.99 83.7835 264.045 86.2193L277.098 91.2807ZM276.622 93.95C276.622 92.9414 276.792 92.0698 277.098 91.2807L264.045 86.2193C263.084 88.6969 262.622 91.2919 262.622 93.95H276.622ZM277.098 96.5693C276.786 95.7653 276.622 94.9086 276.622 93.95H262.622C262.622 96.5914 263.09 99.168 264.045 101.631L277.098 96.5693ZM278.42 98.7077C277.858 98.0968 277.42 97.4001 277.098 96.5693L264.045 101.631C264.99 104.067 266.352 106.27 268.123 108.192L278.42 98.7077ZM280.394 100.023C279.511 99.6416 278.862 99.1723 278.353 98.6358L268.19 108.264C270.082 110.261 272.332 111.792 274.849 112.877L280.394 100.023ZM269.522 93.95C269.522 96.4142 270.009 98.8781 271.161 101.181L283.683 94.9195C283.634 94.8219 283.522 94.5525 283.522 93.95H269.522ZM271.197 86.6985C270.008 89.0101 269.522 91.4909 269.522 93.95H283.522C283.522 93.3424 283.635 93.1233 283.647 93.1015L271.197 86.6985ZM276.077 81.2179C273.895 82.6255 272.269 84.5533 271.161 86.7696L283.683 93.0304C283.711 92.9741 283.732 92.9397 283.744 92.9223C283.755 92.9053 283.758 92.9025 283.752 92.9095C283.746 92.9168 283.734 92.9295 283.716 92.9445C283.699 92.9596 283.682 92.9724 283.667 92.9821L276.077 81.2179ZM283.372 79.05C280.734 79.05 278.188 79.7857 275.946 81.3046L283.798 92.8954C283.741 92.934 283.647 92.9831 283.533 93.0173C283.421 93.0508 283.357 93.05 283.372 93.05V79.05ZM290.617 81.1679C288.417 79.7486 285.942 79.05 283.372 79.05V93.05C283.384 93.05 283.329 93.0505 283.235 93.0233C283.14 92.9956 283.066 92.9572 283.027 92.9321L290.617 81.1679ZM295.533 86.7196C294.425 84.5033 292.798 82.5755 290.617 81.1679L283.027 92.932C283.012 92.9224 282.994 92.9096 282.977 92.8945C282.96 92.8795 282.947 92.8668 282.941 92.8595C282.935 92.8525 282.938 92.8553 282.95 92.8724C282.961 92.8897 282.983 92.9242 283.011 92.9804L295.533 86.7196ZM297.222 93.9C297.222 91.3836 296.682 88.8926 295.462 86.5826L283.081 93.1174C283.129 93.2074 283.222 93.4164 283.222 93.9H297.222ZM295.462 101.267C296.693 98.9356 297.222 96.4222 297.222 93.9H283.222C283.222 94.4445 283.117 94.6644 283.081 94.7326L295.462 101.267ZM290.748 106.595C292.803 105.203 294.388 103.357 295.497 101.201L283.047 94.7987C282.992 94.9046 282.953 94.9515 282.941 94.9655C282.93 94.9781 282.919 94.9886 282.896 95.0046L290.748 106.595ZM283.372 108.8C285.942 108.8 288.417 108.101 290.617 106.682L283.027 94.9179C283.066 94.8928 283.14 94.8544 283.235 94.8267C283.329 94.7995 283.384 94.8 283.372 94.8V108.8ZM276.077 106.682C278.307 108.121 280.806 108.8 283.372 108.8V94.8C283.326 94.8 283.36 94.795 283.445 94.8193C283.533 94.8445 283.612 94.8829 283.667 94.9179L276.077 106.682ZM271.197 101.251C272.319 103.434 273.943 105.306 276.077 106.682L283.667 94.918C283.67 94.9203 283.679 94.9261 283.689 94.935C283.699 94.9439 283.707 94.9517 283.711 94.9561C283.715 94.9603 283.711 94.9569 283.701 94.942C283.691 94.9269 283.672 94.8972 283.647 94.8487L271.197 101.251ZM316.694 79.6C313.723 79.6 310.811 80.1903 308.113 81.539L314.375 94.061C314.877 93.8097 315.598 93.6 316.694 93.6V79.6ZM309.694 80.5V86.6H323.694V80.5H309.694ZM316.194 87.45C316.104 87.45 315.96 87.4465 315.772 87.4278C315.588 87.4093 315.32 87.3721 314.996 87.291L318.392 73.709C317.514 73.4897 316.732 73.45 316.194 73.45V87.45ZM315.344 87.45H316.194V73.45H315.344V87.45ZM314.888 87.8282C315.363 87.4855 315.631 87.4457 315.781 87.4364L314.907 73.4636C311.857 73.6543 309.092 74.7479 306.7 76.4718L314.888 87.8282ZM313.458 89.6222C313.962 88.6516 314.467 88.1317 314.888 87.8282L306.7 76.4718C304.255 78.235 302.393 80.5484 301.03 83.1778L313.458 89.6222ZM300.244 80.8V86.4H314.244V80.8H300.244ZM301.094 87.8H307.244V73.8H301.094V87.8ZM308.094 107V80.8H294.094V107H308.094ZM307.794 100H301.094V114H307.794V100ZM300.794 91.15V107H314.794V91.15H300.794ZM308.219 81.4873C305.318 82.8772 302.93 85.0901 301.477 88.1349L314.111 94.1652C314.113 94.1612 314.108 94.1722 314.094 94.1912C314.081 94.2105 314.067 94.2257 314.058 94.2345C314.049 94.2429 314.055 94.2358 314.084 94.2161C314.113 94.1959 314.172 94.1593 314.269 94.1127L308.219 81.4873ZM332.965 99.1772C332.487 99.3738 331.877 99.6125 331.122 99.8957L336.038 113.004C336.883 112.687 337.639 112.393 338.295 112.123L332.965 99.1772ZM327.496 102.078L328.846 107.378L342.413 103.922L341.063 98.6221L327.496 102.078ZM334.992 107.557C335.718 107.303 336.394 107.052 336.972 106.811L331.587 93.8885C331.366 93.981 330.975 94.1304 330.368 94.343L334.992 107.557ZM330.63 108.3C332.125 108.3 333.589 108.048 334.992 107.557L330.367 94.343C330.396 94.3329 330.438 94.3211 330.489 94.3124C330.541 94.3036 330.589 94.3 330.63 94.3V108.3ZM324.324 106.015C326.235 107.653 328.506 108.3 330.63 108.3V94.3C330.949 94.3 331.407 94.3465 331.938 94.5284C332.481 94.7146 332.994 95.0071 333.435 95.3852L324.324 106.015ZM321.135 99.009C321.206 100.944 321.798 103.849 324.324 106.015L333.435 95.3851C335.029 96.7507 335.12 98.3563 335.125 98.491L321.135 99.009ZM321.13 85.95V98.75H335.13V85.95H321.13ZM333.63 78.95H328.13V92.95H333.63V78.95ZM326.63 80.8V85.95H340.63V80.8H326.63ZM328.13 87.8H333.63V73.8H328.13V87.8ZM321.13 72.3V80.8H335.13V72.3H321.13ZM321.43 79.3H328.13V65.3H321.43V79.3ZM328.43 80.8V72.3H314.43V80.8H328.43ZM317.98 87.8H321.43V73.8H317.98V87.8ZM324.98 85.95V80.8H310.98V85.95H324.98ZM321.43 78.95H317.98V92.95H321.43V78.95ZM328.43 101V85.95H314.43V101H328.43ZM328.277 101.058C328.419 101.287 328.459 101.445 328.462 101.454C328.462 101.457 328.454 101.423 328.446 101.347C328.438 101.27 328.43 101.156 328.43 101H314.43C314.43 103.398 314.895 106.044 316.382 108.442L328.277 101.058ZM327.537 100.345C327.62 100.379 327.741 100.445 327.868 100.55C327.996 100.654 328.079 100.756 328.122 100.82L316.538 108.68C317.927 110.729 319.829 112.294 322.123 113.255L327.537 100.345ZM328.23 100.45C327.832 100.45 327.63 100.384 327.537 100.345L322.123 113.255C324.096 114.083 326.161 114.45 328.23 114.45V100.45ZM329.461 100.317C329.066 100.405 328.659 100.45 328.23 100.45V114.45C329.668 114.45 331.094 114.295 332.498 113.983L329.461 100.317ZM331.122 99.8957C330.761 100.031 330.309 100.159 329.749 100.259L332.21 114.041C333.517 113.808 334.799 113.469 336.038 113.004L331.122 99.8957ZM347.122 107V87.3H333.122V107H347.122ZM346.822 100H340.122V114H346.822V100ZM339.822 87.3V107H353.822V87.3H339.822ZM353.222 80.3H346.822V94.3H353.222V80.3ZM346.222 82.2V87.3H360.222V82.2H346.222ZM346.822 89.2H353.222V75.2H346.822V89.2ZM339.822 80.35V82.2H353.822V80.35H339.822ZM342.122 72.65C340.243 75.1547 339.822 78.0633 339.822 80.35H353.822C353.822 80.0199 353.856 79.952 353.826 80.0683C353.793 80.1956 353.672 80.5826 353.322 81.05L342.122 72.65ZM350.322 68.65C347.321 68.65 344.233 69.8347 342.122 72.65L353.322 81.05C352.96 81.5328 352.426 81.9959 351.755 82.3057C351.113 82.6023 350.58 82.65 350.322 82.65V68.65ZM354.233 69.2452C353.016 68.88 351.702 68.65 350.322 68.65V82.65C350.142 82.65 350.094 82.62 350.21 82.6548L354.233 69.2452ZM357.266 70.4235C356.167 69.8377 355.028 69.4362 353.919 69.159L350.524 82.741C350.632 82.7681 350.696 82.7898 350.722 82.7995C350.748 82.8091 350.73 82.8042 350.678 82.7765L357.266 70.4235ZM348.559 69.7422L347.209 74.7922L360.734 78.4078L362.084 73.3578L348.559 69.7422ZM350.422 77.2029C351.049 77.3549 351.691 77.5788 352.351 77.8882L358.293 65.2118C356.819 64.5211 355.294 63.9784 353.721 63.597L350.422 77.2029ZM348.872 77C349.349 77 349.845 77.0589 350.374 77.191L353.769 63.609C352.165 63.2078 350.528 63 348.872 63V77ZM348.037 77.1691C348.111 77.121 348.304 77 348.872 77V63C345.906 63 342.999 63.7457 340.407 65.4309L348.037 77.1691ZM347.535 77.9165C347.798 77.3439 348.017 77.1825 348.105 77.1243L340.339 65.4757C337.826 67.1508 336.012 69.4561 334.808 72.0835L347.535 77.9165ZM347.122 80.6C347.122 79.1675 347.355 78.3207 347.563 77.8556L334.781 72.1444C333.588 74.8126 333.122 77.6991 333.122 80.6H347.122ZM347.122 82.2V80.6H333.122V82.2H347.122ZM336.672 89.2H340.122V75.2H336.672V89.2ZM343.672 87.3V82.2H329.672V87.3H343.672ZM340.122 80.3H336.672V94.3H340.122V80.3ZM368.286 100.5C366.922 100.5 365.931 100.278 365.201 99.9772L359.87 112.923C362.54 114.022 365.383 114.5 368.286 114.5V100.5ZM371.37 99.9773C370.64 100.278 369.65 100.5 368.286 100.5V114.5C371.188 114.5 374.031 114.022 376.701 112.923L371.37 99.9773ZM373.187 98.7076C372.734 99.1991 372.13 99.6484 371.263 100.023L376.808 112.877C379.341 111.785 381.604 110.234 383.485 108.192L373.187 98.7076ZM374.465 96.6863C374.194 97.4241 373.802 98.0579 373.254 98.6358L383.417 108.264C385.27 106.309 386.677 104.043 387.606 101.514L374.465 96.6863ZM374.986 93.95C374.986 94.9086 374.821 95.7653 374.509 96.5693L387.562 101.631C388.517 99.168 388.986 96.5914 388.986 93.95H374.986ZM374.509 91.2807C374.815 92.0698 374.986 92.9414 374.986 93.95H388.986C388.986 91.2919 388.523 88.6969 387.562 86.2193L374.509 91.2807ZM373.254 89.2142C373.802 89.7921 374.194 90.4259 374.465 91.1637L387.606 86.3363C386.677 83.8074 385.27 81.5412 383.417 79.5858L373.254 89.2142ZM371.32 87.9227C372.157 88.2672 372.77 88.703 373.254 89.2142L383.417 79.5858C381.502 77.5637 379.214 76.0328 376.651 74.9773L371.32 87.9227ZM368.286 87.35C369.613 87.35 370.528 87.5761 371.167 87.8572L376.805 75.0428C374.11 73.8573 371.225 73.35 368.286 73.35V87.35ZM365.308 87.8775C366.01 87.575 366.962 87.35 368.286 87.35V73.35C365.343 73.35 362.462 73.8583 359.763 75.0225L365.308 87.8775ZM363.267 89.2142C363.752 88.703 364.364 88.2672 365.201 87.9227L359.87 74.9773C357.307 76.0328 355.02 77.5637 353.104 79.5858L363.267 89.2142ZM362.012 91.2807C362.334 90.4499 362.772 89.7532 363.335 89.1423L353.037 79.6577C351.266 81.5801 349.904 83.7835 348.959 86.2193L362.012 91.2807ZM361.536 93.95C361.536 92.9414 361.706 92.0698 362.012 91.2807L348.959 86.2193C347.999 88.6969 347.536 91.2919 347.536 93.95H361.536ZM362.012 96.5693C361.701 95.7653 361.536 94.9086 361.536 93.95H347.536C347.536 96.5914 348.004 99.168 348.959 101.631L362.012 96.5693ZM363.335 98.7077C362.772 98.0968 362.334 97.4001 362.012 96.5693L348.959 101.631C349.904 104.067 351.266 106.27 353.037 108.192L363.335 98.7077ZM365.308 100.023C364.425 99.6416 363.776 99.1723 363.267 98.6358L353.104 108.264C354.996 110.261 357.246 111.792 359.763 112.877L365.308 100.023ZM354.436 93.95C354.436 96.4142 354.924 98.8781 356.075 101.181L368.597 94.9195C368.548 94.8219 368.436 94.5525 368.436 93.95H354.436ZM356.111 86.6985C354.922 89.0101 354.436 91.4909 354.436 93.95H368.436C368.436 93.3424 368.55 93.1233 368.561 93.1015L356.111 86.6985ZM360.991 81.2179C358.809 82.6255 357.183 84.5533 356.075 86.7696L368.597 93.0304C368.625 92.9741 368.646 92.9397 368.658 92.9223C368.669 92.9053 368.672 92.9025 368.666 92.9095C368.66 92.9168 368.648 92.9295 368.63 92.9445C368.613 92.9596 368.596 92.9724 368.581 92.9821L360.991 81.2179ZM368.286 79.05C365.648 79.05 363.102 79.7857 360.86 81.3046L368.712 92.8954C368.655 92.934 368.561 92.9831 368.447 93.0173C368.336 93.0508 368.271 93.05 368.286 93.05V79.05ZM375.531 81.1679C373.331 79.7486 370.856 79.05 368.286 79.05V93.05C368.298 93.05 368.243 93.0505 368.149 93.0233C368.054 92.9956 367.98 92.9572 367.941 92.9321L375.531 81.1679ZM380.447 86.7196C379.339 84.5033 377.712 82.5755 375.531 81.1679L367.941 92.932C367.926 92.9224 367.909 92.9096 367.891 92.8945C367.874 92.8795 367.862 92.8668 367.855 92.8595C367.849 92.8525 367.852 92.8553 367.864 92.8724C367.875 92.8897 367.897 92.9242 367.925 92.9804L380.447 86.7196ZM382.136 93.9C382.136 91.3836 381.596 88.8926 380.376 86.5826L367.995 93.1174C368.043 93.2074 368.136 93.4164 368.136 93.9H382.136ZM380.376 101.267C381.607 98.9356 382.136 96.4222 382.136 93.9H368.136C368.136 94.4445 368.031 94.6644 367.995 94.7326L380.376 101.267ZM375.662 106.595C377.717 105.203 379.302 103.357 380.411 101.201L367.961 94.7987C367.906 94.9046 367.867 94.9515 367.855 94.9655C367.844 94.9781 367.833 94.9886 367.81 95.0046L375.662 106.595ZM368.286 108.8C370.856 108.8 373.331 108.101 375.531 106.682L367.941 94.9179C367.98 94.8928 368.054 94.8544 368.149 94.8267C368.243 94.7995 368.298 94.8 368.286 94.8V108.8ZM360.991 106.682C363.221 108.121 365.72 108.8 368.286 108.8V94.8C368.24 94.8 368.274 94.795 368.359 94.8193C368.447 94.8445 368.526 94.8829 368.581 94.9179L360.991 106.682ZM356.111 101.251C357.233 103.434 358.857 105.306 360.991 106.682L368.581 94.918C368.584 94.9203 368.593 94.9261 368.603 94.935C368.613 94.9439 368.621 94.9517 368.625 94.9561C368.629 94.9603 368.625 94.9569 368.615 94.942C368.605 94.9269 368.586 94.8972 368.561 94.8487L356.111 101.251ZM385.958 77.5H392.658V63.5H385.958V77.5ZM392.958 100.95V70.5H378.958V100.95H392.958ZM392.608 100.8C392.704 100.897 392.79 101.005 392.858 101.116C392.926 101.225 392.964 101.313 392.981 101.363C393.015 101.457 392.958 101.355 392.958 100.95H378.958C378.958 104.312 379.912 107.904 382.708 110.7L392.608 100.8ZM392.558 100.4C392.107 100.4 391.951 100.34 391.992 100.354C392.016 100.362 392.082 100.387 392.174 100.441C392.268 100.496 392.367 100.569 392.46 100.657L382.856 110.843C385.684 113.51 389.242 114.4 392.558 114.4V100.4ZM394.472 100.179C393.602 100.348 392.977 100.4 392.558 100.4V114.4C394.073 114.4 395.614 114.219 397.144 113.921L394.472 100.179ZM395.921 99.743C395.666 99.8658 395.209 100.035 394.472 100.179L397.144 113.921C398.807 113.598 400.45 113.101 401.995 112.357L395.921 99.743ZM391.165 102.166L392.065 107.266L405.851 104.834L404.952 99.7335L391.165 102.166ZM398.161 108.264C399.09 108.045 400.05 107.74 400.991 107.306L395.125 94.5943C395.165 94.5756 395.174 94.5742 395.144 94.5842C395.115 94.5942 395.053 94.6129 394.955 94.6361L398.161 108.264ZM394.908 108.65C396.028 108.65 397.117 108.51 398.161 108.264L394.955 94.6361C394.91 94.6467 394.885 94.6501 394.878 94.6509C394.872 94.6516 394.882 94.65 394.908 94.65V108.65ZM388.308 106C390.318 108.009 392.819 108.65 394.908 108.65V94.65C395.218 94.65 395.737 94.694 396.363 94.9214C397.015 95.1586 397.659 95.5517 398.208 96.1001L388.308 106ZM385.658 98.6C385.658 100.01 385.775 103.264 388.114 105.798L398.402 96.3021C399.276 97.2488 399.538 98.1656 399.607 98.4475C399.684 98.7609 399.658 98.8562 399.658 98.6H385.658ZM385.658 70.5V98.6H399.658V70.5H385.658ZM408.377 107V80.8H394.377V107H408.377ZM408.077 100H401.377V114H408.077V100ZM401.077 80.8V107H415.077V80.8H401.077ZM401.377 87.8H408.077V73.8H401.377V87.8ZM408.377 77.15V70.5H394.377V77.15H408.377ZM408.077 70.15H401.377V84.15H408.077V70.15ZM401.077 70.5V77.15H415.077V70.5H401.077ZM401.377 77.5H408.077V63.5H401.377V77.5ZM425.721 100.5C424.357 100.5 423.367 100.278 422.637 99.9772L417.306 112.923C419.976 114.022 422.819 114.5 425.721 114.5V100.5ZM428.806 99.9773C428.076 100.278 427.085 100.5 425.721 100.5V114.5C428.624 114.5 431.467 114.022 434.137 112.923L428.806 99.9773ZM430.623 98.7076C430.17 99.1991 429.566 99.6484 428.699 100.023L434.244 112.877C436.777 111.785 439.039 110.234 440.92 108.192L430.623 98.7076ZM431.901 96.6863C431.63 97.4241 431.237 98.0579 430.69 98.6358L440.853 108.264C442.705 106.309 444.113 104.043 445.042 101.514L431.901 96.6863ZM432.421 93.95C432.421 94.9086 432.257 95.7653 431.945 96.5693L444.998 101.631C445.953 99.168 446.421 96.5914 446.421 93.95H432.421ZM431.945 91.2807C432.251 92.0698 432.421 92.9414 432.421 93.95H446.421C446.421 91.2919 445.958 88.6969 444.998 86.2193L431.945 91.2807ZM430.69 89.2142C431.237 89.7921 431.63 90.4259 431.901 91.1637L445.042 86.3363C444.113 83.8074 442.705 81.5412 440.853 79.5858L430.69 89.2142ZM428.756 87.9227C429.593 88.2672 430.205 88.703 430.69 89.2142L440.853 79.5858C438.937 77.5637 436.65 76.0328 434.087 74.9773L428.756 87.9227ZM425.721 87.35C427.049 87.35 427.963 87.5761 428.602 87.8572L434.24 75.0428C431.546 73.8573 428.661 73.35 425.721 73.35V87.35ZM422.744 87.8775C423.445 87.575 424.397 87.35 425.721 87.35V73.35C422.779 73.35 419.898 73.8583 417.199 75.0225L422.744 87.8775ZM420.703 89.2142C421.187 88.703 421.8 88.2672 422.637 87.9227L417.306 74.9773C414.743 76.0328 412.455 77.5637 410.54 79.5858L420.703 89.2142ZM419.448 91.2807C419.77 90.4499 420.207 89.7532 420.77 89.1423L410.472 79.6577C408.702 81.5801 407.339 83.7835 406.395 86.2193L419.448 91.2807ZM418.971 93.95C418.971 92.9414 419.142 92.0698 419.448 91.2807L406.395 86.2193C405.434 88.6969 404.971 91.2919 404.971 93.95H418.971ZM419.448 96.5693C419.136 95.7653 418.971 94.9086 418.971 93.95H404.971C404.971 96.5914 405.44 99.168 406.395 101.631L419.448 96.5693ZM420.77 98.7077C420.207 98.0968 419.77 97.4001 419.448 96.5693L406.395 101.631C407.339 104.067 408.702 106.27 410.472 108.192L420.77 98.7077ZM422.744 100.023C421.861 99.6416 421.211 99.1723 420.703 98.6358L410.54 108.264C412.431 110.261 414.682 111.792 417.199 112.877L422.744 100.023ZM411.871 93.95C411.871 96.4142 412.359 98.8781 413.51 101.181L426.032 94.9195C425.984 94.8219 425.871 94.5525 425.871 93.95H411.871ZM413.546 86.6985C412.358 89.0101 411.871 91.4909 411.871 93.95H425.871C425.871 93.3424 425.985 93.1233 425.996 93.1015L413.546 86.6985ZM418.426 81.2179C416.245 82.6255 414.618 84.5533 413.51 86.7696L426.032 93.0304C426.06 92.9741 426.082 92.9397 426.093 92.9223C426.105 92.9053 426.108 92.9025 426.102 92.9095C426.095 92.9168 426.083 92.9295 426.066 92.9445C426.049 92.9596 426.031 92.9724 426.016 92.9821L418.426 81.2179ZM425.721 79.05C423.083 79.05 420.537 79.7857 418.295 81.3046L426.147 92.8954C426.09 92.934 425.997 92.9831 425.883 93.0173C425.771 93.0508 425.707 93.05 425.721 93.05V79.05ZM432.966 81.1679C430.766 79.7486 428.291 79.05 425.721 79.05V93.05C425.733 93.05 425.679 93.0505 425.585 93.0233C425.489 92.9956 425.415 92.9572 425.376 92.9321L432.966 81.1679ZM437.882 86.7196C436.774 84.5033 435.148 82.5755 432.966 81.1679L425.376 92.932C425.361 92.9224 425.344 92.9096 425.327 92.8945C425.309 92.8795 425.297 92.8668 425.291 92.8595C425.285 92.8525 425.288 92.8553 425.299 92.8724C425.311 92.8897 425.332 92.9242 425.36 92.9804L437.882 86.7196ZM439.571 93.9C439.571 91.3836 439.031 88.8926 437.812 86.5826L425.431 93.1174C425.478 93.2074 425.571 93.4164 425.571 93.9H439.571ZM437.812 101.267C439.043 98.9356 439.571 96.4222 439.571 93.9H425.571C425.571 94.4445 425.467 94.6644 425.431 94.7326L437.812 101.267ZM433.097 106.595C435.152 105.203 436.738 103.357 437.846 101.201L425.396 94.7987C425.342 94.9046 425.303 94.9515 425.291 94.9655C425.28 94.9781 425.269 94.9886 425.245 95.0046L433.097 106.595ZM425.721 108.8C428.291 108.8 430.766 108.101 432.966 106.682L425.376 94.9179C425.415 94.8928 425.489 94.8544 425.585 94.8267C425.679 94.7995 425.733 94.8 425.721 94.8V108.8ZM418.426 106.682C420.657 108.121 423.156 108.8 425.721 108.8V94.8C425.675 94.8 425.709 94.795 425.794 94.8193C425.882 94.8445 425.962 94.8829 426.016 94.9179L418.426 106.682ZM413.546 101.251C414.669 103.434 416.293 105.306 418.426 106.682L426.016 94.918C426.02 94.9203 426.028 94.9261 426.039 94.935C426.049 94.9439 426.056 94.9517 426.06 94.9561C426.064 94.9603 426.061 94.9569 426.05 94.942C426.04 94.9269 426.021 94.8972 425.996 94.8487L413.546 101.251Z" fill="white" mask="url(#path-1-inside-1_89_253)"/>
</svg>
